{
.appVersion = "1231";
copyright = "Copyright © 2019 by Red Hat. All rights reserved.";
customParameters = (
{
name = description;
value = "Copyright (c) 2019 by Red Hat. All rights reserved.";
},
{
name = license;
value = "This Font Software is licensed under the SIL Open Font License, Version 1.1. This license is available with a FAQ at: http://scripts.sil.org/OFL";
},
{
name = licenseURL;
value = "http://scripts.sil.org/OFL";
}
);
date = "2019-04-22 16:15:08 +0000";
designer = "Liz Wetzel, Aaron Williamson, Russ McMullin";
designerURL = "https://www.redhat.com/en/open-source-stories/because-we-had-to";
disablesAutomaticAlignment = 1;
familyName = "Because We Mentor";
featurePrefixes = (
{
code = "languagesystem DFLT dflt;\012";
name = Languagesystems;
}
);
features = (
{
code = "sub a a' by A.ss01;\012sub b b' by B.ss01;\012sub c c' by C.ss01;\012sub d d' by D.ss01;\012sub e e' by E.ss01;\012sub f f' by F.ss01;\012sub g g' by G.ss01;\012sub h h' by H.ss01;\012sub i i' by I.ss01;\012sub j j' by J.ss01;\012sub k k' by K.ss01;\012sub l l' by L.ss01;\012sub m m' by M.ss01;\012sub n n' by N.ss01;\012sub o o' by O.ss01;\012sub p p' by P.ss01;\012sub q q' by Q.ss01;\012sub r r' by R.ss01;\012sub s s' by S.ss01;\012sub t t' by T.ss01;\012sub u u' by U.ss01;\012sub v v' by V.ss01;\012sub w w' by W.ss01;\012sub x x' by X.ss01;\012sub z z' by Z.ss01;\012sub A A' by A.ss01;\012sub B B' by B.ss01;\012sub C C' by C.ss01;\012sub D D' by D.ss01;\012sub E E' by E.ss01;\012sub F F' by F.ss01;\012sub G G' by G.ss01;\012sub H H' by H.ss01;\012sub I I' by I.ss01;\012sub J J' by J.ss01;\012sub K K' by K.ss01;\012sub L L' by L.ss01;\012sub M M' by M.ss01;\012sub N N' by N.ss01;\012sub O O' by O.ss01;\012sub P P' by P.ss01;\012sub Q Q' by Q.ss01;\012sub R R' by R.ss01;\012sub S S' by S.ss01;\012sub T T' by T.ss01;\012sub U U' by U.ss01;\012sub V V' by V.ss01;\012sub W W' by W.ss01;\012sub X X' by X.ss01;\012sub Z Z' by Z.ss01;";
name = calt;
}
);
fontMaster = (
{
alignmentZones = (

glyphs = (
{
glyphname = A;
lastChange = "2019-03-20 21:42:44 +0000";
layers = (
{
hints = (
{
place = "{10, 381}";
type = Stem;
},
{
horizontal = 1;
place = "{261, 55}";
type = Stem;
}
);
layerId = UUID0;
paths = (
{
closed = 1;
nodes = (
"144 579 OFFCURVE",
"107 444 OFFCURVE",
"86 385 CURVE SMOOTH",
"62 317 OFFCURVE",
"37 249 OFFCURVE",
"17 179 CURVE SMOOTH",
"13 167 OFFCURVE",
"10 151 OFFCURVE",
"10 136 CURVE SMOOTH",
"10 112 OFFCURVE",
"24 101 OFFCURVE",
"39 101 CURVE SMOOTH",
"82 101 OFFCURVE",
"105 212 OFFCURVE",
"129 261 CURVE",
"143 261 LINE SMOOTH",
"181 261 OFFCURVE",
"218 267 OFFCURVE",
"256 270 CURVE",
"278 202 OFFCURVE",
"316 66 OFFCURVE",
"360 66 CURVE SMOOTH",
"387 66 OFFCURVE",
"391 90 OFFCURVE",
"391 112 CURVE SMOOTH",
"391 132 OFFCURVE",
"389 152 OFFCURVE",
"385 173 CURVE SMOOTH",
"361 314 OFFCURVE",
"340 579 OFFCURVE",
"223 579 CURVE SMOOTH"
);
},
{
closed = 1;
nodes = (
"221 420 OFFCURVE",
"233 371 OFFCURVE",
"242 321 CURVE",
"210 316 OFFCURVE",
"179 316 OFFCURVE",
"147 316 CURVE",
"162 368 OFFCURVE",
"181 422 OFFCURVE",
"209 469 CURVE"
);
}
);
width = 401;
}
);
unicode = 0041;
},
{
glyphname = B;
lastChange = "2019-03-20 21:42:54 +0000";
layers = (
{
hints = (
{
place = "{30, 103}";
type = Stem;
},
{
place = "{33, 105}";
type = Stem;
},
{
place = "{34, 92}";
type = Stem;
},
{
place = "{258, 54}";
type = Stem;
},
{
place = "{285, 77}";
type = Stem;
},
{
horizontal = 1;
place = "{42, 77}";
type = Stem;
},
{
horizontal = 1;
place = "{319, 68}";
type = Stem;
},
{
horizontal = 1;
place = "{583, 62}";
type = Stem;
}
);
layerId = UUID0;
paths = (
{
closed = 1;
nodes = (
"197 645 OFFCURVE",
"158 626 OFFCURVE",
"114 610 CURVE",
"101 622 OFFCURVE",
"90 637 OFFCURVE",
"72 637 CURVE SMOOTH",
"34 637 OFFCURVE",
"34 563 OFFCURVE",
"34 492 CURVE SMOOTH",
"34 474 OFFCURVE",
"34 456 OFFCURVE",
"33 440 CURVE SMOOTH",
"34 340 OFFCURVE",
"41 234 OFFCURVE",
"64 141 CURVE SMOOTH",
"69 120 OFFCURVE",
"81 107 OFFCURVE",
"92 90 CURVE",
"74 96 OFFCURVE",
"54 119 OFFCURVE",
"41 119 CURVE SMOOTH",
"36 119 OFFCURVE",
"30 114 OFFCURVE",
"30 107 CURVE SMOOTH",
"30 72 OFFCURVE",
"50 42 OFFCURVE",
"90 42 CURVE SMOOTH",
"133 42 OFFCURVE",
"176 62 OFFCURVE",
"213 81 CURVE SMOOTH",
"291 121 OFFCURVE",
"362 193 OFFCURVE",
"362 283 CURVE SMOOTH",
"362 361 OFFCURVE",
"320 387 OFFCURVE",
"220 387 CURVE",
"257 443 OFFCURVE",
"312 507 OFFCURVE",
"312 577 CURVE SMOOTH",
"312 621 OFFCURVE",
"279 645 OFFCURVE",
"239 645 CURVE SMOOTH"
);
},
{
closed = 1;
nodes = (
"250 583 OFFCURVE",
"258 579 OFFCURVE",
"258 565 CURVE SMOOTH",
"258 518 OFFCURVE",
"181 407 OFFCURVE",
"138 373 CURVE",
"132 414 OFFCURVE",
"135 455 OFFCURVE",
"130 495 CURVE SMOOTH",
"128 514 OFFCURVE",
"126 533 OFFCURVE",
"126 553 CURVE",
"160 566 OFFCURVE",
"196 583 OFFCURVE",
"239 583 CURVE SMOOTH"
);
},
{
closed = 1;
nodes = (
"273 317 OFFCURVE",
"285 312 OFFCURVE",
"285 287 CURVE SMOOTH",
"285 218 OFFCURVE",
"202 147 OFFCURVE",
"136 117 CURVE",
"135 152 OFFCURVE",
"133 187 OFFCURVE",
"133 222 CURVE SMOOTH",
"133 250 OFFCURVE",
"134 277 OFFCURVE",
"138 304 CURVE",
"171 310 OFFCURVE",
"208 319 OFFCURVE",
"242 319 CURVE"
);
}
);
width = 382;
}
);
unicode = 0042;
},
{
glyphname = C;
lastChange = "2019-03-20 21:42:08 +0000";
layers = (
{
hints = (
{
place = "{20, 105}";
type = Stem;
},
{
horizontal = 1;
place = "{0, 96}";
type = Stem;
}
);
layerId = UUID0;
paths = (
{
closed = 1;
nodes = (
"61 583 OFFCURVE",
"20 373 OFFCURVE",
"20 260 CURVE SMOOTH",
"20 171 OFFCURVE",
"46 0 OFFCURVE",
"173 0 CURVE SMOOTH",
"272 0 OFFCURVE",
"369 98 OFFCURVE",
"369 191 CURVE SMOOTH",
"369 211 OFFCURVE",
"368 234 OFFCURVE",
"345 234 CURVE SMOOTH",
"317 234 OFFCURVE",
"308 175 OFFCURVE",
"287 149 CURVE SMOOTH",
"264 120 OFFCURVE",
"227 96 OFFCURVE",
"190 96 CURVE SMOOTH",
"130 96 OFFCURVE",
"125 216 OFFCURVE",
"125 261 CURVE SMOOTH",
"125 333 OFFCURVE",
"137 441 OFFCURVE",
"172 481 CURVE",
"192 496 OFFCURVE",
"222 494 OFFCURVE",
"222 531 CURVE SMOOTH",
"222 559 OFFCURVE",
"199 583 OFFCURVE",
"165 583 CURVE SMOOTH"
);
}
);
width = 379;
}
);
unicode = 0043;
},
{
glyphname = D;
lastChange = "2019-03-20 21:42:08 +0000";
layers = (
{
hints = (
{
place = "{20, 133}";
type = Stem;
},
{
place = "{254, 110}";
type = Stem;
},
{
horizontal = 1;
place = "{605, -20}";
target = down;
type = TopGhost;
}
);
layerId = UUID0;
paths = (
{
closed = 1;
nodes = (
"44 605 OFFCURVE",
"20 580 OFFCURVE",
"20 553 CURVE SMOOTH",
"20 536 OFFCURVE",
"21 518 OFFCURVE",
"21 501 CURVE SMOOTH",
"21 473 OFFCURVE",
"20 445 OFFCURVE",
"20 417 CURVE SMOOTH",
"20 370 OFFCURVE",
"21 324 OFFCURVE",
"30 277 CURVE SMOOTH",
"44 198 OFFCURVE",
"58 40 OFFCURVE",
"109 40 CURVE SMOOTH",
"125 40 OFFCURVE",
"140 57 OFFCURVE",
"153 62 CURVE SMOOTH",
"176 71 OFFCURVE",
"199 75 OFFCURVE",
"220 87 CURVE SMOOTH",
"298 133 OFFCURVE",
"364 201 OFFCURVE",
"364 306 CURVE SMOOTH",
"364 463 OFFCURVE",
"231 598 OFFCURVE",
"71 605 CURVE"
);
},
{
closed = 1;
nodes = (
"196 461 OFFCURVE",
"254 380 OFFCURVE",
"254 302 CURVE SMOOTH",
"254 226 OFFCURVE",
"205 168 OFFCURVE",
"146 130 CURVE",
"146 190 OFFCURVE",
"153 249 OFFCURVE",
"153 310 CURVE SMOOTH",
"153 376 OFFCURVE",
"142 439 OFFCURVE",
"133 505 CURVE"
);
}
);
width = 384;
}
);
unicode = 0044;
},
{
glyphname = E;
lastChange = "2019-03-20 21:43:31 +0000";
layers = (
{
hints = (
{
place = "{38, 144}";
type = Stem;
},
{
horizontal = 1;
place = "{15, 146}";
type = Stem;
}
);
layerId = UUID0;
paths = (
{
closed = 1;
nodes = (
"345 566 OFFCURVE",
"343 576 OFFCURVE",
"324 576 CURVE SMOOTH",
"307 576 OFFCURVE",
"282 568 OFFCURVE",
"264 566 CURVE SMOOTH",
"184 557 OFFCURVE",
"30 556 OFFCURVE",
"30 484 CURVE SMOOTH",
"30 453 OFFCURVE",
"38 423 OFFCURVE",
"38 388 CURVE SMOOTH",
"38 322 LINE SMOOTH",
"38 216 OFFCURVE",
"42 15 OFFCURVE",
"208 15 CURVE SMOOTH",
"259 15 OFFCURVE",
"387 70 OFFCURVE",
"387 132 CURVE SMOOTH",
"387 158 OFFCURVE",
"364 167 OFFCURVE",
"345 167 CURVE SMOOTH",
"321 167 OFFCURVE",
"297 161 OFFCURVE",
"273 161 CURVE SMOOTH",
"246 161 OFFCURVE",
"202 161 OFFCURVE",
"194 170 CURVE SMOOTH",
"186 179 OFFCURVE",
"187 198 OFFCURVE",
"187 218 CURVE SMOOTH",
"187 253 LINE",
"189 268 OFFCURVE",
"280 305 OFFCURVE",
"316 327 CURVE SMOOTH",
"331 336 OFFCURVE",
"348 349 OFFCURVE",
"348 363 CURVE SMOOTH",
"348 370 OFFCURVE",
"344 378 OFFCURVE",
"335 378 CURVE SMOOTH",
"286 378 OFFCURVE",
"236 353 OFFCURVE",
"182 340 CURVE",
"181 380 OFFCURVE",
"176 419 OFFCURVE",
"174 458 CURVE",
"224 480 OFFCURVE",
"345 498 OFFCURVE",
"345 553 CURVE SMOOTH"
);
}
);
width = 407;
}
);
unicode = 0045;
},
{
glyphname = F;
lastChange = "2019-03-20 21:42:08 +0000";
layers = (
{
hints = (
{
place = "{39, 101}";
type = Stem;
},
{
horizontal = 1;
place = "{255, 70}";
type = Stem;
},
{
horizontal = 1;
place = "{529, 52}";
type = Stem;
}
);
layerId = UUID0;
paths = (
{
closed = 1;
nodes = (
"135 490 OFFCURVE",
"135 506 OFFCURVE",
"135 521 CURVE",
"186 521 OFFCURVE",
"236 529 OFFCURVE",
"287 529 CURVE SMOOTH",
"301 529 OFFCURVE",
"316 528 OFFCURVE",
"330 528 CURVE SMOOTH",
"353 528 OFFCURVE",
"360 535 OFFCURVE",
"360 550 CURVE SMOOTH",
"360 582 OFFCURVE",
"321 582 OFFCURVE",
"293 582 CURVE SMOOTH",
"284 582 OFFCURVE",
"276 581 OFFCURVE",
"267 581 CURVE SMOOTH",
"227 581 OFFCURVE",
"178 582 OFFCURVE",
"135 586 CURVE",
"117 593 OFFCURVE",
"113 618 OFFCURVE",
"86 618 CURVE SMOOTH",
"62 618 OFFCURVE",
"30 594 OFFCURVE",
"30 557 CURVE SMOOTH",
"30 538 OFFCURVE",
"41 520 OFFCURVE",
"41 500 CURVE SMOOTH",
"41 446 OFFCURVE",
"39 392 OFFCURVE",
"39 337 CURVE SMOOTH",
"39 295 OFFCURVE",
"41 252 OFFCURVE",
"46 211 CURVE SMOOTH",
"53 149 OFFCURVE",
"45 26 OFFCURVE",
"97 26 CURVE SMOOTH",
"131 26 OFFCURVE",
"136 69 OFFCURVE",
"136 113 CURVE SMOOTH",
"136 130 OFFCURVE",
"135 148 OFFCURVE",
"135 163 CURVE SMOOTH",
"135 186 OFFCURVE",
"140 208 OFFCURVE",
"141 233 CURVE",
"196 260 OFFCURVE",
"317 253 OFFCURVE",
"317 322 CURVE SMOOTH",
"317 333 OFFCURVE",
"311 346 OFFCURVE",
"296 346 CURVE SMOOTH",
"281 346 OFFCURVE",
"265 340 OFFCURVE",
"250 336 CURVE SMOOTH",
"224 329 OFFCURVE",
"198 326 OFFCURVE",
"171 326 CURVE SMOOTH",
"162 326 OFFCURVE",
"152 326 OFFCURVE",
"143 327 CURVE",
"143 377 OFFCURVE",
"138 426 OFFCURVE",
"138 476 CURVE"
);
}
);
width = 370;
}
);
unicode = 0046;
},
{
glyphname = G;
lastChange = "2019-03-20 21:44:38 +0000";
layers = (
{
hints = (
{
place = "{20, 103}";
type = Stem;
},
{
horizontal = 1;
place = "{66, 77}";
type = Stem;
},
{
horizontal = 1;
place = "{234, 92}";
type = Stem;
},
{
horizontal = 1;
place = "{420, 162}";
type = Stem;
}
);
layerId = UUID0;
paths = (
{
closed = 1;
nodes = (
"63 579 OFFCURVE",
"20 424 OFFCURVE",
"20 329 CURVE SMOOTH",
"20 225 OFFCURVE",
"71 66 OFFCURVE",
"188 66 CURVE SMOOTH",
"214 66 OFFCURVE",
"239 75 OFFCURVE",
"260 91 CURVE SMOOTH",
"313 132 OFFCURVE",
"382 228 OFFCURVE",
"382 270 CURVE SMOOTH",
"382 312 OFFCURVE",
"340 326 OFFCURVE",
"309 326 CURVE SMOOTH",
"265 326 OFFCURVE",
"193 302 OFFCURVE",
"183 267 CURVE",
"183 245 OFFCURVE",
"197 234 OFFCURVE",
"218 234 CURVE SMOOTH",
"255 234 OFFCURVE",
"292 250 OFFCURVE",
"328 255 CURVE",
"309 208 OFFCURVE",
"255 143 OFFCURVE",
"207 143 CURVE SMOOTH",
"136 143 OFFCURVE",
"123 272 OFFCURVE",
"123 325 CURVE SMOOTH",
"123 372 OFFCURVE",
"133 432 OFFCURVE",
"157 469 CURVE SMOOTH",
"161 475 OFFCURVE",
"166 484 OFFCURVE",
"172 484 CURVE",
"181 484 OFFCURVE",
"198 420 OFFCURVE",
"228 420 CURVE SMOOTH",
"256 420 OFFCURVE",
"270 448 OFFCURVE",
"270 475 CURVE SMOOTH",
"270 530 OFFCURVE",
"222 582 OFFCURVE",
"167 582 CURVE SMOOTH"
);
}
);
width = 402;
}
);
unicode = 0047;
},
{
glyphname = H;
lastChange = "2019-03-20 21:44:53 +0000";
layers = (
{
hints = (
{
place = "{30, 124}";
type = Stem;
},
{
place = "{213, 112}";
type = Stem;
},
{
horizontal = 1;
place = "{6, 582}";
type = Stem;
}
);
layerId = UUID0;
paths = (
{
closed = 1;
nodes = (
"56 588 OFFCURVE",
"50 557 OFFCURVE",
"46 534 CURVE SMOOTH",
"36 474 OFFCURVE",
"30 411 OFFCURVE",
"30 349 CURVE SMOOTH",
"30 292 OFFCURVE",
"33 251 OFFCURVE",
"38 210 CURVE SMOOTH",
"43 170 OFFCURVE",
"57 135 OFFCURVE",
"66 96 CURVE SMOOTH",
"73 74 OFFCURVE",
"79 31 OFFCURVE",
"111 31 CURVE SMOOTH",
"137 31 OFFCURVE",
"140 60 OFFCURVE",
"140 81 CURVE SMOOTH",
"140 135 OFFCURVE",
"150 182 OFFCURVE",
"153 230 CURVE",
"174 242 OFFCURVE",
"195 250 OFFCURVE",
"218 255 CURVE",
"230 190 OFFCURVE",
"243 125 OFFCURVE",
"254 60 CURVE SMOOTH",
"258 40 OFFCURVE",
"260 6 OFFCURVE",
"289 6 CURVE SMOOTH",
"307 6 OFFCURVE",
"315 20 OFFCURVE",
"317 41 CURVE SMOOTH",
"320 72 OFFCURVE",
"318 104 OFFCURVE",
"320 135 CURVE SMOOTH",
"323 178 OFFCURVE",
"325 221 OFFCURVE",
"325 265 CURVE SMOOTH",
"325 342 OFFCURVE",
"319 420 OFFCURVE",
"303 494 CURVE SMOOTH",
"296 517 OFFCURVE",
"287 563 OFFCURVE",
"253 563 CURVE SMOOTH",
"215 563 OFFCURVE",
"211 515 OFFCURVE",
"211 471 CURVE SMOOTH",
"211 428 OFFCURVE",
"211 385 OFFCURVE",
"213 339 CURVE SMOOTH",
"213 328 LINE SMOOTH",
"213 321 OFFCURVE",
"213 314 OFFCURVE",
"210 307 CURVE",
"197 297 OFFCURVE",
"170 291 OFFCURVE",
"154 289 CURVE",
"148 373 OFFCURVE",
"147 460 OFFCURVE",
"128 542 CURVE SMOOTH",
"123 565 OFFCURVE",
"111 588 OFFCURVE",
"85 588 CURVE SMOOTH"
);
}
);
width = 345;
}
);
unicode = 0048;
},
{
glyphname = I;
lastChange = "2019-03-20 21:42:08 +0000";
layers = (
{
hints = (
{
place = "{30, 126}";
type = Stem;
},
{
horizontal = 1;
place = "{45, 550}";
type = Stem;
}
);
layerId = UUID0;
paths = (
{
closed = 1;
nodes = (
"31 595 OFFCURVE",
"30 513 OFFCURVE",
"30 457 CURVE SMOOTH",
"30 379 OFFCURVE",
"34 380 OFFCURVE",
"44 303 CURVE SMOOTH",
"55 214 OFFCURVE",
"60 45 OFFCURVE",
"123 45 CURVE SMOOTH",
"150 45 OFFCURVE",
"160 67 OFFCURVE",
"160 97 CURVE SMOOTH",
"160 139 OFFCURVE",
"156 180 OFFCURVE",
"156 222 CURVE SMOOTH",
"156 277 OFFCURVE",
"157 295 OFFCURVE",
"157 328 CURVE SMOOTH",
"157 344 OFFCURVE",
"157 364 OFFCURVE",
"156 394 CURVE SMOOTH",
"152 465 OFFCURVE",
"156 592 OFFCURVE",
"86 595 CURVE"
);
}
);
width = 190;
}
);
unicode = 0049;
},
{
glyphname = J;
lastChange = "2019-03-20 21:45:03 +0000";
layers = (
{
hints = (
{
place = "{10, 50}";
type = Stem;
},
{
place = "{213, 100}";
type = Stem;
},
{
horizontal = 1;
place = "{23, 94}";
type = Stem;
}
);
layerId = UUID0;
paths = (
{
closed = 1;
nodes = (
"243 554 OFFCURVE",
"244 641 OFFCURVE",
"199 641 CURVE SMOOTH",
"171 641 OFFCURVE",
"164 611 OFFCURVE",
"164 585 CURVE SMOOTH",
"164 577 OFFCURVE",
"165 570 OFFCURVE",
"166 564 CURVE SMOOTH",
"181 441 OFFCURVE",
"213 321 OFFCURVE",
"213 198 CURVE SMOOTH",
"213 159 OFFCURVE",
"210 117 OFFCURVE",
"183 117 CURVE SMOOTH",
"144 117 OFFCURVE",
"60 162 OFFCURVE",
"60 205 CURVE SMOOTH",
"60 218 OFFCURVE",
"81 228 OFFCURVE",
"81 242 CURVE SMOOTH",
"81 253 OFFCURVE",
"67 256 OFFCURVE",
"56 256 CURVE SMOOTH",
"30 256 OFFCURVE",
"10 223 OFFCURVE",
"10 199 CURVE SMOOTH",
"10 134 OFFCURVE",
"111 23 OFFCURVE",
"198 23 CURVE SMOOTH",
"287 23 OFFCURVE",
"313 116 OFFCURVE",
"313 189 CURVE SMOOTH",
"313 297 OFFCURVE",
"281 415 OFFCURVE",
"251 524 CURVE SMOOTH"
);
}
);
width = 333;
}
);
unicode = 004A;
},
{
glyphname = K;
lastChange = "2019-03-20 21:45:17 +0000";
layers = (
{
hints = (
{
place = "{42, 80}";
type = Stem;
},
{
horizontal = 1;
place = "{659, -20}";
target = down;
type = TopGhost;
}
);
layerId = UUID0;
paths = (
{
closed = 1;
nodes = (
"99 654 OFFCURVE",
"88 659 OFFCURVE",
"77 659 CURVE SMOOTH",
"46 659 OFFCURVE",
"40 612 OFFCURVE",
"40 557 CURVE SMOOTH",
"40 522 OFFCURVE",
"40 484 OFFCURVE",
"42 453 CURVE SMOOTH",
"44 415 OFFCURVE",
"35 72 OFFCURVE",
"88 72 CURVE SMOOTH",
"112 72 OFFCURVE",
"114 99 OFFCURVE",
"114 121 CURVE SMOOTH",
"114 130 LINE SMOOTH",
"114 199 OFFCURVE",
"120 267 OFFCURVE",
"122 335 CURVE",
"141 310 OFFCURVE",
"154 282 OFFCURVE",
"171 255 CURVE SMOOTH",
"209 196 OFFCURVE",
"255 137 OFFCURVE",
"315 90 CURVE SMOOTH",
"336 73 OFFCURVE",
"365 49 OFFCURVE",
"389 49 CURVE SMOOTH",
"410 49 OFFCURVE",
"432 65 OFFCURVE",
"432 91 CURVE SMOOTH",
"432 106 OFFCURVE",
"424 121 OFFCURVE",
"416 134 CURVE SMOOTH",
"372 203 OFFCURVE",
"320 266 OFFCURVE",
"267 328 CURVE SMOOTH",
"242 358 OFFCURVE",
"216 386 OFFCURVE",
"195 418 CURVE",
"224 446 OFFCURVE",
"256 469 OFFCURVE",
"286 497 CURVE SMOOTH",
"318 527 OFFCURVE",
"374 573 OFFCURVE",
"374 610 CURVE SMOOTH",
"374 628 OFFCURVE",
"365 639 OFFCURVE",
"347 639 CURVE SMOOTH",
"337 639 OFFCURVE",
"327 636 OFFCURVE",
"321 629 CURVE SMOOTH",
"256 573 OFFCURVE",
"196 512 OFFCURVE",
"122 466 CURVE",
"120 519 OFFCURVE",
"122 568 OFFCURVE",
"114 621 CURVE SMOOTH",
"113 629 OFFCURVE",
"111 638 OFFCURVE",
"106 645 CURVE"
);
}
);
width = 442;
}
);
unicode = 004B;
},
{
glyphname = L;
lastChange = "2019-03-20 21:45:24 +0000";
layers = (
{
hints = (
{
place = "{30, 127}";
type = Stem;
},
{
horizontal = 1;
place = "{68, 117}";
type = Stem;
}
);
layerId = UUID0;
paths = (
{
closed = 1;
nodes = (
"30 535 OFFCURVE",
"40 430 OFFCURVE",
"36 383 CURVE SMOOTH",
"31 330 OFFCURVE",
"30 275 OFFCURVE",
"30 222 CURVE SMOOTH",
"30 183 OFFCURVE",
"34 145 OFFCURVE",
"58 113 CURVE SMOOTH",
"89 72 OFFCURVE",
"143 68 OFFCURVE",
"194 68 CURVE SMOOTH",
"247 68 OFFCURVE",
"297 75 OFFCURVE",
"353 79 CURVE SMOOTH",
"376 79 OFFCURVE",
"408 90 OFFCURVE",
"408 120 CURVE SMOOTH",
"408 171 OFFCURVE",
"310 188 OFFCURVE",
"262 188 CURVE SMOOTH",
"236 188 OFFCURVE",
"210 185 OFFCURVE",
"183 185 CURVE SMOOTH",
"172 185 OFFCURVE",
"161 185 OFFCURVE",
"150 187 CURVE",
"150 208 LINE SMOOTH",
"150 271 OFFCURVE",
"157 333 OFFCURVE",
"157 396 CURVE SMOOTH",
"157 448 OFFCURVE",
"157 535 OFFCURVE",
"97 535 CURVE SMOOTH"
);
}
);
width = 418;
}
);
unicode = 004C;
},
{
glyphname = M;
lastChange = "2019-03-20 21:45:33 +0000";
layers = (
{
hints = (
{
place = "{10, 576}";
type = Stem;
},
{
place = "{57, 96}";
type = Stem;
},
{
place = "{431, 155}";
type = Stem;
},
{
horizontal = 1;
place = "{21, 571}";
type = Stem;
}
);
layerId = UUID0;
paths = (
{
closed = 1;
nodes = (
"378 592 OFFCURVE",
"323 360 OFFCURVE",
"282 246 CURVE",
"267 315 OFFCURVE",
"256 384 OFFCURVE",
"241 453 CURVE SMOOTH",
"231 498 OFFCURVE",
"217 559 OFFCURVE",
"167 559 CURVE SMOOTH",
"130 559 OFFCURVE",
"116 522 OFFCURVE",
"106 496 CURVE SMOOTH",
"76 402 OFFCURVE",
"57 302 OFFCURVE",
"30 207 CURVE SMOOTH",
"20 172 OFFCURVE",
"10 132 OFFCURVE",
"10 95 CURVE SMOOTH",
"10 68 OFFCURVE",
"21 44 OFFCURVE",
"48 44 CURVE SMOOTH",
"95 44 OFFCURVE",
"127 199 OFFCURVE",
"145 289 CURVE SMOOTH",
"147 297 OFFCURVE",
"151 304 OFFCURVE",
"154 311 CURVE",
"173 221 OFFCURVE",
"190 56 OFFCURVE",
"278 56 CURVE SMOOTH",
"374 56 OFFCURVE",
"388 245 OFFCURVE",
"431 360 CURVE",
"435 303 OFFCURVE",
"435 244 OFFCURVE",
"444 188 CURVE SMOOTH",
"454 126 OFFCURVE",
"477 21 OFFCURVE",
"535 21 CURVE SMOOTH",
"577 21 OFFCURVE",
"586 102 OFFCURVE",
"586 160 CURVE SMOOTH",
"586 202 OFFCURVE",
"572 253 OFFCURVE",
"567 296 CURVE SMOOTH",
"561 345 OFFCURVE",
"554 394 OFFCURVE",
"549 444 CURVE SMOOTH",
"543 503 OFFCURVE",
"529 592 OFFCURVE",
"465 592 CURVE SMOOTH"
);
}
);
width = 606;
}
);
unicode = 004D;
},
{
glyphname = N;
lastChange = "2019-03-20 21:45:45 +0000";
layers = (
{
hints = (
{
place = "{10, 379}";
type = Stem;
},
{
horizontal = 1;
place = "{26, 592}";
type = Stem;
}
);
layerId = UUID0;
paths = (
{
closed = 1;
nodes = (
"389 568 OFFCURVE",
"388 618 OFFCURVE",
"342 618 CURVE SMOOTH",
"286 618 OFFCURVE",
"286 509 OFFCURVE",
"278 454 CURVE SMOOTH",
"267 379 OFFCURVE",
"258 304 OFFCURVE",
"254 228 CURVE",
"238 258 OFFCURVE",
"228 289 OFFCURVE",
"217 320 CURVE SMOOTH",
"186 404 OFFCURVE",
"152 568 OFFCURVE",
"98 568 CURVE SMOOTH",
"59 568 OFFCURVE",
"58 518 OFFCURVE",
"53 485 CURVE SMOOTH",
"50 361 OFFCURVE",
"10 240 OFFCURVE",
"10 116 CURVE SMOOTH",
"10 96 OFFCURVE",
"15 76 OFFCURVE",
"37 76 CURVE SMOOTH",
"92 76 OFFCURVE",
"98 280 OFFCURVE",
"106 373 CURVE",
"139 259 OFFCURVE",
"210 26 OFFCURVE",
"286 26 CURVE SMOOTH",
"356 26 OFFCURVE",
"348 147 OFFCURVE",
"355 217 CURVE SMOOTH",
"365 325 OFFCURVE",
"389 432 OFFCURVE",
"389 535 CURVE SMOOTH"
);
}
);
width = 409;
}
);
unicode = 004E;
},
{
glyphname = O;
lastChange = "2019-03-20 21:42:08 +0000";
layers = (
{
hints = (
{
place = "{20, 114}";
type = Stem;
},
{
place = "{219, 89}";
type = Stem;
},
{
horizontal = 1;
place = "{93, 429}";
type = Stem;
}
);
layerId = UUID0;
paths = (
{
closed = 1;
nodes = (
"141 515 OFFCURVE",
"118 522 OFFCURVE",
"97 522 CURVE SMOOTH",
"60 522 OFFCURVE",
"65 493 OFFCURVE",
"58 472 CURVE SMOOTH",
"37 414 OFFCURVE",
"20 361 OFFCURVE",
"20 291 CURVE SMOOTH",
"20 208 OFFCURVE",
"43 93 OFFCURVE",
"144 93 CURVE SMOOTH",
"234 93 OFFCURVE",
"308 216 OFFCURVE",
"308 307 CURVE SMOOTH",
"308 402 OFFCURVE",
"238 470 OFFCURVE",
"159 507 CURVE SMOOTH"
);
},
{
closed = 1;
nodes = (
"185 411 OFFCURVE",
"219 365 OFFCURVE",
"219 319 CURVE SMOOTH",
"219 275 OFFCURVE",
"188 211 OFFCURVE",
"147 199 CURVE",
"138 221 OFFCURVE",
"134 241 OFFCURVE",
"134 265 CURVE SMOOTH",
"134 320 OFFCURVE",
"134 379 OFFCURVE",
"146 433 CURVE"
);
}
);
width = 328;
}
);
unicode = 004F;
},
{
glyphname = P;
lastChange = "2019-03-20 21:42:08 +0000";
layers = (
{
hints = (
{
place = "{30, 112}";
type = Stem;
},
{
place = "{252, 122}";
type = Stem;
},
{
horizontal = 1;
place = "{556, 79}";
type = Stem;
}
);
layerId = UUID0;
paths = (
{
closed = 1;
nodes = (
"374 559 OFFCURVE",
"251 635 OFFCURVE",
"147 635 CURVE SMOOTH",
"108 635 OFFCURVE",
"53 601 OFFCURVE",
"40 559 CURVE SMOOTH",
"31 529 OFFCURVE",
"30 488 OFFCURVE",
"30 450 CURVE SMOOTH",
"30 413 LINE SMOOTH",
"31 279 OFFCURVE",
"45 147 OFFCURVE",
"84 17 CURVE SMOOTH",
"89 -2 OFFCURVE",
"95 -24 OFFCURVE",
"121 -24 CURVE SMOOTH",
"144 -24 OFFCURVE",
"146 -3 OFFCURVE",
"146 16 CURVE SMOOTH",
"146 47 OFFCURVE",
"142 76 OFFCURVE",
"142 105 CURVE SMOOTH",
"142 155 OFFCURVE",
"146 205 OFFCURVE",
"146 254 CURVE",
"256 272 OFFCURVE",
"374 329 OFFCURVE",
"374 449 CURVE SMOOTH"
);
},
{
closed = 1;
nodes = (
"155 556 OFFCURVE",
"252 501 OFFCURVE",
"252 448 CURVE SMOOTH",
"252 396 OFFCURVE",
"197 336 OFFCURVE",
"142 322 CURVE",
"139 373 OFFCURVE",
"136 426 OFFCURVE",
"128 476 CURVE SMOOTH",
"123 503 OFFCURVE",
"116 530 OFFCURVE",
"115 556 CURVE"
);
}
);
width = 394;
}
);
unicode = 0050;
},
{
glyphname = Q;
lastChange = "2019-03-20 21:42:08 +0000";
layers = (
{
hints = (
{
place = "{20, 108}";
type = Stem;
},
{
place = "{387, 119}";
type = Stem;
},
{
horizontal = 1;
place = "{3, 128}";
type = Stem;
},
{
horizontal = 1;
place = "{475, 77}";
type = Stem;
}
);
layerId = UUID0;
paths = (
{
closed = 1;
nodes = (
"60 623 OFFCURVE",
"20 421 OFFCURVE",
"20 321 CURVE SMOOTH",
"20 186 OFFCURVE",
"65 3 OFFCURVE",
"218 3 CURVE SMOOTH",
"263 3 OFFCURVE",
"303 23 OFFCURVE",
"341 44 CURVE",
"364 16 OFFCURVE",
"385 -33 OFFCURVE",
"424 -33 CURVE SMOOTH",
"444 -33 OFFCURVE",
"464 -21 OFFCURVE",
"464 -1 CURVE SMOOTH",
"464 29 OFFCURVE",
"424 71 OFFCURVE",
"414 113 CURVE",
"423 134 OFFCURVE",
"439 151 OFFCURVE",
"451 172 CURVE SMOOTH",
"482 227 OFFCURVE",
"506 289 OFFCURVE",
"506 354 CURVE SMOOTH",
"506 420 OFFCURVE",
"478 483 OFFCURVE",
"422 518 CURVE SMOOTH",
"374 548 OFFCURVE",
"310 552 OFFCURVE",
"257 552 CURVE SMOOTH",
"221 552 OFFCURVE",
"186 545 OFFCURVE",
"149 541 CURVE",
"154 560 OFFCURVE",
"163 579 OFFCURVE",
"165 598 CURVE",
"163 617 OFFCURVE",
"148 623 OFFCURVE",
"131 623 CURVE SMOOTH"
);
},
{
closed = 1;
nodes = (
"269 475 OFFCURVE",
"387 467 OFFCURVE",
"387 369 CURVE SMOOTH",
"387 327 OFFCURVE",
"370 285 OFFCURVE",
"348 251 CURVE",
"322 290 OFFCURVE",
"287 364 OFFCURVE",
"236 364 CURVE SMOOTH",
"213 364 OFFCURVE",
"194 345 OFFCURVE",
"194 322 CURVE SMOOTH",
"194 279 OFFCURVE",
"247 209 OFFCURVE",
"272 161 CURVE",
"254 145 OFFCURVE",
"233 131 OFFCURVE",
"209 131 CURVE SMOOTH",
"137 131 OFFCURVE",
"128 297 OFFCURVE",
"128 370 CURVE SMOOTH",
"128 404 OFFCURVE",
"130 437 OFFCURVE",
"136 469 CURVE",
"158 473 OFFCURVE",
"180 475 OFFCURVE",
"202 475 CURVE SMOOTH"
);
}
);
width = 526;
}
);
unicode = 0051;
},
{
glyphname = R;
lastChange = "2019-03-20 21:42:08 +0000";
layers = (
{
hints = (
{
place = "{30, 103}";
type = Stem;
},
{
horizontal = 1;
place = "{-1, 21}";
target = up;
type = BottomGhost;
}
);
layerId = UUID0;
paths = (
{
closed = 1;
nodes = (
"307 547 OFFCURVE",
"300 548 OFFCURVE",
"293 548 CURVE SMOOTH",
"220 548 OFFCURVE",
"150 416 OFFCURVE",
"118 346 CURVE",
"105 390 OFFCURVE",
"100 506 OFFCURVE",
"57 506 CURVE SMOOTH",
"33 506 OFFCURVE",
"30 467 OFFCURVE",
"30 431 CURVE SMOOTH",
"30 319 OFFCURVE",
"33 206 OFFCURVE",
"46 87 CURVE SMOOTH",
"48 63 OFFCURVE",
"55 24 OFFCURVE",
"91 24 CURVE SMOOTH",
"128 24 OFFCURVE",
"133 63 OFFCURVE",
"133 98 CURVE SMOOTH",
"133 126 OFFCURVE",
"130 154 OFFCURVE",
"130 182 CURVE SMOOTH",
"130 192 OFFCURVE",
"130 201 OFFCURVE",
"131 211 CURVE",
"175 191 OFFCURVE",
"216 142 OFFCURVE",
"251 104 CURVE SMOOTH",
"277 75 OFFCURVE",
"307 50 OFFCURVE",
"336 26 CURVE SMOOTH",
"350 15 OFFCURVE",
"364 -1 OFFCURVE",
"383 -1 CURVE SMOOTH",
"401 -1 OFFCURVE",
"416 8 OFFCURVE",
"416 31 CURVE SMOOTH",
"416 56 OFFCURVE",
"368 121 OFFCURVE",
"339 155 CURVE SMOOTH",
"297 203 OFFCURVE",
"243 238 OFFCURVE",
"187 268 CURVE",
"237 322 OFFCURVE",
"339 415 OFFCURVE",
"339 498 CURVE SMOOTH",
"339 517 OFFCURVE",
"332 535 OFFCURVE",
"314 544 CURVE"
);
},
{
closed = 1;
nodes = (
"246 415 OFFCURVE",
"202 357 OFFCURVE",
"151 311 CURVE",
"176 376 OFFCURVE",
"218 436 OFFCURVE",
"274 478 CURVE"
);
}
);
width = 426;
}
);
unicode = 0052;
},
{
glyphname = S;
lastChange = "2019-03-20 21:42:08 +0000";
layers = (
{
hints = (
{
place = "{214, 100}";
type = Stem;
},
{
horizontal = 1;
place = "{20, 92}";
type = Stem;
},
{
horizontal = 1;
place = "{441, 89}";
type = Stem;
}
);
layerId = UUID0;
paths = (
{
closed = 1;
nodes = (
"184 527 OFFCURVE",
"164 530 OFFCURVE",
"144 530 CURVE SMOOTH",
"90 530 OFFCURVE",
"28 502 OFFCURVE",
"28 443 CURVE SMOOTH",
"28 421 OFFCURVE",
"38 400 OFFCURVE",
"51 382 CURVE SMOOTH",
"107 304 OFFCURVE",
"214 215 OFFCURVE",
"214 140 CURVE SMOOTH",
"214 121 OFFCURVE",
"202 112 OFFCURVE",
"186 112 CURVE SMOOTH",
"159 112 OFFCURVE",
"127 116 OFFCURVE",
"100 125 CURVE SMOOTH",
"80 132 OFFCURVE",
"54 153 OFFCURVE",
"36 153 CURVE SMOOTH",
"24 153 OFFCURVE",
"20 138 OFFCURVE",
"20 129 CURVE SMOOTH",
"20 75 OFFCURVE",
"138 20 OFFCURVE",
"204 20 CURVE SMOOTH",
"273 20 OFFCURVE",
"314 72 OFFCURVE",
"314 132 CURVE SMOOTH",
"314 260 OFFCURVE",
"185 339 OFFCURVE",
"119 438 CURVE",
"130 440 OFFCURVE",
"141 441 OFFCURVE",
"152 441 CURVE SMOOTH",
"188 441 OFFCURVE",
"214 415 OFFCURVE",
"245 415 CURVE SMOOTH",
"263 415 OFFCURVE",
"268 432 OFFCURVE",
"268 446 CURVE SMOOTH",
"268 485 OFFCURVE",
"235 510 OFFCURVE",
"202 521 CURVE SMOOTH"
);
}
);
width = 334;
}
);
unicode = 0053;
},
{
glyphname = T;
lastChange = "2019-03-20 21:42:08 +0000";
layers = (
{
hints = (
{
place = "{10, 556}";
type = Stem;
},
{
horizontal = 1;
place = "{36, 566}";
type = Stem;
}
);
layerId = UUID0;
paths = (
{
closed = 1;
nodes = (
"566 596 OFFCURVE",
"533 602 OFFCURVE",
"503 602 CURVE SMOOTH",
"475 602 OFFCURVE",
"446 598 OFFCURVE",
"420 594 CURVE SMOOTH",
"302 575 OFFCURVE",
"187 560 OFFCURVE",
"71 527 CURVE SMOOTH",
"46 520 OFFCURVE",
"10 503 OFFCURVE",
"10 472 CURVE SMOOTH",
"10 430 OFFCURVE",
"60 426 OFFCURVE",
"92 426 CURVE SMOOTH",
"134 426 OFFCURVE",
"173 436 OFFCURVE",
"216 443 CURVE",
"218 396 OFFCURVE",
"218 349 OFFCURVE",
"227 303 CURVE SMOOTH",
"244 213 OFFCURVE",
"256 36 OFFCURVE",
"324 36 CURVE SMOOTH",
"340 36 OFFCURVE",
"356 45 OFFCURVE",
"356 65 CURVE SMOOTH",
"356 83 OFFCURVE",
"352 102 OFFCURVE",
"350 119 CURVE SMOOTH",
"338 214 OFFCURVE",
"350 306 OFFCURVE",
"334 401 CURVE SMOOTH",
"330 425 OFFCURVE",
"323 449 OFFCURVE",
"317 474 CURVE",
"390 502 OFFCURVE",
"468 517 OFFCURVE",
"542 542 CURVE SMOOTH",
"553 546 OFFCURVE",
"562 552 OFFCURVE",
"566 564 CURVE"
);
}
);
width = 576;
}
);
unicode = 0054;
},
{
glyphname = U;
lastChange = "2019-03-20 21:42:08 +0000";
layers = (
{
hints = (
{
place = "{230, 100}";
type = Stem;
},
{
horizontal = 1;
place = "{46, 609}";
type = Stem;
}
);
layerId = UUID0;
paths = (
{
closed = 1;
nodes = (
"301 613 OFFCURVE",
"291 655 OFFCURVE",
"260 655 CURVE SMOOTH",
"234 655 OFFCURVE",
"224 630 OFFCURVE",
"224 601 CURVE SMOOTH",
"224 562 OFFCURVE",
"230 526 OFFCURVE",
"230 488 CURVE SMOOTH",
"230 391 OFFCURVE",
"221 287 OFFCURVE",
"193 190 CURVE",
"153 283 OFFCURVE",
"136 394 OFFCURVE",
"116 493 CURVE SMOOTH",
"110 520 OFFCURVE",
"98 562 OFFCURVE",
"61 562 CURVE SMOOTH",
"30 562 OFFCURVE",
"20 534 OFFCURVE",
"20 502 CURVE SMOOTH",
"20 416 OFFCURVE",
"39 326 OFFCURVE",
"59 243 CURVE SMOOTH",
"78 165 OFFCURVE",
"115 46 OFFCURVE",
"198 46 CURVE SMOOTH",
"305 46 OFFCURVE",
"323 243 OFFCURVE",
"330 363 CURVE",
"329 442 OFFCURVE",
"317 514 OFFCURVE",
"304 591 CURVE SMOOTH"
);
}
);
width = 350;
}
);
unicode = 0055;
},
{
glyphname = V;
lastChange = "2019-03-20 21:46:34 +0000";
layers = (
{
hints = (
{
place = "{20, 302}";
type = Stem;
},
{
horizontal = 1;
place = "{38, 583}";
type = Stem;
}
);
layerId = UUID0;
paths = (
{
closed = 1;
nodes = (
"255 621 OFFCURVE",
"240 601 OFFCURVE",
"234 577 CURVE SMOOTH",
"208 479 OFFCURVE",
"198 381 OFFCURVE",
"182 283 CURVE",
"148 375 OFFCURVE",
"116 552 OFFCURVE",
"53 552 CURVE SMOOTH",
"22 552 OFFCURVE",
"21 525 OFFCURVE",
"20 505 CURVE SMOOTH",
"21 470 OFFCURVE",
"28 435 OFFCURVE",
"35 400 CURVE SMOOTH",
"52 306 OFFCURVE",
"76 212 OFFCURVE",
"110 123 CURVE SMOOTH",
"124 85 OFFCURVE",
"143 38 OFFCURVE",
"193 38 CURVE SMOOTH",
"266 38 OFFCURVE",
"282 150 OFFCURVE",
"292 211 CURVE SMOOTH",
"306 299 OFFCURVE",
"320 386 OFFCURVE",
"320 475 CURVE SMOOTH",
"320 503 OFFCURVE",
"322 531 OFFCURVE",
"322 559 CURVE SMOOTH",
"322 591 OFFCURVE",
"315 621 OFFCURVE",
"279 621 CURVE SMOOTH"
);
}
);
width = 342;
}
);
unicode = 0056;
},
{
glyphname = W;
lastChange = "2019-03-20 21:42:08 +0000";
layers = (
{
hints = (
{
place = "{20, 528}";
type = Stem;
},
{
horizontal = 1;
place = "{3, 591}";
type = Stem;
}
);
layerId = UUID0;
paths = (
{
closed = 1;
nodes = (
"533 589 OFFCURVE",
"521 594 OFFCURVE",
"509 594 CURVE SMOOTH",
"477 594 OFFCURVE",
"471 558 OFFCURVE",
"467 535 CURVE SMOOTH",
"454 465 OFFCURVE",
"438 395 OFFCURVE",
"429 325 CURVE SMOOTH",
"425 294 OFFCURVE",
"425 265 OFFCURVE",
"414 235 CURVE",
"377 326 OFFCURVE",
"342 516 OFFCURVE",
"271 516 CURVE SMOOTH",
"237 516 OFFCURVE",
"224 483 OFFCURVE",
"215 456 CURVE SMOOTH",
"193 391 OFFCURVE",
"175 327 OFFCURVE",
"158 262 CURVE SMOOTH",
"150 234 OFFCURVE",
"146 207 OFFCURVE",
"134 181 CURVE",
"119 270 OFFCURVE",
"115 360 OFFCURVE",
"100 451 CURVE SMOOTH",
"96 473 OFFCURVE",
"85 510 OFFCURVE",
"57 510 CURVE SMOOTH",
"26 510 OFFCURVE",
"20 481 OFFCURVE",
"20 452 CURVE SMOOTH",
"20 442 OFFCURVE",
"20 431 OFFCURVE",
"21 421 CURVE SMOOTH",
"29 317 OFFCURVE",
"44 212 OFFCURVE",
"63 109 CURVE SMOOTH",
"69 77 OFFCURVE",
"91 21 OFFCURVE",
"130 21 CURVE SMOOTH",
"171 21 OFFCURVE",
"187 72 OFFCURVE",
"197 109 CURVE SMOOTH",
"220 200 OFFCURVE",
"238 294 OFFCURVE",
"264 385 CURVE",
"274 358 OFFCURVE",
"280 330 OFFCURVE",
"287 303 CURVE SMOOTH",
"306 227 OFFCURVE",
"329 152 OFFCURVE",
"358 79 CURVE SMOOTH",
"371 45 OFFCURVE",
"392 3 OFFCURVE",
"436 3 CURVE SMOOTH",
"497 3 OFFCURVE",
"513 76 OFFCURVE",
"522 124 CURVE SMOOTH",
"541 224 OFFCURVE",
"546 330 OFFCURVE",
"546 429 CURVE SMOOTH",
"546 452 OFFCURVE",
"548 479 OFFCURVE",
"548 504 CURVE SMOOTH",
"548 531 OFFCURVE",
"546 557 OFFCURVE",
"538 577 CURVE SMOOTH"
);
}
);
width = 578;
}
);
unicode = 0057;
},
{
glyphname = X;
lastChange = "2019-03-20 21:46:48 +0000";
layers = (
{
hints = (
{
place = "{20, 294}";
type = Stem;
},
{
horizontal = 1;
place = "{60, 612}";
type = Stem;
}
);
layerId = UUID0;
paths = (
{
closed = 1;
nodes = (
"183 672 OFFCURVE",
"166 553 OFFCURVE",
"155 513 CURVE",
"123 550 OFFCURVE",
"87 620 OFFCURVE",
"52 620 CURVE SMOOTH",
"34 620 OFFCURVE",
"20 609 OFFCURVE",
"20 589 CURVE SMOOTH",
"20 546 OFFCURVE",
"66 471 OFFCURVE",
"100 421 CURVE",
"108 408 OFFCURVE",
"122 391 OFFCURVE",
"124 376 CURVE SMOOTH",
"124 350 OFFCURVE",
"116 325 OFFCURVE",
"112 300 CURVE SMOOTH",
"102 238 OFFCURVE",
"83 171 OFFCURVE",
"83 107 CURVE SMOOTH",
"83 89 OFFCURVE",
"87 60 OFFCURVE",
"114 60 CURVE SMOOTH",
"158 60 OFFCURVE",
"178 213 OFFCURVE",
"199 285 CURVE",
"226 255 OFFCURVE",
"256 190 OFFCURVE",
"289 190 CURVE SMOOTH",
"307 190 OFFCURVE",
"314 203 OFFCURVE",
"314 217 CURVE SMOOTH",
"314 234 OFFCURVE",
"299 259 OFFCURVE",
"291 276 CURVE SMOOTH",
"277 305 OFFCURVE",
"262 335 OFFCURVE",
"246 363 CURVE SMOOTH",
"240 374 OFFCURVE",
"231 387 OFFCURVE",
"230 400 CURVE SMOOTH",
"230 412 OFFCURVE",
"234 425 OFFCURVE",
"237 437 CURVE SMOOTH",
"249 482 OFFCURVE",
"258 528 OFFCURVE",
"269 573 CURVE SMOOTH",
"274 592 OFFCURVE",
"279 613 OFFCURVE",
"279 633 CURVE SMOOTH",
"279 654 OFFCURVE",
"261 672 OFFCURVE",
"240 672 CURVE SMOOTH"
);
}
);
width = 334;
}
);
unicode = 0058;
},
{
glyphname = Y;
lastChange = "2019-03-20 21:47:03 +0000";
layers = (
{
hints = (
{
place = "{250, 106}";
type = Stem;
},
{
place = "{259, 101}";
type = Stem;
},
{
horizontal = 1;
place = "{50, 595}";
type = Stem;
}
);
layerId = UUID0;
paths = (
{
closed = 1;
nodes = (
"250 582 OFFCURVE",
"250 535 CURVE SMOOTH",
"250 461 LINE",
"225 484 OFFCURVE",
"205 514 OFFCURVE",
"177 534 CURVE SMOOTH",
"144 557 OFFCURVE",
"100 592 OFFCURVE",
"59 592 CURVE SMOOTH",
"36 592 OFFCURVE",
"10 579 OFFCURVE",
"10 552 CURVE SMOOTH",
"10 533 OFFCURVE",
"29 520 OFFCURVE",
"43 508 CURVE SMOOTH",
"82 473 OFFCURVE",
"113 433 OFFCURVE",
"156 405 CURVE SMOOTH",
"186 385 OFFCURVE",
"217 366 OFFCURVE",
"246 345 CURVE SMOOTH",
"258 336 OFFCURVE",
"259 326 OFFCURVE",
"259 314 CURVE SMOOTH",
"261 247 OFFCURVE",
"271 181 OFFCURVE",
"276 115 CURVE SMOOTH",
"280 90 OFFCURVE",
"281 50 OFFCURVE",
"316 50 CURVE SMOOTH",
"350 50 OFFCURVE",
"352 84 OFFCURVE",
"353 109 CURVE SMOOTH",
"355 189 OFFCURVE",
"360 270 OFFCURVE",
"360 351 CURVE SMOOTH",
"360 376 OFFCURVE",
"357 401 OFFCURVE",
"356 427 CURVE SMOOTH",
"353 504 OFFCURVE",
"358 645 OFFCURVE",
"296 645 CURVE SMOOTH",
"255 645 OFFCURVE"
);
}
);
width = 390;
}
);
unicode = 0059;
},
{
glyphname = Z;
lastChange = "2019-03-20 21:47:27 +0000";
layers = (
{
hints = (
{
place = "{125, 99}";
type = Stem;
},
{
place = "{199, 92}";
type = Stem;
},
{
horizontal = 1;
place = "{62, 113}";
type = Stem;
},
{
horizontal = 1;
place = "{62, 474}";
type = Stem;
}
);
layerId = UUID0;
paths = (
{
closed = 1;
nodes = (
"180 534 OFFCURVE",
"148 521 OFFCURVE",
"118 508 CURVE SMOOTH",
"88 495 OFFCURVE",
"10 471 OFFCURVE",
"10 428 CURVE SMOOTH",
"10 411 OFFCURVE",
"24 397 OFFCURVE",
"42 397 CURVE SMOOTH",
"48 397 OFFCURVE",
"54 398 OFFCURVE",
"59 399 CURVE SMOOTH",
"106 412 OFFCURVE",
"150 435 OFFCURVE",
"199 444 CURVE",
"199 419 OFFCURVE",
"196 395 OFFCURVE",
"189 371 CURVE SMOOTH",
"170 309 OFFCURVE",
"144 244 OFFCURVE",
"130 178 CURVE SMOOTH",
"127 166 OFFCURVE",
"125 154 OFFCURVE",
"125 142 CURVE SMOOTH",
"125 86 OFFCURVE",
"177 62 OFFCURVE",
"230 62 CURVE SMOOTH",
"271 62 OFFCURVE",
"312 70 OFFCURVE",
"349 85 CURVE SMOOTH",
"368 93 OFFCURVE",
"391 107 OFFCURVE",
"391 135 CURVE SMOOTH",
"391 161 OFFCURVE",
"371 175 OFFCURVE",
"343 175 CURVE SMOOTH",
"311 175 OFFCURVE",
"280 171 OFFCURVE",
"224 169 CURVE",
"230 221 OFFCURVE",
"251 270 OFFCURVE",
"265 321 CURVE SMOOTH",
"275 358 OFFCURVE",
"291 404 OFFCURVE",
"291 445 CURVE SMOOTH",
"291 491 OFFCURVE",
"264 532 OFFCURVE",
"212 536 CURVE"
);
}
);
width = 401;
}
);
unicode = 005A;
},
{
glyphname = A.ss01;
lastChange = "2019-03-20 23:08:32 +0000";
layers = (
{
hints = (
{
place = "{10, 351}";
type = Stem;
},
{
horizontal = 1;
place = "{242, 59}";
type = Stem;
}
);
layerId = UUID0;
paths = (
{
closed = 1;
nodes = (
"270 544 OFFCURVE",
"250 598 OFFCURVE",
"211 598 CURVE SMOOTH",
"170 598 OFFCURVE",
"146 538 OFFCURVE",
"130 499 CURVE SMOOTH",
"87 397 OFFCURVE",
"55 287 OFFCURVE",
"28 180 CURVE SMOOTH",
"21 153 OFFCURVE",
"10 123 OFFCURVE",
"10 93 CURVE SMOOTH",
"10 76 OFFCURVE",
"23 56 OFFCURVE",
"44 56 CURVE SMOOTH",
"74 56 OFFCURVE",
"88 103 OFFCURVE",
"96 129 CURVE",
"96 131 OFFCURVE",
"103 159 OFFCURVE",
"130 241 CURVE",
"143 241 OFFCURVE",
"155 242 OFFCURVE",
"168 242 CURVE SMOOTH",
"196 242 OFFCURVE",
"225 240 OFFCURVE",
"253 237 CURVE",
"268 193 OFFCURVE",
"287 152 OFFCURVE",
"298 106 CURVE",
"302 93 OFFCURVE",
"302 38 OFFCURVE",
"329 38 CURVE SMOOTH",
"352 38 OFFCURVE",
"361 63 OFFCURVE",
"361 85 CURVE SMOOTH",
"361 95 OFFCURVE",
"360 104 OFFCURVE",
"359 113 CURVE SMOOTH",
"350 175 OFFCURVE",
"342 237 OFFCURVE",
"329 298 CURVE SMOOTH",
"314 370 OFFCURVE",
"301 443 OFFCURVE",
"279 513 CURVE SMOOTH"
);
},
{
closed = 1;
nodes = (
"212 417 OFFCURVE",
"223 355 OFFCURVE",
"236 293 CURVE",
"207 294 OFFCURVE",
"177 297 OFFCURVE",
"147 301 CURVE",
"161 362 OFFCURVE",
"176 421 OFFCURVE",
"199 479 CURVE"
);
}
);
width = 371;
}
);
},
{
glyphname = B.ss01;
lastChange = "2019-03-20 23:10:14 +0000";
layers = (
{
hints = (
{
place = "{39, 80}";
type = Stem;
},
{
place = "{259, 81}";
type = Stem;
},
{
place = "{275, 60}";
type = Stem;
},
{
horizontal = 1;
place = "{286, 62}";
type = Stem;
},
{
horizontal = 1;
place = "{556, 64}";
type = Stem;
}
);
layerId = UUID0;
paths = (
{
closed = 1;
nodes = (
"209 619 OFFCURVE",
"166 598 OFFCURVE",
"119 580 CURVE SMOOTH",
"114 578 OFFCURVE",
"108 577 OFFCURVE",
"103 577 CURVE SMOOTH",
"94 577 OFFCURVE",
"86 579 OFFCURVE",
"77 579 CURVE SMOOTH",
"40 579 OFFCURVE",
"30 529 OFFCURVE",
"30 498 CURVE SMOOTH",
"30 475 OFFCURVE",
"39 453 OFFCURVE",
"39 424 CURVE SMOOTH",
"39 404 OFFCURVE",
"37 384 OFFCURVE",
"37 362 CURVE SMOOTH",
"39 285 OFFCURVE",
"45 221 OFFCURVE",
"50 148 CURVE",
"50 130 OFFCURVE",
"46 113 OFFCURVE",
"46 95 CURVE SMOOTH",
"46 61 OFFCURVE",
"76 45 OFFCURVE",
"110 45 CURVE SMOOTH",
"210 45 OFFCURVE",
"340 123 OFFCURVE",
"340 238 CURVE SMOOTH",
"340 306 OFFCURVE",
"286 340 OFFCURVE",
"213 348 CURVE",
"264 396 OFFCURVE",
"335 467 OFFCURVE",
"335 546 CURVE SMOOTH",
"335 588 OFFCURVE",
"305 617 OFFCURVE",
"260 620 CURVE"
);
},
{
closed = 1;
nodes = (
"267 556 OFFCURVE",
"275 553 OFFCURVE",
"275 541 CURVE SMOOTH",
"275 480 OFFCURVE",
"174 382 OFFCURVE",
"125 338 CURVE",
"123 396 OFFCURVE",
"119 454 OFFCURVE",
"113 512 CURVE",
"156 530 OFFCURVE",
"227 556 OFFCURVE",
"258 556 CURVE SMOOTH"
);
},
{
closed = 1;
nodes = (
"132 286 OFFCURVE",
"139 286 OFFCURVE",
"147 286 CURVE SMOOTH",
"174 286 OFFCURVE",
"259 286 OFFCURVE",
"259 239 CURVE SMOOTH",
"259 190 OFFCURVE",
"197 150 OFFCURVE",
"152 127 CURVE SMOOTH",
"132 117 OFFCURVE",
"111 114 OFFCURVE",
"90 106 CURVE",
"99 119 OFFCURVE",
"109 131 OFFCURVE",
"112 146 CURVE SMOOTH",
"122 191 OFFCURVE",
"114 240 OFFCURVE",
"124 285 CURVE"
);
}
);
width = 360;
}
);
},
{
glyphname = C.ss01;
lastChange = "2019-03-20 23:10:19 +0000";
layers = (
{
hints = (
{
place = "{20, 73}";
type = Stem;
},
{
horizontal = 1;
place = "{86, 81}";
type = Stem;
},
{
horizontal = 1;
place = "{452, 112}";
type = Stem;
}
);
layerId = UUID0;
paths = (
{
closed = 1;
nodes = (
"51 564 OFFCURVE",
"20 355 OFFCURVE",
"20 274 CURVE SMOOTH",
"20 193 OFFCURVE",
"51 88 OFFCURVE",
"138 86 CURVE",
"215 89 OFFCURVE",
"287 186 OFFCURVE",
"287 268 CURVE SMOOTH",
"287 276 OFFCURVE",
"290 288 OFFCURVE",
"290 296 CURVE SMOOTH",
"290 299 OFFCURVE",
"289 305 OFFCURVE",
"282 305 CURVE SMOOTH",
"271 305 OFFCURVE",
"259 295 OFFCURVE",
"252 275 CURVE",
"232 234 OFFCURVE",
"190 167 OFFCURVE",
"142 167 CURVE SMOOTH",
"100 167 OFFCURVE",
"93 248 OFFCURVE",
"93 283 CURVE SMOOTH",
"93 353 OFFCURVE",
"111 419 OFFCURVE",
"146 479 CURVE",
"160 469 OFFCURVE",
"174 452 OFFCURVE",
"193 452 CURVE SMOOTH",
"212 452 OFFCURVE",
"225 470 OFFCURVE",
"225 491 CURVE SMOOTH",
"225 528 OFFCURVE",
"192 564 OFFCURVE",
"154 564 CURVE SMOOTH"
);
}
);
width = 305;
}
);
},
{
glyphname = D.ss01;
lastChange = "2019-03-20 23:10:43 +0000";
layers = (
{
hints = (
{
place = "{30, 82}";
type = Stem;
},
{
place = "{283, 90}";
type = Stem;
},
{
horizontal = 1;
place = "{76, 62}";
type = Stem;
}
);
layerId = UUID0;
paths = (
{
closed = 1;
nodes = (
"33 576 OFFCURVE",
"30 533 OFFCURVE",
"30 497 CURVE SMOOTH",
"30 356 OFFCURVE",
"41 246 OFFCURVE",
"59 134 CURVE",
"65 107 OFFCURVE",
"66 72 OFFCURVE",
"106 72 CURVE SMOOTH",
"127 72 OFFCURVE",
"149 76 OFFCURVE",
"170 76 CURVE SMOOTH",
"290 76 OFFCURVE",
"373 172 OFFCURVE",
"373 295 CURVE SMOOTH",
"373 410 OFFCURVE",
"292 495 OFFCURVE",
"190 534 CURVE SMOOTH",
"165 543 OFFCURVE",
"137 547 OFFCURVE",
"112 557 CURVE SMOOTH",
"96 563 OFFCURVE",
"79 576 OFFCURVE",
"62 578 CURVE"
);
},
{
closed = 1;
nodes = (
"196 456 OFFCURVE",
"283 387 OFFCURVE",
"283 292 CURVE SMOOTH",
"283 205 OFFCURVE",
"225 138 OFFCURVE",
"123 138 CURVE",
"119 202 OFFCURVE",
"119 264 OFFCURVE",
"118 327 CURVE SMOOTH",
"117 372 OFFCURVE",
"112 420 OFFCURVE",
"112 466 CURVE SMOOTH",
"112 486 LINE"
);
}
);
width = 393;
}
);
},
{
glyphname = E.ss01;
lastChange = "2019-03-20 23:10:39 +0000";
layers = (
{
hints = (
{
place = "{30, 102}";
type = Stem;
},
{
horizontal = 1;
place = "{62, 117}";
type = Stem;
},
{
horizontal = 1;
place = "{326, 75}";
type = Stem;
},
{
horizontal = 1;
place = "{510, 38}";
type = Stem;
}
);
layerId = UUID0;
paths = (
{
closed = 1;
nodes = (
"80 550 OFFCURVE",
"75 551 OFFCURVE",
"70 551 CURVE SMOOTH",
"34 551 OFFCURVE",
"39 484 OFFCURVE",
"37 454 CURVE SMOOTH",
"33 404 OFFCURVE",
"30 352 OFFCURVE",
"30 301 CURVE SMOOTH",
"30 216 OFFCURVE",
"40 62 OFFCURVE",
"172 62 CURVE SMOOTH",
"226 62 OFFCURVE",
"334 116 OFFCURVE",
"334 169 CURVE SMOOTH",
"334 186 OFFCURVE",
"325 206 OFFCURVE",
"305 206 CURVE SMOOTH",
"279 206 OFFCURVE",
"245 179 OFFCURVE",
"201 179 CURVE SMOOTH",
"131 179 OFFCURVE",
"137 259 OFFCURVE",
"132 306 CURVE",
"177 316 OFFCURVE",
"222 323 OFFCURVE",
"269 326 CURVE SMOOTH",
"291 327 OFFCURVE",
"331 331 OFFCURVE",
"331 364 CURVE SMOOTH",
"331 392 OFFCURVE",
"301 401 OFFCURVE",
"274 401 CURVE SMOOTH",
"227 401 OFFCURVE",
"177 390 OFFCURVE",
"128 387 CURVE",
"124 424 OFFCURVE",
"121 461 OFFCURVE",
"116 498 CURVE",
"167 503 OFFCURVE",
"217 510 OFFCURVE",
"269 510 CURVE SMOOTH",
"296 510 OFFCURVE",
"343 513 OFFCURVE",
"343 528 CURVE SMOOTH",
"343 544 OFFCURVE",
"300 548 OFFCURVE",
"273 548 CURVE SMOOTH",
"225 548 OFFCURVE",
"177 546 OFFCURVE",
"133 546 CURVE SMOOTH",
"117 546 OFFCURVE",
"102 546 OFFCURVE",
"86 549 CURVE SMOOTH"
);
}
);
width = 363;
}
);
},
{
glyphname = F.ss01;
lastChange = "2019-03-20 23:10:36 +0000";
layers = (
{
hints = (
{
place = "{39, 81}";
type = Stem;
},
{
horizontal = 1;
place = "{298, 59}";
type = Stem;
},
{
horizontal = 1;
place = "{507, 63}";
type = Stem;
}
);
layerId = UUID0;
paths = (
{
closed = 1;
nodes = (
"250 570 OFFCURVE",
"167 562 OFFCURVE",
"82 554 CURVE SMOOTH",
"64 552 OFFCURVE",
"30 547 OFFCURVE",
"30 525 CURVE SMOOTH",
"30 504 OFFCURVE",
"39 483 OFFCURVE",
"39 442 CURVE SMOOTH",
"39 334 OFFCURVE",
"42 224 OFFCURVE",
"66 118 CURVE SMOOTH",
"71 96 OFFCURVE",
"79 64 OFFCURVE",
"106 64 CURVE SMOOTH",
"127 64 OFFCURVE",
"123 94 OFFCURVE",
"124 109 CURVE",
"122 172 OFFCURVE",
"122 235 OFFCURVE",
"120 299 CURVE",
"127 298 OFFCURVE",
"135 298 OFFCURVE",
"142 298 CURVE SMOOTH",
"186 299 OFFCURVE",
"230 309 OFFCURVE",
"273 317 CURVE SMOOTH",
"289 320 OFFCURVE",
"330 337 OFFCURVE",
"330 359 CURVE SMOOTH",
"330 364 OFFCURVE",
"327 369 OFFCURVE",
"320 369 CURVE SMOOTH",
"315 369 OFFCURVE",
"310 368 OFFCURVE",
"305 367 CURVE",
"253 360 OFFCURVE",
"196 360 OFFCURVE",
"116 357 CURVE",
"114 400 OFFCURVE",
"109 443 OFFCURVE",
"104 486 CURVE",
"175 486 OFFCURVE",
"241 502 OFFCURVE",
"311 507 CURVE",
"332 507 OFFCURVE",
"350 483 OFFCURVE",
"370 483 CURVE SMOOTH",
"389 483 OFFCURVE",
"396 505 OFFCURVE",
"396 523 CURVE SMOOTH",
"396 561 OFFCURVE",
"362 570 OFFCURVE",
"335 570 CURVE SMOOTH"
);
}
);
width = 406;
}
);
},
{
glyphname = G.ss01;
lastChange = "2019-03-20 23:10:32 +0000";
layers = (
{
hints = (
{
place = "{20, 80}";
type = Stem;
},
{
horizontal = 1;
place = "{44, 77}";
type = Stem;
},
{
horizontal = 1;
place = "{478, 63}";
type = Stem;
}
);
layerId = UUID0;
paths = (
{
closed = 1;
nodes = (
"55 541 OFFCURVE",
"20 365 OFFCURVE",
"20 276 CURVE SMOOTH",
"20 193 OFFCURVE",
"51 44 OFFCURVE",
"174 44 CURVE SMOOTH",
"257 44 OFFCURVE",
"315 122 OFFCURVE",
"352 190 CURVE SMOOTH",
"371 224 OFFCURVE",
"395 269 OFFCURVE",
"395 308 CURVE SMOOTH",
"395 344 OFFCURVE",
"370 376 OFFCURVE",
"324 376 CURVE SMOOTH",
"269 376 OFFCURVE",
"155 306 OFFCURVE",
"155 252 CURVE SMOOTH",
"155 238 OFFCURVE",
"167 228 OFFCURVE",
"180 228 CURVE SMOOTH",
"211 228 OFFCURVE",
"275 271 OFFCURVE",
"324 289 CURVE",
"308 220 OFFCURVE",
"252 121 OFFCURVE",
"182 121 CURVE SMOOTH",
"117 121 OFFCURVE",
"100 225 OFFCURVE",
"100 290 CURVE SMOOTH",
"100 294 OFFCURVE",
"103 478 OFFCURVE",
"161 478 CURVE SMOOTH",
"187 478 OFFCURVE",
"209 403 OFFCURVE",
"229 403 CURVE SMOOTH",
"244 403 OFFCURVE",
"253 413 OFFCURVE",
"253 434 CURVE SMOOTH",
"253 488 OFFCURVE",
"203 541 OFFCURVE",
"154 541 CURVE SMOOTH"
);
}
);
width = 415;
}
);
},
{
glyphname = H.ss01;
lastChange = "2019-03-20 23:10:29 +0000";
layers = (
{
hints = (
{
place = "{30, 87}";
type = Stem;
},
{
place = "{235, 86}";
type = Stem;
},
{
horizontal = 1;
place = "{92, 553}";
type = Stem;
}
);
layerId = UUID0;
paths = (
{
closed = 1;
nodes = (
"33 645 OFFCURVE",
"30 550 OFFCURVE",
"30 497 CURVE SMOOTH",
"30 403 LINE SMOOTH",
"30 305 OFFCURVE",
"33 92 OFFCURVE",
"86 92 CURVE SMOOTH",
"109 92 OFFCURVE",
"110 119 OFFCURVE",
"110 136 CURVE SMOOTH",
"110 154 OFFCURVE",
"108 170 OFFCURVE",
"108 187 CURVE SMOOTH",
"108 221 OFFCURVE",
"113 255 OFFCURVE",
"116 291 CURVE",
"157 302 OFFCURVE",
"196 318 OFFCURVE",
"236 331 CURVE",
"236 264 OFFCURVE",
"249 199 OFFCURVE",
"258 133 CURVE",
"262 117 OFFCURVE",
"264 98 OFFCURVE",
"282 98 CURVE SMOOTH",
"316 98 OFFCURVE",
"321 211 OFFCURVE",
"321 278 CURVE SMOOTH",
"321 376 OFFCURVE",
"315 475 OFFCURVE",
"302 571 CURVE",
"297 593 OFFCURVE",
"296 623 OFFCURVE",
"269 628 CURVE",
"240 622 OFFCURVE",
"235 551 OFFCURVE",
"235 482 CURVE SMOOTH",
"235 454 OFFCURVE",
"236 426 OFFCURVE",
"236 381 CURVE",
"197 376 OFFCURVE",
"157 369 OFFCURVE",
"117 363 CURVE",
"117 411 LINE SMOOTH",
"117 501 OFFCURVE",
"115 645 OFFCURVE",
"71 645 CURVE SMOOTH"
);
}
);
width = 351;
}
);
},
{
glyphname = I.ss01;
lastChange = "2019-03-20 23:10:25 +0000";
layers = (
{
hints = (
{
place = "{30, 94}";
type = Stem;
},
{
horizontal = 1;
place = "{57, 511}";
type = Stem;
}
);
layerId = UUID0;
paths = (
{
closed = 1;
nodes = (
"43 565 OFFCURVE",
"38 539 OFFCURVE",
"36 517 CURVE SMOOTH",
"32 478 OFFCURVE",
"30 439 OFFCURVE",
"30 399 CURVE SMOOTH",
"30 309 OFFCURVE",
"42 217 OFFCURVE",
"51 129 CURVE SMOOTH",
"53 108 OFFCURVE",
"57 57 OFFCURVE",
"90 57 CURVE SMOOTH",
"123 57 OFFCURVE",
"123 105 OFFCURVE",
"123 134 CURVE SMOOTH",
"123 168 OFFCURVE",
"124 203 OFFCURVE",
"124 237 CURVE SMOOTH",
"124 271 OFFCURVE",
"122 305 OFFCURVE",
"120 340 CURVE SMOOTH",
"117 400 OFFCURVE",
"116 462 OFFCURVE",
"106 522 CURVE SMOOTH",
"103 542 OFFCURVE",
"94 568 OFFCURVE",
"69 568 CURVE"
);
}
);
width = 154;
}
);
},
{
glyphname = J.ss01;
lastChange = "2019-03-20 23:10:22 +0000";
layers = (
{
hints = (
{
place = "{212, 103}";
type = Stem;
},
{
horizontal = 1;
place = "{54, 102}";
type = Stem;
}
);
layerId = UUID0;
paths = (
{
closed = 1;
nodes = (
"315 310 OFFCURVE",
"285 556 OFFCURVE",
"224 556 CURVE SMOOTH",
"197 556 OFFCURVE",
"191 531 OFFCURVE",
"191 507 CURVE SMOOTH",
"191 471 OFFCURVE",
"212 346 OFFCURVE",
"212 257 CURVE SMOOTH",
"212 234 OFFCURVE",
"207 156 OFFCURVE",
"185 156 CURVE SMOOTH",
"130 156 OFFCURVE",
"64 276 OFFCURVE",
"39 329 CURVE",
"34 336 OFFCURVE",
"29 338 OFFCURVE",
"25 338 CURVE SMOOTH",
"14 338 OFFCURVE",
"10 329 OFFCURVE",
"10 317 CURVE SMOOTH",
"10 294 OFFCURVE",
"21 256 OFFCURVE",
"31 233 CURVE SMOOTH",
"64 159 OFFCURVE",
"112 54 OFFCURVE",
"198 54 CURVE SMOOTH",
"291 54 OFFCURVE",
"315 171 OFFCURVE",
"315 243 CURVE SMOOTH"
);
}
);
width = 335;
}
);
},
{
glyphname = K.ss01;
lastChange = "2019-03-20 23:10:08 +0000";
layers = (
{
hints = (
{
place = "{31, 68}";
type = Stem;
},
{
horizontal = 1;
place = "{34, 512}";
type = Stem;
}
);
layerId = UUID0;
paths = (
{
closed = 1;
nodes = (
"309 544 OFFCURVE",
"291 524 OFFCURVE",
"275 511 CURVE SMOOTH",
"216 460 OFFCURVE",
"154 424 OFFCURVE",
"100 367 CURVE",
"96 404 OFFCURVE",
"92 508 OFFCURVE",
"61 508 CURVE SMOOTH",
"34 508 OFFCURVE",
"30 463 OFFCURVE",
"30 420 CURVE SMOOTH",
"30 399 OFFCURVE",
"31 377 OFFCURVE",
"31 363 CURVE SMOOTH",
"31 270 OFFCURVE",
"36 177 OFFCURVE",
"46 84 CURVE SMOOTH",
"48 68 OFFCURVE",
"52 34 OFFCURVE",
"77 34 CURVE SMOOTH",
"88 34 OFFCURVE",
"99 49 OFFCURVE",
"99 62 CURVE",
"104 140 OFFCURVE",
"103 220 OFFCURVE",
"105 299 CURVE",
"154 219 OFFCURVE",
"213 139 OFFCURVE",
"298 95 CURVE SMOOTH",
"319 84 OFFCURVE",
"342 68 OFFCURVE",
"367 68 CURVE SMOOTH",
"389 68 OFFCURVE",
"400 81 OFFCURVE",
"400 98 CURVE SMOOTH",
"400 107 OFFCURVE",
"397 116 OFFCURVE",
"391 123 CURVE SMOOTH",
"324 206 OFFCURVE",
"249 270 OFFCURVE",
"173 344 CURVE",
"236 395 OFFCURVE",
"362 469 OFFCURVE",
"362 517 CURVE SMOOTH",
"362 532 OFFCURVE",
"349 546 OFFCURVE",
"334 546 CURVE"
);
}
);
width = 410;
}
);
},
{
glyphname = L.ss01;
lastChange = "2019-03-20 23:10:03 +0000";
layers = (
{
hints = (
{
place = "{40, 85}";
type = Stem;
},
{
horizontal = 1;
place = "{2, 103}";
type = Stem;
}
);
layerId = UUID0;
paths = (
{
closed = 1;
nodes = (
"105 485 OFFCURVE",
"92 494 OFFCURVE",
"79 494 CURVE SMOOTH",
"43 494 OFFCURVE",
"41 447 OFFCURVE",
"41 421 CURVE SMOOTH",
"40 333 OFFCURVE",
"40 244 OFFCURVE",
"40 156 CURVE SMOOTH",
"40 124 OFFCURVE",
"41 82 OFFCURVE",
"61 56 CURVE SMOOTH",
"81 30 OFFCURVE",
"115 23 OFFCURVE",
"145 19 CURVE SMOOTH",
"193 12 OFFCURVE",
"239 2 OFFCURVE",
"287 2 CURVE SMOOTH",
"320 2 OFFCURVE",
"374 3 OFFCURVE",
"374 42 CURVE SMOOTH",
"374 113 OFFCURVE",
"201 97 OFFCURVE",
"124 105 CURVE",
"123 122 OFFCURVE",
"123 138 OFFCURVE",
"123 155 CURVE SMOOTH",
"123 220 OFFCURVE",
"125 286 OFFCURVE",
"125 361 CURVE SMOOTH",
"125 399 OFFCURVE",
"123 440 OFFCURVE",
"111 471 CURVE"
);
}
);
width = 384;
}
);
},
{
glyphname = M.ss01;
lastChange = "2019-03-20 23:09:59 +0000";
layers = (
{
hints = (
{
place = "{366, 115}";
type = Stem;
},
{
horizontal = 1;
place = "{39, 512}";
type = Stem;
}
);
layerId = UUID0;
paths = (
{
closed = 1;
nodes = (
"362 551 OFFCURVE",
"342 516 OFFCURVE",
"329 485 CURVE SMOOTH",
"293 403 OFFCURVE",
"265 315 OFFCURVE",
"233 230 CURVE",
"221 301 OFFCURVE",
"216 373 OFFCURVE",
"206 444 CURVE SMOOTH",
"200 482 OFFCURVE",
"190 543 OFFCURVE",
"145 543 CURVE SMOOTH",
"112 543 OFFCURVE",
"98 505 OFFCURVE",
"89 478 CURVE SMOOTH",
"64 403 OFFCURVE",
"43 327 OFFCURVE",
"29 250 CURVE SMOOTH",
"21 206 OFFCURVE",
"10 160 OFFCURVE",
"10 115 CURVE SMOOTH",
"10 98 OFFCURVE",
"11 70 OFFCURVE",
"36 70 CURVE SMOOTH",
"62 70 OFFCURVE",
"76 107 OFFCURVE",
"83 132 CURVE SMOOTH",
"104 204 OFFCURVE",
"115 278 OFFCURVE",
"134 350 CURVE",
"148 265 OFFCURVE",
"156 106 OFFCURVE",
"226 106 CURVE SMOOTH",
"268 106 OFFCURVE",
"287 153 OFFCURVE",
"299 185 CURVE SMOOTH",
"323 252 OFFCURVE",
"342 320 OFFCURVE",
"366 386 CURVE",
"366 332 OFFCURVE",
"369 278 OFFCURVE",
"374 224 CURVE SMOOTH",
"381 159 OFFCURVE",
"410 39 OFFCURVE",
"456 39 CURVE SMOOTH",
"480 39 OFFCURVE",
"491 66 OFFCURVE",
"491 86 CURVE SMOOTH",
"491 113 OFFCURVE",
"480 143 OFFCURVE",
"480 172 CURVE SMOOTH",
"480 187 OFFCURVE",
"481 202 OFFCURVE",
"481 216 CURVE SMOOTH",
"481 289 OFFCURVE",
"474 361 OFFCURVE",
"464 433 CURVE SMOOTH",
"457 479 OFFCURVE",
"444 551 OFFCURVE",
"393 551 CURVE SMOOTH"
);
}
);
width = 501;
}
);
},
{
glyphname = N.ss01;
lastChange = "2019-03-20 23:09:56 +0000";
layers = (
{
hints = (
{
place = "{313, 132}";
type = Stem;
},
{
horizontal = 1;
place = "{63, 554}";
type = Stem;
}
);
layerId = UUID0;
paths = (
{
closed = 1;
nodes = (
"446 548 OFFCURVE",
"442 617 OFFCURVE",
"409 617 CURVE SMOOTH",
"372 617 OFFCURVE",
"362 551 OFFCURVE",
"353 515 CURVE SMOOTH",
"333 436 OFFCURVE",
"327 356 OFFCURVE",
"313 276 CURVE",
"279 330 OFFCURVE",
"250 388 OFFCURVE",
"218 443 CURVE SMOOTH",
"198 478 OFFCURVE",
"170 527 OFFCURVE",
"130 527 CURVE SMOOTH",
"86 527 OFFCURVE",
"77 476 OFFCURVE",
"70 439 CURVE SMOOTH",
"55 363 OFFCURVE",
"38 286 OFFCURVE",
"26 209 CURVE SMOOTH",
"23 192 OFFCURVE",
"20 172 OFFCURVE",
"20 153 CURVE SMOOTH",
"20 125 OFFCURVE",
"32 95 OFFCURVE",
"61 95 CURVE SMOOTH",
"117 95 OFFCURVE",
"118 276 OFFCURVE",
"133 378 CURVE",
"164 304 OFFCURVE",
"197 232 OFFCURVE",
"238 162 CURVE SMOOTH",
"263 119 OFFCURVE",
"288 63 OFFCURVE",
"343 63 CURVE SMOOTH",
"439 63 OFFCURVE",
"445 211 OFFCURVE",
"445 334 CURVE SMOOTH",
"445 412 OFFCURVE",
"446 442 OFFCURVE",
"446 504 CURVE SMOOTH"
);
}
);
width = 486;
}
);
},
{
glyphname = O.ss01;
lastChange = "2019-03-20 23:09:53 +0000";
layers = (
{
hints = (
{
place = "{20, 95}";
type = Stem;
},
{
place = "{237, 85}";
type = Stem;
},
{
horizontal = 1;
place = "{37, 97}";
type = Stem;
},
{
horizontal = 1;
place = "{452, 105}";
type = Stem;
}
);
layerId = UUID0;
paths = (
{
closed = 1;
nodes = (
"68 557 OFFCURVE",
"20 387 OFFCURVE",
"20 268 CURVE SMOOTH",
"20 183 OFFCURVE",
"50 37 OFFCURVE",
"162 37 CURVE SMOOTH",
"270 37 OFFCURVE",
"322 171 OFFCURVE",
"322 267 CURVE SMOOTH",
"322 317 OFFCURVE",
"312 367 OFFCURVE",
"295 413 CURVE SMOOTH",
"272 473 OFFCURVE",
"211 557 OFFCURVE",
"158 557 CURVE SMOOTH"
);
},
{
closed = 1;
nodes = (
"225 427 OFFCURVE",
"237 352 OFFCURVE",
"237 302 CURVE SMOOTH",
"237 279 OFFCURVE",
"220 134 OFFCURVE",
"160 134 CURVE SMOOTH",
"121 134 OFFCURVE",
"115 241 OFFCURVE",
"115 276 CURVE SMOOTH",
"115 335 OFFCURVE",
"125 394 OFFCURVE",
"145 451 CURVE",
"149 451 OFFCURVE",
"157 449 OFFCURVE",
"161 449 CURVE SMOOTH",
"169 449 OFFCURVE",
"175 452 OFFCURVE",
"184 452 CURVE SMOOTH",
"188 452 OFFCURVE",
"192 452 OFFCURVE",
"197 450 CURVE"
);
}
);
width = 342;
}
);
},
{
glyphname = P.ss01;
lastChange = "2019-03-20 23:09:48 +0000";
layers = (
{
hints = (
{
place = "{40, 98}";
type = Stem;
},
{
place = "{247, 99}";
type = Stem;
},
{
horizontal = 1;
place = "{471, 75}";
type = Stem;
}
);
layerId = UUID0;
paths = (
{
closed = 1;
nodes = (
"346 507 OFFCURVE",
"264 546 OFFCURVE",
"195 546 CURVE SMOOTH",
"159 546 OFFCURVE",
"124 537 OFFCURVE",
"88 537 CURVE SMOOTH",
"83 537 OFFCURVE",
"79 539 OFFCURVE",
"74 539 CURVE SMOOTH",
"54 539 OFFCURVE",
"50 502 OFFCURVE",
"49 484 CURVE SMOOTH",
"45 423 OFFCURVE",
"40 360 OFFCURVE",
"40 298 CURVE SMOOTH",
"40 250 OFFCURVE",
"43 202 OFFCURVE",
"49 155 CURVE SMOOTH",
"55 108 OFFCURVE",
"47 26 OFFCURVE",
"94 26 CURVE SMOOTH",
"130 26 OFFCURVE",
"132 71 OFFCURVE",
"132 105 CURVE SMOOTH",
"132 160 OFFCURVE",
"137 200 OFFCURVE",
"139 241 CURVE",
"220 275 OFFCURVE",
"346 331 OFFCURVE",
"346 432 CURVE SMOOTH"
);
},
{
closed = 1;
nodes = (
"144 471 OFFCURVE",
"247 467 OFFCURVE",
"247 433 CURVE SMOOTH",
"247 384 OFFCURVE",
"177 335 OFFCURVE",
"138 310 CURVE",
"138 326 LINE SMOOTH",
"138 375 OFFCURVE",
"130 422 OFFCURVE",
"127 471 CURVE"
);
}
);
width = 366;
}
);
},
{
glyphname = Q.ss01;
lastChange = "2019-03-20 23:09:45 +0000";
layers = (
{
hints = (
{
place = "{20, 58}";
type = Stem;
},
{
place = "{292, 73}";
type = Stem;
},
{
horizontal = 1;
place = "{47, 70}";
type = Stem;
},
{
horizontal = 1;
place = "{451, 128}";
type = Stem;
}
);
layerId = UUID0;
paths = (
{
closed = 1;
nodes = (
"192 539 OFFCURVE",
"178 579 OFFCURVE",
"134 579 CURVE SMOOTH",
"43 579 OFFCURVE",
"20 405 OFFCURVE",
"20 312 CURVE SMOOTH",
"20 235 OFFCURVE",
"46 47 OFFCURVE",
"175 47 CURVE SMOOTH",
"220 47 OFFCURVE",
"252 73 OFFCURVE",
"284 100 CURVE",
"308 67 OFFCURVE",
"334 6 OFFCURVE",
"368 6 CURVE SMOOTH",
"377 6 OFFCURVE",
"386 11 OFFCURVE",
"386 22 CURVE SMOOTH",
"386 75 OFFCURVE",
"326 123 OFFCURVE",
"326 155 CURVE SMOOTH",
"326 168 OFFCURVE",
"334 182 OFFCURVE",
"338 194 CURVE",
"355 233 OFFCURVE",
"365 276 OFFCURVE",
"365 320 CURVE SMOOTH",
"365 441 OFFCURVE",
"308 475 OFFCURVE",
"224 521 CURVE SMOOTH"
);
},
{
closed = 1;
nodes = (
"131 515 OFFCURVE",
"128 505 OFFCURVE",
"128 497 CURVE SMOOTH",
"128 477 OFFCURVE",
"163 451 OFFCURVE",
"183 451 CURVE SMOOTH",
"193 451 OFFCURVE",
"205 454 OFFCURVE",
"215 454 CURVE SMOOTH",
"221 454 OFFCURVE",
"226 453 OFFCURVE",
"231 450 CURVE",
"270 424 OFFCURVE",
"292 382 OFFCURVE",
"292 332 CURVE SMOOTH",
"292 300 OFFCURVE",
"283 268 OFFCURVE",
"273 236 CURVE",
"251 262 OFFCURVE",
"230 289 OFFCURVE",
"210 315 CURVE SMOOTH",
"204 323 OFFCURVE",
"194 334 OFFCURVE",
"181 334 CURVE SMOOTH",
"176 334 OFFCURVE",
"173 331 OFFCURVE",
"173 322 CURVE SMOOTH",
"173 279 OFFCURVE",
"213 224 OFFCURVE",
"242 172 CURVE",
"224 150 OFFCURVE",
"203 117 OFFCURVE",
"174 117 CURVE SMOOTH",
"102 117 OFFCURVE",
"78 256 OFFCURVE",
"78 329 CURVE SMOOTH",
"78 396 OFFCURVE",
"90 469 OFFCURVE",
"132 523 CURVE"
);
}
);
width = 406;
}
);
},
{
glyphname = R.ss01;
lastChange = "2019-03-20 23:09:38 +0000";
layers = (
{
hints = (
{
place = "{243, 88}";
type = Stem;
},
{
horizontal = 1;
place = "{461, 72}";
type = Stem;
}
);
layerId = UUID0;
paths = (
{
closed = 1;
nodes = (
"331 494 OFFCURVE",
"293 533 OFFCURVE",
"244 533 CURVE SMOOTH",
"174 533 OFFCURVE",
"131 470 OFFCURVE",
"103 415 CURVE",
"94 442 OFFCURVE",
"85 489 OFFCURVE",
"59 489 CURVE SMOOTH",
"31 489 OFFCURVE",
"30 445 OFFCURVE",
"30 425 CURVE SMOOTH",
"30 401 OFFCURVE",
"31 376 OFFCURVE",
"33 348 CURVE SMOOTH",
"40 263 OFFCURVE",
"45 176 OFFCURVE",
"55 91 CURVE SMOOTH",
"58 61 OFFCURVE",
"65 16 OFFCURVE",
"107 16 CURVE SMOOTH",
"143 16 OFFCURVE",
"156 51 OFFCURVE",
"156 87 CURVE SMOOTH",
"156 130 OFFCURVE",
"147 172 OFFCURVE",
"144 214 CURVE",
"174 177 OFFCURVE",
"204 142 OFFCURVE",
"239 109 CURVE SMOOTH",
"265 85 OFFCURVE",
"291 44 OFFCURVE",
"324 44 CURVE SMOOTH",
"348 44 OFFCURVE",
"369 59 OFFCURVE",
"369 90 CURVE SMOOTH",
"369 164 OFFCURVE",
"262 233 OFFCURVE",
"199 290 CURVE",
"256 323 OFFCURVE",
"331 366 OFFCURVE",
"331 447 CURVE SMOOTH"
);
},
{
closed = 1;
nodes = (
"232 461 OFFCURVE",
"243 458 OFFCURVE",
"243 448 CURVE SMOOTH",
"243 394 OFFCURVE",
"167 352 OFFCURVE",
"122 327 CURVE",
"135 381 OFFCURVE",
"176 461 OFFCURVE",
"225 461 CURVE SMOOTH"
);
}
);
width = 379;
}
);
},
{
glyphname = S.ss01;
lastChange = "2019-03-20 23:09:35 +0000";
layers = (
{
hints = (
{
place = "{241, 92}";
type = Stem;
},
{
horizontal = 1;
place = "{38, 75}";
type = Stem;
}
);
layerId = UUID0;
paths = (
{
closed = 1;
nodes = (
"178 548 OFFCURVE",
"92 511 OFFCURVE",
"92 454 CURVE SMOOTH",
"92 423 OFFCURVE",
"122 400 OFFCURVE",
"142 380 CURVE SMOOTH",
"189 334 OFFCURVE",
"241 275 OFFCURVE",
"241 203 CURVE SMOOTH",
"241 143 OFFCURVE",
"191 113 OFFCURVE",
"141 113 CURVE SMOOTH",
"95 113 OFFCURVE",
"71 157 OFFCURVE",
"36 157 CURVE SMOOTH",
"24 157 OFFCURVE",
"20 142 OFFCURVE",
"20 131 CURVE SMOOTH",
"20 79 OFFCURVE",
"96 38 OFFCURVE",
"151 38 CURVE SMOOTH",
"257 38 OFFCURVE",
"333 108 OFFCURVE",
"333 203 CURVE SMOOTH",
"333 309 OFFCURVE",
"248 397 OFFCURVE",
"165 461 CURVE",
"171 477 OFFCURVE",
"196 486 OFFCURVE",
"215 490 CURVE SMOOTH",
"239 495 OFFCURVE",
"286 497 OFFCURVE",
"286 521 CURVE SMOOTH",
"286 542 OFFCURVE",
"263 548 OFFCURVE",
"236 548 CURVE SMOOTH"
);
}
);
width = 353;
}
);
},
{
glyphname = T.ss01;
lastChange = "2019-03-20 23:09:06 +0000";
layers = (
{
hints = (
{
place = "{10, 561}";
type = Stem;
},
{
place = "{268, 94}";
type = Stem;
},
{
horizontal = 1;
place = "{525, 95}";
type = Stem;
},
{
horizontal = 1;
place = "{544, 73}";
type = Stem;
}
);
layerId = UUID0;
paths = (
{
closed = 1;
nodes = (
"571 623 OFFCURVE",
"536 626 OFFCURVE",
"510 626 CURVE SMOOTH",
"449 626 OFFCURVE",
"389 621 OFFCURVE",
"324 620 CURVE",
"300 618 OFFCURVE",
"275 617 OFFCURVE",
"251 617 CURVE SMOOTH",
"225 617 OFFCURVE",
"183 620 OFFCURVE",
"153 620 CURVE SMOOTH",
"122 620 OFFCURVE",
"113 619 OFFCURVE",
"82 617 CURVE SMOOTH",
"56 615 OFFCURVE",
"10 611 OFFCURVE",
"10 575 CURVE SMOOTH",
"10 525 OFFCURVE",
"106 525 OFFCURVE",
"145 525 CURVE SMOOTH",
"186 525 OFFCURVE",
"227 529 OFFCURVE",
"269 535 CURVE",
"269 521 OFFCURVE",
"268 508 OFFCURVE",
"268 494 CURVE SMOOTH",
"268 394 OFFCURVE",
"280 291 OFFCURVE",
"289 192 CURVE SMOOTH",
"292 159 OFFCURVE",
"294 124 OFFCURVE",
"299 90 CURVE SMOOTH",
"302 70 OFFCURVE",
"308 44 OFFCURVE",
"334 44 CURVE SMOOTH",
"357 44 OFFCURVE",
"363 68 OFFCURVE",
"363 90 CURVE SMOOTH",
"363 98 OFFCURVE",
"362 107 OFFCURVE",
"362 167 CURVE SMOOTH",
"362 271 LINE SMOOTH",
"362 291 OFFCURVE",
"362 311 OFFCURVE",
"361 331 CURVE SMOOTH",
"357 402 OFFCURVE",
"353 478 OFFCURVE",
"327 544 CURVE",
"384 551 OFFCURVE",
"441 555 OFFCURVE",
"498 562 CURVE SMOOTH",
"522 565 OFFCURVE",
"571 572 OFFCURVE",
"571 607 CURVE SMOOTH"
);
}
);
width = 581;
}
);
},
{
glyphname = U.ss01;
lastChange = "2019-03-20 23:09:10 +0000";
layers = (
{
hints = (
{
place = "{20, 264}";
type = Stem;
},
{
horizontal = 1;
place = "{59, 118}";
type = Stem;
}
);
layerId = UUID0;
paths = (
{
closed = 1;
nodes = (
"284 465 OFFCURVE",
"281 523 OFFCURVE",
"249 523 CURVE SMOOTH",
"218 523 OFFCURVE",
"210 477 OFFCURVE",
"206 450 CURVE SMOOTH",
"191 358 OFFCURVE",
"188 177 OFFCURVE",
"161 177 CURVE SMOOTH",
"136 177 OFFCURVE",
"120 319 OFFCURVE",
"106 389 CURVE SMOOTH",
"98 428 OFFCURVE",
"92 499 OFFCURVE",
"49 499 CURVE SMOOTH",
"28 499 OFFCURVE",
"20 484 OFFCURVE",
"20 460 CURVE SMOOTH",
"20 447 OFFCURVE",
"22 434 OFFCURVE",
"23 422 CURVE",
"39 293 OFFCURVE",
"66 59 OFFCURVE",
"167 59 CURVE SMOOTH",
"273 59 OFFCURVE",
"284 305 OFFCURVE",
"284 442 CURVE SMOOTH"
);
}
);
width = 304;
}
);
},
{
glyphname = V.ss01;
lastChange = "2019-03-20 23:09:14 +0000";
layers = (
{
hints = (
{
place = "{20, 300}";
type = Stem;
},
{
horizontal = 1;
place = "{-2, 496}";
type = Stem;
}
);
layerId = UUID0;
paths = (
{
closed = 1;
nodes = (
"272 494 OFFCURVE",
"266 473 OFFCURVE",
"260 453 CURVE SMOOTH",
"232 361 OFFCURVE",
"212 268 OFFCURVE",
"195 173 CURVE",
"169 252 OFFCURVE",
"150 333 OFFCURVE",
"120 411 CURVE SMOOTH",
"108 441 OFFCURVE",
"89 490 OFFCURVE",
"52 490 CURVE SMOOTH",
"31 490 OFFCURVE",
"20 479 OFFCURVE",
"20 454 CURVE SMOOTH",
"20 439 OFFCURVE",
"23 422 OFFCURVE",
"27 408 CURVE SMOOTH",
"54 301 OFFCURVE",
"78 193 OFFCURVE",
"117 90 CURVE SMOOTH",
"131 52 OFFCURVE",
"152 -2 OFFCURVE",
"200 -2 CURVE SMOOTH",
"258 -2 OFFCURVE",
"275 71 OFFCURVE",
"282 118 CURVE SMOOTH",
"299 227 OFFCURVE",
"320 341 OFFCURVE",
"320 449 CURVE SMOOTH",
"320 472 OFFCURVE",
"316 494 OFFCURVE",
"294 494 CURVE SMOOTH"
);
}
);
width = 340;
}
);
},
{
glyphname = W.ss01;
lastChange = "2019-03-20 23:09:18 +0000";
layers = (
{
hints = (
{
place = "{20, 473}";
type = Stem;
},
{
horizontal = 1;
place = "{18, 469}";
type = Stem;
}
);
layerId = UUID0;
paths = (
{
closed = 1;
nodes = (
"422 484 OFFCURVE",
"421 458 OFFCURVE",
"417 436 CURVE",
"407 345 OFFCURVE",
"400 254 OFFCURVE",
"385 163 CURVE",
"339 254 OFFCURVE",
"304 431 OFFCURVE",
"237 431 CURVE SMOOTH",
"204 431 OFFCURVE",
"192 391 OFFCURVE",
"184 364 CURVE SMOOTH",
"163 298 OFFCURVE",
"148 230 OFFCURVE",
"127 165 CURVE",
"107 249 OFFCURVE",
"94 415 OFFCURVE",
"45 415 CURVE SMOOTH",
"20 415 OFFCURVE",
"20 391 OFFCURVE",
"20 373 CURVE",
"20 375 OFFCURVE",
"30 18 OFFCURVE",
"119 18 CURVE SMOOTH",
"156 18 OFFCURVE",
"170 62 OFFCURVE",
"178 94 CURVE SMOOTH",
"198 176 OFFCURVE",
"209 259 OFFCURVE",
"233 340 CURVE",
"265 248 OFFCURVE",
"285 154 OFFCURVE",
"332 66 CURVE SMOOTH",
"347 38 OFFCURVE",
"367 18 OFFCURVE",
"401 18 CURVE SMOOTH",
"485 18 OFFCURVE",
"493 177 OFFCURVE",
"493 256 CURVE SMOOTH",
"493 290 OFFCURVE",
"489 324 OFFCURVE",
"489 391 CURVE SMOOTH",
"489 435 OFFCURVE",
"486 487 OFFCURVE",
"450 487 CURVE"
);
}
);
width = 513;
}
);
},
{
glyphname = X.ss01;
lastChange = "2019-03-20 23:09:22 +0000";
layers = (
{
hints = (
{
place = "{20, 323}";
type = Stem;
},
{
horizontal = 1;
place = "{-70, 21}";
target = up;
type = BottomGhost;
}
);
layerId = UUID0;
paths = (
{
closed = 1;
nodes = (
"283 536 OFFCURVE",
"272 543 OFFCURVE",
"259 543 CURVE SMOOTH",
"208 543 OFFCURVE",
"179 426 OFFCURVE",
"156 359 CURVE",
"125 396 OFFCURVE",
"81 470 OFFCURVE",
"46 470 CURVE SMOOTH",
"30 470 OFFCURVE",
"20 455 OFFCURVE",
"20 442 CURVE SMOOTH",
"20 399 OFFCURVE",
"73 325 OFFCURVE",
"105 280 CURVE",
"111 269 OFFCURVE",
"120 258 OFFCURVE",
"120 246 CURVE SMOOTH",
"120 214 OFFCURVE",
"108 186 OFFCURVE",
"95 147 CURVE SMOOTH",
"74 85 OFFCURVE",
"48 19 OFFCURVE",
"48 -48 CURVE SMOOTH",
"48 -61 OFFCURVE",
"60 -70 OFFCURVE",
"67 -70 CURVE SMOOTH",
"86 -70 OFFCURVE",
"97 -39 OFFCURVE",
"103 -22 CURVE SMOOTH",
"127 50 OFFCURVE",
"147 124 OFFCURVE",
"175 194 CURVE",
"217 157 OFFCURVE",
"281 90 OFFCURVE",
"319 90 CURVE SMOOTH",
"330 90 OFFCURVE",
"343 97 OFFCURVE",
"343 110 CURVE SMOOTH",
"343 127 OFFCURVE",
"325 145 OFFCURVE",
"314 159 CURVE SMOOTH",
"278 203 OFFCURVE",
"246 248 OFFCURVE",
"210 292 CURVE",
"233 358 OFFCURVE",
"253 424 OFFCURVE",
"276 489 CURVE",
"279 501 OFFCURVE",
"283 509 OFFCURVE",
"283 524 CURVE SMOOTH"
);
}
);
width = 363;
}
);
},
{
glyphname = Y.ss01;
lastChange = "2019-03-20 23:09:26 +0000";
layers = (
{
hints = (
{
place = "{216, 107}";
type = Stem;
},
{
horizontal = 1;
place = "{-62, 525}";
type = Stem;
}
);
layerId = UUID0;
paths = (
{
closed = 1;
nodes = (
"323 358 OFFCURVE",
"318 463 OFFCURVE",
"265 463 CURVE SMOOTH",
"203 463 OFFCURVE",
"226 327 OFFCURVE",
"216 244 CURVE",
"174 282 OFFCURVE",
"133 321 OFFCURVE",
"92 362 CURVE SMOOTH",
"78 376 OFFCURVE",
"62 391 OFFCURVE",
"42 391 CURVE SMOOTH",
"24 391 OFFCURVE",
"10 381 OFFCURVE",
"10 360 CURVE SMOOTH",
"11 314 OFFCURVE",
"73 247 OFFCURVE",
"119 215 CURVE SMOOTH",
"152 192 OFFCURVE",
"218 164 OFFCURVE",
"220 139 CURVE",
"232 76 OFFCURVE",
"218 -62 OFFCURVE",
"266 -62 CURVE SMOOTH",
"300 -62 OFFCURVE",
"299 -13 OFFCURVE",
"303 15 CURVE",
"309 89 OFFCURVE",
"323 159 OFFCURVE",
"323 236 CURVE SMOOTH",
"323 283 LINE SMOOTH"
);
}
);
width = 353;
}
);
},
{
glyphname = Z.ss01;
lastChange = "2019-03-20 23:09:30 +0000";
layers = (
{
hints = (
{
place = "{10, 424}";
type = Stem;
},
{
horizontal = 1;
place = "{12, 127}";
type = Stem;
},
{
horizontal = 1;
place = "{12, 526}";
type = Stem;
}
);
layerId = UUID0;
paths = (
{
closed = 1;
nodes = (
"346 499 OFFCURVE",
"322 538 OFFCURVE",
"273 538 CURVE SMOOTH",
"245 538 OFFCURVE",
"10 496 OFFCURVE",
"10 422 CURVE SMOOTH",
"10 405 OFFCURVE",
"25 388 OFFCURVE",
"42 388 CURVE SMOOTH",
"66 388 OFFCURVE",
"95 404 OFFCURVE",
"118 412 CURVE SMOOTH",
"158 426 OFFCURVE",
"200 436 OFFCURVE",
"242 443 CURVE",
"221 334 OFFCURVE",
"173 230 OFFCURVE",
"151 121 CURVE SMOOTH",
"149 111 OFFCURVE",
"148 102 OFFCURVE",
"148 93 CURVE SMOOTH",
"148 42 OFFCURVE",
"187 12 OFFCURVE",
"232 12 CURVE SMOOTH",
"299 12 OFFCURVE",
"434 60 OFFCURVE",
"434 108 CURVE SMOOTH",
"434 139 OFFCURVE",
"405 139 OFFCURVE",
"379 139 CURVE SMOOTH",
"337 139 OFFCURVE",
"295 134 OFFCURVE",
"254 128 CURVE",
"278 212 OFFCURVE",
"308 295 OFFCURVE",
"331 379 CURVE SMOOTH",
"338 404 OFFCURVE",
"346 433 OFFCURVE",
"346 460 CURVE SMOOTH"
);
}
);
width = 444;
}
);
},
{
glyphname = a;
lastChange = "2019-03-20 21:42:08 +0000";
layers = (
{
hints = (
{
place = "{10, 357}";
type = Stem;
},
{
horizontal = 1;
place = "{76, 519}";
type = Stem;
}
);
layerId = UUID0;
paths = (
{
closed = 1;
nodes = (
"275 523 OFFCURVE",
"254 595 OFFCURVE",
"204 595 CURVE SMOOTH",
"157 595 OFFCURVE",
"136 508 OFFCURVE",
"123 473 CURVE SMOOTH",
"90 385 OFFCURVE",
"57 296 OFFCURVE",
"28 207 CURVE SMOOTH",
"20 181 OFFCURVE",
"10 155 OFFCURVE",
"10 124 CURVE SMOOTH",
"10 105 OFFCURVE",
"25 89 OFFCURVE",
"46 89 CURVE",
"63 90 OFFCURVE",
"74 102 OFFCURVE",
"82 117 CURVE SMOOTH",
"101 152 OFFCURVE",
"111 192 OFFCURVE",
"125 230 CURVE",
"129 239 OFFCURVE",
"132 249 OFFCURVE",
"143 253 CURVE",
"174 267 OFFCURVE",
"211 270 OFFCURVE",
"244 275 CURVE",
"255 243 OFFCURVE",
"265 212 OFFCURVE",
"279 181 CURVE SMOOTH",
"288 161 OFFCURVE",
"298 144 OFFCURVE",
"300 121 CURVE",
"302 107 OFFCURVE",
"299 93 OFFCURVE",
"313 84 CURVE",
"320 79 OFFCURVE",
"328 76 OFFCURVE",
"336 76 CURVE SMOOTH",
"363 76 OFFCURVE",
"367 104 OFFCURVE",
"367 128 CURVE SMOOTH",
"367 169 OFFCURVE",
"355 211 OFFCURVE",
"346 250 CURVE SMOOTH",
"328 330 OFFCURVE",
"308 410 OFFCURVE",
"285 488 CURVE SMOOTH"
);
},
{
closed = 1;
nodes = (
"209 422 OFFCURVE",
"220 372 OFFCURVE",
"232 322 CURVE",
"204 316 OFFCURVE",
"177 312 OFFCURVE",
"149 309 CURVE",
"164 363 OFFCURVE",
"178 418 OFFCURVE",
"196 471 CURVE"
);
}
);
width = 377;
}
);
unicode = 0061;
},
{
glyphname = b;
lastChange = "2019-03-20 21:42:08 +0000";
layers = (
{
hints = (
{
place = "{20, 82}";
type = Stem;
},
{
place = "{246, 59}";
type = Stem;
},
{
place = "{293, 71}";
type = Stem;
},
{
horizontal = 1;
place = "{369, 62}";
type = Stem;
},
{
horizontal = 1;
place = "{608, 56}";
type = Stem;
}
);
layerId = UUID0;
paths = (
{
closed = 1;
nodes = (
"88 628 OFFCURVE",
"83 670 OFFCURVE",
"50 670 CURVE SMOOTH",
"23 670 OFFCURVE",
"20 643 OFFCURVE",
"20 617 CURVE SMOOTH",
"20 607 OFFCURVE",
"21 597 OFFCURVE",
"21 588 CURVE",
"26 513 OFFCURVE",
"23 440 OFFCURVE",
"26 366 CURVE SMOOTH",
"28 316 OFFCURVE",
"32 266 OFFCURVE",
"39 216 CURVE SMOOTH",
"43 183 OFFCURVE",
"42 149 OFFCURVE",
"48 116 CURVE SMOOTH",
"51 98 OFFCURVE",
"60 82 OFFCURVE",
"78 74 CURVE SMOOTH",
"85 71 OFFCURVE",
"92 70 OFFCURVE",
"100 70 CURVE SMOOTH",
"120 70 OFFCURVE",
"140 78 OFFCURVE",
"157 86 CURVE SMOOTH",
"216 114 OFFCURVE",
"274 153 OFFCURVE",
"312 206 CURVE SMOOTH",
"339 243 OFFCURVE",
"364 289 OFFCURVE",
"364 340 CURVE SMOOTH",
"364 373 OFFCURVE",
"351 404 OFFCURVE",
"321 420 CURVE",
"308 428 OFFCURVE",
"293 431 OFFCURVE",
"277 431 CURVE SMOOTH",
"259 431 OFFCURVE",
"240 427 OFFCURVE",
"224 424 CURVE",
"250 466 OFFCURVE",
"276 510 OFFCURVE",
"293 555 CURVE SMOOTH",
"299 572 OFFCURVE",
"305 591 OFFCURVE",
"305 609 CURVE SMOOTH",
"305 638 OFFCURVE",
"284 664 OFFCURVE",
"251 664 CURVE SMOOTH",
"198 664 OFFCURVE",
"146 632 OFFCURVE",
"95 606 CURVE"
);
},
{
closed = 1;
nodes = (
"239 608 OFFCURVE",
"246 607 OFFCURVE",
"246 598 CURVE SMOOTH",
"246 583 OFFCURVE",
"230 551 OFFCURVE",
"222 531 CURVE SMOOTH",
"197 469 OFFCURVE",
"161 410 OFFCURVE",
"115 360 CURVE",
"112 402 OFFCURVE",
"111 444 OFFCURVE",
"106 485 CURVE SMOOTH",
"103 507 OFFCURVE",
"102 528 OFFCURVE",
"102 552 CURVE",
"111 562 OFFCURVE",
"124 569 OFFCURVE",
"136 574 CURVE SMOOTH",
"165 586 OFFCURVE",
"212 608 OFFCURVE",
"234 608 CURVE SMOOTH"
);
},
{
closed = 1;
nodes = (
"242 366 OFFCURVE",
"259 369 OFFCURVE",
"272 369 CURVE SMOOTH",
"283 369 OFFCURVE",
"293 365 OFFCURVE",
"293 351 CURVE SMOOTH",
"293 336 OFFCURVE",
"284 316 OFFCURVE",
"276 302 CURVE",
"245 239 OFFCURVE",
"189 186 OFFCURVE",
"132 146 CURVE",
"123 167 OFFCURVE",
"115 187 OFFCURVE",
"115 211 CURVE SMOOTH",
"115 250 OFFCURVE",
"116 287 OFFCURVE",
"116 326 CURVE",
"159 335 OFFCURVE",
"186 354 OFFCURVE",
"227 363 CURVE SMOOTH"
);
}
);
width = 384;
}
);
unicode = 0062;
},
{
glyphname = c;
lastChange = "2019-03-20 21:42:08 +0000";
layers = (
{
hints = (
{
place = "{20, 77}";
type = Stem;
},
{
horizontal = 1;
place = "{31, 77}";
type = Stem;
},
{
horizontal = 1;
place = "{425, 125}";
type = Stem;
}
);
layerId = UUID0;
paths = (
{
closed = 1;
nodes = (
"189 506 OFFCURVE",
"165 550 OFFCURVE",
"123 550 CURVE SMOOTH",
"39 550 OFFCURVE",
"20 393 OFFCURVE",
"20 296 CURVE SMOOTH",
"20 229 OFFCURVE",
"41 31 OFFCURVE",
"162 31 CURVE SMOOTH",
"250 31 OFFCURVE",
"314 134 OFFCURVE",
"314 221 CURVE SMOOTH",
"314 236 OFFCURVE",
"308 246 OFFCURVE",
"298 246 CURVE SMOOTH",
"256 246 OFFCURVE",
"253 108 OFFCURVE",
"168 108 CURVE SMOOTH",
"110 108 OFFCURVE",
"97 245 OFFCURVE",
"97 304 CURVE SMOOTH",
"97 354 OFFCURVE",
"104 404 OFFCURVE",
"117 452 CURVE",
"128 442 OFFCURVE",
"140 425 OFFCURVE",
"156 425 CURVE SMOOTH",
"182 425 OFFCURVE",
"189 446 OFFCURVE",
"189 471 CURVE SMOOTH"
);
}
);
width = 334;
}
);
unicode = 0063;
},
{
glyphname = d;
lastChange = "2019-03-20 21:42:08 +0000";
layers = (
{
hints = (
{
place = "{62, 70}";
type = Stem;
},
{
place = "{74, 71}";
type = Stem;
},
{
place = "{324, 86}";
type = Stem;
},
{
horizontal = 1;
place = "{67, 58}";
type = Stem;
},
{
horizontal = 1;
place = "{491, 64}";
type = Stem;
}
);
layerId = UUID0;
paths = (
{
closed = 1;
nodes = (
"410 463 OFFCURVE",
"245 555 OFFCURVE",
"105 555 CURVE SMOOTH",
"87 555 OFFCURVE",
"18 555 OFFCURVE",
"18 528 CURVE SMOOTH",
"18 509 OFFCURVE",
"42 503 OFFCURVE",
"55 492 CURVE",
"62 466 OFFCURVE",
"62 438 OFFCURVE",
"62 410 CURVE SMOOTH",
"62 318 OFFCURVE",
"64 224 OFFCURVE",
"74 132 CURVE SMOOTH",
"80 80 OFFCURVE",
"128 67 OFFCURVE",
"170 67 CURVE SMOOTH",
"296 67 OFFCURVE",
"410 178 OFFCURVE",
"410 311 CURVE SMOOTH"
);
},
{
closed = 1;
nodes = (
"202 481 OFFCURVE",
"324 418 OFFCURVE",
"324 317 CURVE SMOOTH",
"324 248 OFFCURVE",
"272 178 OFFCURVE",
"208 143 CURVE SMOOTH",
"189 132 OFFCURVE",
"166 130 OFFCURVE",
"145 125 CURVE",
"145 160 OFFCURVE",
"128 191 OFFCURVE",
"128 220 CURVE SMOOTH",
"128 248 OFFCURVE",
"132 277 OFFCURVE",
"132 307 CURVE SMOOTH",
"132 370 OFFCURVE",
"120 434 OFFCURVE",
"120 491 CURVE"
);
}
);
width = 441;
}
);
unicode = 0064;
},
{
glyphname = e;
lastChange = "2019-03-20 21:42:08 +0000";
layers = (
{
hints = (
{
place = "{50, 78}";
type = Stem;
},
{
horizontal = 1;
place = "{36, 84}";
type = Stem;
},
{
horizontal = 1;
place = "{470, 62}";
type = Stem;
}
);
layerId = UUID0;
paths = (
{
closed = 1;
nodes = (
"304 523 OFFCURVE",
"262 532 OFFCURVE",
"233 532 CURVE SMOOTH",
"220 532 LINE",
"172 529 LINE SMOOTH",
"118 525 OFFCURVE",
"20 530 OFFCURVE",
"20 480 CURVE SMOOTH",
"20 458 OFFCURVE",
"50 449 OFFCURVE",
"50 419 CURVE SMOOTH",
"50 354 OFFCURVE",
"41 277 OFFCURVE",
"41 213 CURVE SMOOTH",
"41 119 OFFCURVE",
"77 36 OFFCURVE",
"170 36 CURVE SMOOTH",
"224 36 OFFCURVE",
"323 79 OFFCURVE",
"323 118 CURVE SMOOTH",
"323 136 OFFCURVE",
"315 140 OFFCURVE",
"305 140 CURVE SMOOTH",
"264 140 OFFCURVE",
"229 120 OFFCURVE",
"189 120 CURVE SMOOTH",
"125 120 OFFCURVE",
"132 176 OFFCURVE",
"128 225 CURVE",
"160 228 OFFCURVE",
"191 238 OFFCURVE",
"223 244 CURVE SMOOTH",
"258 251 OFFCURVE",
"323 247 OFFCURVE",
"323 288 CURVE SMOOTH",
"323 311 OFFCURVE",
"305 318 OFFCURVE",
"278 318 CURVE SMOOTH",
"230 318 OFFCURVE",
"177 311 OFFCURVE",
"128 304 CURVE",
"128 350 LINE SMOOTH",
"128 388 OFFCURVE",
"127 425 OFFCURVE",
"123 463 CURVE",
"160 467 OFFCURVE",
"197 470 OFFCURVE",
"234 470 CURVE SMOOTH",
"244 470 OFFCURVE",
"255 469 OFFCURVE",
"265 469 CURVE SMOOTH",
"283 469 OFFCURVE",
"303 473 OFFCURVE",
"304 489 CURVE"
);
}
);
width = 343;
}
);
unicode = 0065;
},
{
glyphname = f;
lastChange = "2019-03-20 21:42:08 +0000";
layers = (
{
hints = (
{
place = "{35, 72}";
type = Stem;
},
{
horizontal = 1;
place = "{236, 85}";
type = Stem;
}
);
layerId = UUID0;
paths = (
{
closed = 1;
nodes = (
"153 564 OFFCURVE",
"117 550 OFFCURVE",
"74 544 CURVE",
"49 538 OFFCURVE",
"30 539 OFFCURVE",
"30 494 CURVE SMOOTH",
"30 473 OFFCURVE",
"35 449 OFFCURVE",
"35 430 CURVE SMOOTH",
"35 348 OFFCURVE",
"35 266 OFFCURVE",
"41 184 CURVE SMOOTH",
"44 136 OFFCURVE",
"34 37 OFFCURVE",
"72 37 CURVE SMOOTH",
"104 37 OFFCURVE",
"101 87 OFFCURVE",
"102 123 CURVE SMOOTH",
"103 161 OFFCURVE",
"106 198 OFFCURVE",
"108 236 CURVE",
"176 243 OFFCURVE",
"308 237 OFFCURVE",
"308 296 CURVE SMOOTH",
"308 318 OFFCURVE",
"291 321 OFFCURVE",
"277 321 CURVE SMOOTH",
"222 321 OFFCURVE",
"167 312 OFFCURVE",
"112 311 CURVE",
"110 356 OFFCURVE",
"105 402 OFFCURVE",
"103 447 CURVE",
"135 456 OFFCURVE",
"169 454 OFFCURVE",
"201 462 CURVE SMOOTH",
"236 471 OFFCURVE",
"270 482 OFFCURVE",
"306 488 CURVE SMOOTH",
"325 491 OFFCURVE",
"373 491 OFFCURVE",
"373 521 CURVE SMOOTH",
"373 526 OFFCURVE",
"372 531 OFFCURVE",
"370 537 CURVE",
"359 565 OFFCURVE",
"268 565 OFFCURVE",
"195 565 CURVE SMOOTH"
);
}
);
width = 383;
}
);
unicode = 0066;
},
{
glyphname = g;
lastChange = "2019-03-20 21:42:08 +0000";
layers = (
{
hints = (
{
place = "{22, 92}";
type = Stem;
},
{
horizontal = 1;
place = "{45, 89}";
type = Stem;
},
{
horizontal = 1;
place = "{242, 93}";
type = Stem;
},
{
horizontal = 1;
place = "{412, 76}";
type = Stem;
}
);
layerId = UUID0;
paths = (
{
closed = 1;
nodes = (
"73 488 OFFCURVE",
"22 324 OFFCURVE",
"22 234 CURVE SMOOTH",
"22 150 OFFCURVE",
"62 45 OFFCURVE",
"172 45 CURVE SMOOTH",
"261 45 OFFCURVE",
"420 157 OFFCURVE",
"420 254 CURVE SMOOTH",
"420 317 OFFCURVE",
"355 335 OFFCURVE",
"308 335 CURVE SMOOTH",
"264 335 OFFCURVE",
"185 322 OFFCURVE",
"185 287 CURVE SMOOTH",
"185 237 OFFCURVE",
"280 245 OFFCURVE",
"335 242 CURVE",
"308 186 OFFCURVE",
"247 134 OFFCURVE",
"184 134 CURVE SMOOTH",
"123 134 OFFCURVE",
"114 197 OFFCURVE",
"114 240 CURVE SMOOTH",
"114 287 OFFCURVE",
"135 412 OFFCURVE",
"183 412 CURVE SMOOTH",
"200 412 OFFCURVE",
"214 382 OFFCURVE",
"227 382 CURVE SMOOTH",
"242 382 OFFCURVE",
"254 399 OFFCURVE",
"254 413 CURVE SMOOTH",
"254 456 OFFCURVE",
"221 488 OFFCURVE",
"177 488 CURVE SMOOTH"
);
}
);
width = 449;
}
);
unicode = 0067;
},
{
glyphname = h;
lastChange = "2019-03-20 21:42:08 +0000";
layers = (
{
hints = (
{
place = "{31, 110}";
type = Stem;
},
{
place = "{242, 119}";
type = Stem;
},
{
horizontal = 1;
place = "{62, 502}";
type = Stem;
}
);
layerId = UUID0;
paths = (
{
closed = 1;
nodes = (
"293 562 OFFCURVE",
"286 564 OFFCURVE",
"279 564 CURVE SMOOTH",
"245 564 OFFCURVE",
"242 514 OFFCURVE",
"242 478 CURVE SMOOTH",
"242 431 OFFCURVE",
"243 403 OFFCURVE",
"244 376 CURVE",
"209 376 OFFCURVE",
"175 374 OFFCURVE",
"141 373 CURVE",
"135 432 OFFCURVE",
"126 536 OFFCURVE",
"72 536 CURVE SMOOTH",
"35 536 OFFCURVE",
"30 496 OFFCURVE",
"30 457 CURVE SMOOTH",
"30 442 OFFCURVE",
"31 426 OFFCURVE",
"31 413 CURVE SMOOTH",
"31 360 OFFCURVE",
"34 305 OFFCURVE",
"47 252 CURVE SMOOTH",
"62 189 OFFCURVE",
"73 74 OFFCURVE",
"120 74 CURVE SMOOTH",
"143 74 OFFCURVE",
"147 90 OFFCURVE",
"147 110 CURVE SMOOTH",
"147 155 OFFCURVE",
"142 200 OFFCURVE",
"142 245 CURVE SMOOTH",
"142 262 OFFCURVE",
"143 280 OFFCURVE",
"145 298 CURVE",
"248 323 LINE",
"254 271 OFFCURVE",
"260 220 OFFCURVE",
"273 168 CURVE SMOOTH",
"281 133 OFFCURVE",
"288 62 OFFCURVE",
"326 62 CURVE SMOOTH",
"358 62 OFFCURVE",
"361 104 OFFCURVE",
"361 139 CURVE SMOOTH",
"361 163 LINE SMOOTH",
"361 199 OFFCURVE",
"366 233 OFFCURVE",
"366 268 CURVE SMOOTH",
"366 349 OFFCURVE",
"349 519 OFFCURVE",
"298 558 CURVE SMOOTH"
);
}
);
width = 386;
}
);
unicode = 0068;
},
{
glyphname = i;
lastChange = "2019-03-20 21:42:08 +0000";
layers = (
{
hints = (
{
place = "{30, 100}";
type = Stem;
},
{
horizontal = 1;
place = "{-58, 625}";
type = Stem;
}
);
layerId = UUID0;
paths = (
{
closed = 1;
nodes = (
"36 567 OFFCURVE",
"30 522 OFFCURVE",
"30 487 CURVE SMOOTH",
"31 329 OFFCURVE",
"38 185 OFFCURVE",
"60 43 CURVE SMOOTH",
"65 8 OFFCURVE",
"63 -58 OFFCURVE",
"104 -58 CURVE SMOOTH",
"132 -58 OFFCURVE",
"136 -37 OFFCURVE",
"136 -6 CURVE SMOOTH",
"136 41 OFFCURVE",
"130 82 OFFCURVE",
"130 127 CURVE SMOOTH",
"130 189 LINE SMOOTH",
"130 292 OFFCURVE",
"122 397 OFFCURVE",
"116 500 CURVE",
"112 532 OFFCURVE",
"107 567 OFFCURVE",
"73 567 CURVE SMOOTH"
);
}
);
width = 166;
}
);
unicode = 0069;
},
{
glyphname = j;
lastChange = "2019-03-20 21:42:08 +0000";
layers = (
{
hints = (
{
place = "{222, 114}";
type = Stem;
},
{
horizontal = 1;
place = "{30, 116}";
type = Stem;
}
);
layerId = UUID0;
paths = (
{
closed = 1;
nodes = (
"243 580 OFFCURVE",
"238 582 OFFCURVE",
"233 582 CURVE SMOOTH",
"199 582 OFFCURVE",
"190 544 OFFCURVE",
"190 513 CURVE SMOOTH",
"190 416 OFFCURVE",
"222 321 OFFCURVE",
"222 217 CURVE SMOOTH",
"222 183 OFFCURVE",
"221 146 OFFCURVE",
"192 146 CURVE SMOOTH",
"160 146 OFFCURVE",
"117 176 OFFCURVE",
"93 207 CURVE SMOOTH",
"79 225 OFFCURVE",
"75 268 OFFCURVE",
"46 268 CURVE SMOOTH",
"22 268 OFFCURVE",
"10 245 OFFCURVE",
"10 222 CURVE SMOOTH",
"10 126 OFFCURVE",
"101 30 OFFCURVE",
"202 30 CURVE SMOOTH",
"290 30 OFFCURVE",
"336 110 OFFCURVE",
"336 194 CURVE SMOOTH",
"336 302 OFFCURVE",
"307 413 OFFCURVE",
"271 541 CURVE SMOOTH",
"267 554 OFFCURVE",
"265 568 OFFCURVE",
"248 578 CURVE"
);
}
);
width = 356;
}
);
unicode = 006A;
},
{
glyphname = k;
lastChange = "2019-03-20 21:42:08 +0000";
layers = (
{
hints = (
{
place = "{30, 91}";
type = Stem;
},
{
horizontal = 1;
place = "{78, 507}";
type = Stem;
}
);
layerId = UUID0;
paths = (
{
closed = 1;
nodes = (
"360 569 OFFCURVE",
"349 585 OFFCURVE",
"328 585 CURVE SMOOTH",
"298 585 OFFCURVE",
"269 538 OFFCURVE",
"244 515 CURVE SMOOTH",
"203 477 OFFCURVE",
"159 442 OFFCURVE",
"117 406 CURVE",
"109 459 OFFCURVE",
"101 565 OFFCURVE",
"59 565 CURVE",
"31 558 OFFCURVE",
"30 532 OFFCURVE",
"30 503 CURVE SMOOTH",
"30 478 OFFCURVE",
"38 78 OFFCURVE",
"104 78 CURVE SMOOTH",
"126 78 OFFCURVE",
"128 104 OFFCURVE",
"128 119 CURVE SMOOTH",
"128 152 OFFCURVE",
"121 182 OFFCURVE",
"121 221 CURVE SMOOTH",
"121 255 OFFCURVE",
"122 288 OFFCURVE",
"122 322 CURVE",
"159 273 OFFCURVE",
"198 225 OFFCURVE",
"238 177 CURVE SMOOTH",
"269 139 OFFCURVE",
"325 84 OFFCURVE",
"369 84 CURVE SMOOTH",
"388 84 OFFCURVE",
"410 96 OFFCURVE",
"410 120 CURVE SMOOTH",
"410 136 OFFCURVE",
"400 151 OFFCURVE",
"393 165 CURVE SMOOTH",
"347 250 OFFCURVE",
"267 310 OFFCURVE",
"194 371 CURVE",
"251 421 OFFCURVE",
"360 493 OFFCURVE",
"360 551 CURVE SMOOTH"
);
}
);
width = 420;
}
);
unicode = 006B;
},
{
glyphname = l;
lastChange = "2019-03-20 21:42:08 +0000";
layers = (
{
hints = (
{
place = "{40, 114}";
type = Stem;
},
{
horizontal = 1;
place = "{55, 123}";
type = Stem;
}
);
layerId = UUID0;
paths = (
{
closed = 1;
nodes = (
"125 495 OFFCURVE",
"111 542 OFFCURVE",
"76 542 CURVE SMOOTH",
"49 542 OFFCURVE",
"47 517 OFFCURVE",
"47 493 CURVE SMOOTH",
"47 478 OFFCURVE",
"48 464 OFFCURVE",
"48 450 CURVE SMOOTH",
"48 384 OFFCURVE",
"40 319 OFFCURVE",
"40 244 CURVE SMOOTH",
"40 159 OFFCURVE",
"42 55 OFFCURVE",
"149 55 CURVE SMOOTH",
"158 55 OFFCURVE",
"399 56 OFFCURVE",
"399 134 CURVE SMOOTH",
"399 172 OFFCURVE",
"348 178 OFFCURVE",
"307 178 CURVE SMOOTH",
"259 178 OFFCURVE",
"211 173 OFFCURVE",
"154 167 CURVE",
"144 270 OFFCURVE",
"159 366 OFFCURVE",
"132 470 CURVE SMOOTH"
);
}
);
width = 409;
}
);
unicode = 006C;
},
{
glyphname = m;
lastChange = "2019-03-20 21:42:08 +0000";
layers = (
{
hints = (
{
place = "{160, 118}";
type = Stem;
},
{
horizontal = 1;
place = "{8, 567}";
type = Stem;
}
);
layerId = UUID0;
paths = (
{
closed = 1;
nodes = (
"272 400 OFFCURVE",
"274 575 OFFCURVE",
"185 575 CURVE SMOOTH",
"145 575 OFFCURVE",
"126 536 OFFCURVE",
"114 505 CURVE SMOOTH",
"66 384 OFFCURVE",
"40 254 OFFCURVE",
"16 125 CURVE SMOOTH",
"13 110 OFFCURVE",
"10 92 OFFCURVE",
"10 75 CURVE SMOOTH",
"10 48 OFFCURVE",
"21 33 OFFCURVE",
"43 33 CURVE SMOOTH",
"81 33 OFFCURVE",
"92 85 OFFCURVE",
"99 118 CURVE SMOOTH",
"118 203 OFFCURVE",
"136 288 OFFCURVE",
"160 372 CURVE",
"161 299 OFFCURVE",
"168 227 OFFCURVE",
"182 155 CURVE SMOOTH",
"190 115 OFFCURVE",
"205 56 OFFCURVE",
"257 56 CURVE SMOOTH",
"316 57 OFFCURVE",
"333 136 OFFCURVE",
"344 186 CURVE SMOOTH",
"360 260 OFFCURVE",
"380 341 OFFCURVE",
"419 408 CURVE",
"436 333 OFFCURVE",
"438 254 OFFCURVE",
"457 178 CURVE SMOOTH",
"471 119 OFFCURVE",
"501 8 OFFCURVE",
"546 8 CURVE SMOOTH",
"576 8 OFFCURVE",
"581 37 OFFCURVE",
"581 60 CURVE SMOOTH",
"581 94 OFFCURVE",
"569 123 OFFCURVE",
"569 159 CURVE SMOOTH",
"569 214 LINE SMOOTH",
"569 290 OFFCURVE",
"563 574 OFFCURVE",
"441 574 CURVE SMOOTH",
"351 574 OFFCURVE",
"311 430 OFFCURVE",
"278 349 CURVE"
);
}
);
width = 601;
}
);
unicode = 006D;
},
{
glyphname = n;
lastChange = "2019-03-20 21:42:08 +0000";
layers = (
{
hints = (
{
place = "{334, 121}";
type = Stem;
},
{
horizontal = 1;
place = "{659, -20}";
target = down;
type = TopGhost;
}
);
layerId = UUID0;
paths = (
{
closed = 1;
nodes = (
"448 634 OFFCURVE",
"437 659 OFFCURVE",
"412 659 CURVE SMOOTH",
"368 659 OFFCURVE",
"368 583 OFFCURVE",
"362 543 CURVE SMOOTH",
"350 459 OFFCURVE",
"342 375 OFFCURVE",
"334 290 CURVE",
"302 358 OFFCURVE",
"274 427 OFFCURVE",
"242 494 CURVE SMOOTH",
"224 532 OFFCURVE",
"198 589 OFFCURVE",
"155 589 CURVE SMOOTH",
"116 589 OFFCURVE",
"102 544 OFFCURVE",
"93 513 CURVE SMOOTH",
"67 420 OFFCURVE",
"49 322 OFFCURVE",
"28 228 CURVE SMOOTH",
"19 190 OFFCURVE",
"10 148 OFFCURVE",
"10 109 CURVE SMOOTH",
"10 92 OFFCURVE",
"15 64 OFFCURVE",
"40 64 CURVE SMOOTH",
"69 64 OFFCURVE",
"76 91 OFFCURVE",
"85 112 CURVE",
"120 227 OFFCURVE",
"133 344 OFFCURVE",
"156 459 CURVE",
"198 349 OFFCURVE",
"233 240 OFFCURVE",
"292 136 CURVE SMOOTH",
"307 109 OFFCURVE",
"329 79 OFFCURVE",
"365 79 CURVE SMOOTH",
"424 79 OFFCURVE",
"439 146 OFFCURVE",
"446 195 CURVE",
"452 263 OFFCURVE",
"455 331 OFFCURVE",
"455 399 CURVE SMOOTH",
"455 470 OFFCURVE",
"453 542 OFFCURVE",
"449 614 CURVE SMOOTH"
);
}
);
width = 495;
}
);
unicode = 006E;
},
{
glyphname = o;
lastChange = "2019-03-20 21:42:08 +0000";
layers = (
{
hints = (
{
place = "{20, 102}";
type = Stem;
},
{
place = "{224, 91}";
type = Stem;
},
{
horizontal = 1;
place = "{25, 100}";
type = Stem;
}
);
layerId = UUID0;
paths = (
{
closed = 1;
nodes = (
"41 530 OFFCURVE",
"48 493 OFFCURVE",
"44 467 CURVE SMOOTH",
"34 407 OFFCURVE",
"20 349 OFFCURVE",
"20 282 CURVE SMOOTH",
"20 193 OFFCURVE",
"46 25 OFFCURVE",
"169 25 CURVE SMOOTH",
"271 25 OFFCURVE",
"315 152 OFFCURVE",
"315 238 CURVE SMOOTH",
"315 349 OFFCURVE",
"261 428 OFFCURVE",
"166 494 CURVE SMOOTH",
"143 510 OFFCURVE",
"112 530 OFFCURVE",
"83 530 CURVE SMOOTH"
);
},
{
closed = 1;
nodes = (
"192 390 OFFCURVE",
"223 323 OFFCURVE",
"224 254 CURVE SMOOTH",
"224 251 OFFCURVE",
"220 125 OFFCURVE",
"171 125 CURVE SMOOTH",
"130 125 OFFCURVE",
"122 255 OFFCURVE",
"122 301 CURVE SMOOTH",
"122 344 OFFCURVE",
"125 387 OFFCURVE",
"132 429 CURVE"
);
}
);
width = 335;
}
);
unicode = 006F;
},
{
glyphname = p;
lastChange = "2019-03-20 21:42:08 +0000";
layers = (
{
hints = (
{
place = "{292, 79}";
type = Stem;
},
{
horizontal = 1;
place = "{-69, 21}";
target = up;
type = BottomGhost;
},
{
horizontal = 1;
place = "{431, 79}";
type = Stem;
}
);
layerId = UUID0;
paths = (
{
closed = 1;
nodes = (
"65 509 OFFCURVE",
"24 458 OFFCURVE",
"20 430 CURVE",
"20 394 OFFCURVE",
"58 393 OFFCURVE",
"61 372 CURVE SMOOTH",
"65 338 OFFCURVE",
"67 304 OFFCURVE",
"73 270 CURVE SMOOTH",
"89 171 OFFCURVE",
"106 72 OFFCURVE",
"131 -25 CURVE SMOOTH",
"135 -43 OFFCURVE",
"146 -69 OFFCURVE",
"170 -69 CURVE SMOOTH",
"205 -69 OFFCURVE",
"207 -30 OFFCURVE",
"207 -1 CURVE SMOOTH",
"207 49 LINE SMOOTH",
"207 110 OFFCURVE",
"201 172 OFFCURVE",
"195 234 CURVE",
"275 270 OFFCURVE",
"371 324 OFFCURVE",
"371 413 CURVE SMOOTH",
"371 486 OFFCURVE",
"300 510 OFFCURVE",
"235 510 CURVE SMOOTH",
"205 510 OFFCURVE",
"174 506 OFFCURVE",
"144 506 CURVE SMOOTH",
"127 506 OFFCURVE",
"109 509 OFFCURVE",
"92 509 CURVE SMOOTH"
);
},
{
closed = 1;
nodes = (
"261 431 OFFCURVE",
"292 429 OFFCURVE",
"292 413 CURVE SMOOTH",
"292 385 OFFCURVE",
"223 334 OFFCURVE",
"183 306 CURVE",
"156 425 LINE",
"179 428 OFFCURVE",
"201 431 OFFCURVE",
"240 431 CURVE SMOOTH"
);
}
);
width = 391;
}
);
unicode = 0070;
},
{
glyphname = q;
lastChange = "2019-03-20 21:42:08 +0000";
layers = (
{
hints = (
{
place = "{20, 98}";
type = Stem;
},
{
place = "{335, 96}";
type = Stem;
},
{
horizontal = 1;
place = "{8, 100}";
type = Stem;
},
{
horizontal = 1;
place = "{519, 147}";
type = Stem;
}
);
layerId = UUID0;
paths = (
{
closed = 1;
nodes = (
"179 647 OFFCURVE",
"161 666 OFFCURVE",
"135 666 CURVE SMOOTH",
"39 666 OFFCURVE",
"20 497 OFFCURVE",
"20 397 CURVE SMOOTH",
"20 327 OFFCURVE",
"31 256 OFFCURVE",
"53 190 CURVE SMOOTH",
"81 108 OFFCURVE",
"140 8 OFFCURVE",
"237 8 CURVE SMOOTH",
"289 8 OFFCURVE",
"325 37 OFFCURVE",
"360 68 CURVE",
"382 44 OFFCURVE",
"410 9 OFFCURVE",
"439 9 CURVE SMOOTH",
"459 9 OFFCURVE",
"466 21 OFFCURVE",
"466 35 CURVE SMOOTH",
"466 70 OFFCURVE",
"421 108 OFFCURVE",
"407 141 CURVE",
"407 157 OFFCURVE",
"415 174 OFFCURVE",
"419 189 CURVE SMOOTH",
"427 217 OFFCURVE",
"431 246 OFFCURVE",
"431 275 CURVE SMOOTH",
"431 391 OFFCURVE",
"375 517 OFFCURVE",
"277 582 CURVE SMOOTH",
"249 600 OFFCURVE",
"219 612 OFFCURVE",
"196 633 CURVE"
);
},
{
closed = 1;
nodes = (
"148 542 OFFCURVE",
"165 519 OFFCURVE",
"175 519 CURVE SMOOTH",
"188 519 OFFCURVE",
"202 531 OFFCURVE",
"214 531 CURVE SMOOTH",
"218 531 OFFCURVE",
"222 529 OFFCURVE",
"226 526 CURVE",
"294 470 OFFCURVE",
"335 383 OFFCURVE",
"335 296 CURVE SMOOTH",
"335 282 OFFCURVE",
"334 269 OFFCURVE",
"332 256 CURVE",
"293 300 OFFCURVE",
"251 384 OFFCURVE",
"205 384 CURVE SMOOTH",
"190 384 OFFCURVE",
"178 376 OFFCURVE",
"178 361 CURVE SMOOTH",
"178 336 OFFCURVE",
"192 312 OFFCURVE",
"202 292 CURVE SMOOTH",
"228 241 OFFCURVE",
"259 193 OFFCURVE",
"292 146 CURVE",
"276 131 OFFCURVE",
"258 108 OFFCURVE",
"236 108 CURVE SMOOTH",
"146 108 OFFCURVE",
"118 303 OFFCURVE",
"118 397 CURVE SMOOTH",
"118 449 OFFCURVE",
"124 502 OFFCURVE",
"140 551 CURVE"
);
}
);
width = 476;
}
);
unicode = 0071;
},
{
glyphname = r;
lastChange = "2019-03-20 21:42:08 +0000";
layers = (
{
hints = (
{
place = "{20, 83}";
type = Stem;
},
{
place = "{261, 58}";
type = Stem;
},
{
horizontal = 1;
place = "{579, 55}";
type = Stem;
}
);
layerId = UUID0;
paths = (
{
closed = 1;
nodes = (
"319 607 OFFCURVE",
"293 634 OFFCURVE",
"257 634 CURVE SMOOTH",
"196 634 OFFCURVE",
"128 589 OFFCURVE",
"86 543 CURVE",
"77 556 OFFCURVE",
"66 576 OFFCURVE",
"51 582 CURVE",
"25 582 OFFCURVE",
"20 561 OFFCURVE",
"20 520 CURVE SMOOTH",
"20 423 OFFCURVE",
"31 313 OFFCURVE",
"45 215 CURVE SMOOTH",
"54 155 OFFCURVE",
"52 43 OFFCURVE",
"97 43 CURVE SMOOTH",
"122 43 OFFCURVE",
"125 72 OFFCURVE",
"125 96 CURVE SMOOTH",
"125 119 OFFCURVE",
"122 143 OFFCURVE",
"121 165 CURVE SMOOTH",
"118 217 OFFCURVE",
"120 269 OFFCURVE",
"118 320 CURVE",
"151 267 OFFCURVE",
"192 220 OFFCURVE",
"230 171 CURVE SMOOTH",
"263 128 OFFCURVE",
"318 62 OFFCURVE",
"358 62 CURVE SMOOTH",
"384 62 OFFCURVE",
"395 85 OFFCURVE",
"395 106 CURVE SMOOTH",
"395 137 OFFCURVE",
"374 152 OFFCURVE",
"358 172 CURVE SMOOTH",
"341 193 OFFCURVE",
"327 217 OFFCURVE",
"309 237 CURVE SMOOTH",
"268 281 OFFCURVE",
"215 319 OFFCURVE",
"168 357 CURVE",
"232 416 OFFCURVE",
"319 495 OFFCURVE",
"319 574 CURVE SMOOTH"
);
},
{
closed = 1;
nodes = (
"251 579 OFFCURVE",
"261 575 OFFCURVE",
"261 565 CURVE SMOOTH",
"261 529 OFFCURVE",
"167 425 OFFCURVE",
"113 371 CURVE",
"109 404 OFFCURVE",
"103 438 OFFCURVE",
"103 471 CURVE SMOOTH",
"103 515 OFFCURVE",
"202 579 OFFCURVE",
"244 579 CURVE SMOOTH"
);
}
);
width = 405;
}
);
unicode = 0072;
},
{
glyphname = s;
lastChange = "2019-03-20 21:42:08 +0000";
layers = (
{
hints = (
{
place = "{245, 132}";
type = Stem;
},
{
horizontal = 1;
place = "{27, 119}";
type = Stem;
}
);
layerId = UUID0;
paths = (
{
closed = 1;
nodes = (
"240 561 OFFCURVE",
"204 571 OFFCURVE",
"169 571 CURVE SMOOTH",
"120 571 OFFCURVE",
"50 551 OFFCURVE",
"50 488 CURVE SMOOTH",
"50 404 OFFCURVE",
"245 334 OFFCURVE",
"245 207 CURVE SMOOTH",
"245 170 OFFCURVE",
"216 146 OFFCURVE",
"181 146 CURVE SMOOTH",
"158 146 OFFCURVE",
"134 151 OFFCURVE",
"112 159 CURVE",
"90 166 OFFCURVE",
"70 189 OFFCURVE",
"48 189 CURVE SMOOTH",
"30 189 OFFCURVE",
"20 178 OFFCURVE",
"20 155 CURVE SMOOTH",
"20 81 OFFCURVE",
"134 27 OFFCURVE",
"211 27 CURVE SMOOTH",
"301 27 OFFCURVE",
"377 99 OFFCURVE",
"377 195 CURVE SMOOTH",
"377 317 OFFCURVE",
"272 401 OFFCURVE",
"187 471 CURVE",
"216 469 OFFCURVE",
"254 457 OFFCURVE",
"277 457 CURVE SMOOTH",
"293 457 OFFCURVE",
"305 467 OFFCURVE",
"305 484 CURVE SMOOTH",
"305 510 OFFCURVE",
"287 529 OFFCURVE",
"268 542 CURVE SMOOTH"
);
}
);
width = 397;
}
);
unicode = 0073;
},
{
glyphname = t;
lastChange = "2019-03-20 21:42:08 +0000";
layers = (
{
hints = (
{
place = "{10, 446}";
type = Stem;
},
{
place = "{192, 106}";
type = Stem;
},
{
horizontal = 1;
place = "{453, 80}";
type = Stem;
}
);
layerId = UUID0;
paths = (
{
closed = 1;
nodes = (
"35 525 OFFCURVE",
"10 519 OFFCURVE",
"10 499 CURVE SMOOTH",
"10 443 OFFCURVE",
"129 457 OFFCURVE",
"192 453 CURVE",
"195 367 OFFCURVE",
"200 283 OFFCURVE",
"212 196 CURVE SMOOTH",
"220 139 OFFCURVE",
"220 28 OFFCURVE",
"264 28 CURVE SMOOTH",
"291 28 OFFCURVE",
"295 71 OFFCURVE",
"295 123 CURVE SMOOTH",
"295 143 OFFCURVE",
"294 163 OFFCURVE",
"294 184 CURVE SMOOTH",
"294 202 OFFCURVE",
"294 220 OFFCURVE",
"296 236 CURVE",
"297 249 OFFCURVE",
"298 262 OFFCURVE",
"298 275 CURVE SMOOTH",
"298 337 OFFCURVE",
"285 396 OFFCURVE",
"270 457 CURVE",
"311 461 OFFCURVE",
"351 463 OFFCURVE",
"391 468 CURVE SMOOTH",
"414 471 OFFCURVE",
"456 471 OFFCURVE",
"456 501 CURVE SMOOTH",
"456 530 OFFCURVE",
"398 526 OFFCURVE",
"372 528 CURVE SMOOTH",
"314 531 OFFCURVE",
"254 533 OFFCURVE",
"195 533 CURVE SMOOTH",
"146 533 OFFCURVE",
"98 531 OFFCURVE",
"50 526 CURVE"
);
}
);
width = 466;
}
);
unicode = 0074;
},
{
glyphname = u;
lastChange = "2019-03-20 21:42:08 +0000";
layers = (
{
hints = (
{
place = "{20, 285}";
type = Stem;
},
{
horizontal = 1;
place = "{16, 76}";
type = Stem;
}
);
layerId = UUID0;
paths = (
{
closed = 1;
nodes = (
"250 541 OFFCURVE",
"245 523 OFFCURVE",
"243 510 CURVE SMOOTH",
"220 373 OFFCURVE",
"216 92 OFFCURVE",
"175 92 CURVE SMOOTH",
"141 92 OFFCURVE",
"110 321 OFFCURVE",
"91 432 CURVE SMOOTH",
"85 465 OFFCURVE",
"83 534 OFFCURVE",
"50 534 CURVE SMOOTH",
"23 534 OFFCURVE",
"20 504 OFFCURVE",
"20 476 CURVE SMOOTH",
"20 413 OFFCURVE",
"33 347 OFFCURVE",
"45 285 CURVE SMOOTH",
"63 187 OFFCURVE",
"93 16 OFFCURVE",
"175 16 CURVE SMOOTH",
"282 16 OFFCURVE",
"305 255 OFFCURVE",
"305 373 CURVE SMOOTH",
"305 425 OFFCURVE",
"301 541 OFFCURVE",
"267 541 CURVE SMOOTH"
);
}
);
width = 325;
}
);
unicode = 0075;
},
{
glyphname = v;
lastChange = "2019-03-20 21:42:08 +0000";
layers = (
{
hints = (
{
place = "{10, 366}";
type = Stem;
},
{
horizontal = 1;
place = "{604, -20}";
target = down;
type = TopGhost;
}
);
layerId = UUID0;
paths = (
{
closed = 1;
nodes = (
"314 604 OFFCURVE",
"303 562 OFFCURVE",
"297 539 CURVE SMOOTH",
"282 488 OFFCURVE",
"261 439 OFFCURVE",
"245 388 CURVE SMOOTH",
"227 328 OFFCURVE",
"215 267 OFFCURVE",
"197 206 CURVE",
"178 251 OFFCURVE",
"162 296 OFFCURVE",
"145 342 CURVE SMOOTH",
"123 403 OFFCURVE",
"98 513 OFFCURVE",
"43 513 CURVE SMOOTH",
"21 513 OFFCURVE",
"10 494 OFFCURVE",
"10 474 CURVE SMOOTH",
"10 414 OFFCURVE",
"35 342 OFFCURVE",
"50 282 CURVE SMOOTH",
"74 184 OFFCURVE",
"119 7 OFFCURVE",
"203 7 CURVE SMOOTH",
"259 7 OFFCURVE",
"280 64 OFFCURVE",
"291 112 CURVE SMOOTH",
"317 232 OFFCURVE",
"340 351 OFFCURVE",
"360 473 CURVE SMOOTH",
"365 505 OFFCURVE",
"376 537 OFFCURVE",
"376 569 CURVE SMOOTH",
"376 600 OFFCURVE",
"360 604 OFFCURVE",
"339 604 CURVE SMOOTH"
);
}
);
width = 386;
}
);
unicode = 0076;
},
{
glyphname = w;
lastChange = "2019-03-20 21:42:08 +0000";
layers = (
{
hints = (
{
place = "{33, 170}";
type = Stem;
},
{
horizontal = 1;
place = "{-24, 533}";
type = Stem;
}
);
layerId = UUID0;
paths = (
{
closed = 1;
nodes = (
"481 458 OFFCURVE",
"481 509 OFFCURVE",
"450 509 CURVE SMOOTH",
"412 508 OFFCURVE",
"409 435 OFFCURVE",
"401 397 CURVE SMOOTH",
"384 315 OFFCURVE",
"376 233 OFFCURVE",
"361 151 CURVE",
"332 239 OFFCURVE",
"306 407 OFFCURVE",
"239 407 CURVE SMOOTH",
"206 407 OFFCURVE",
"192 369 OFFCURVE",
"183 343 CURVE SMOOTH",
"158 274 OFFCURVE",
"141 202 OFFCURVE",
"121 132 CURVE",
"110 227 OFFCURVE",
"108 326 OFFCURVE",
"93 421 CURVE",
"90 436 OFFCURVE",
"87 455 OFFCURVE",
"61 455 CURVE SMOOTH",
"28 455 OFFCURVE",
"31 413 OFFCURVE",
"30 391 CURVE",
"32 347 OFFCURVE",
"33 302 OFFCURVE",
"33 258 CURVE SMOOTH",
"33 166 OFFCURVE",
"37 -13 OFFCURVE",
"113 -13 CURVE SMOOTH",
"148 -13 OFFCURVE",
"165 23 OFFCURVE",
"174 53 CURVE SMOOTH",
"197 129 OFFCURVE",
"209 207 OFFCURVE",
"233 283 CURVE",
"250 218 OFFCURVE",
"265 153 OFFCURVE",
"285 89 CURVE SMOOTH",
"299 43 OFFCURVE",
"320 -24 OFFCURVE",
"375 -24 CURVE SMOOTH",
"465 -24 OFFCURVE",
"484 205 OFFCURVE",
"484 335 CURVE SMOOTH",
"484 370 OFFCURVE",
"481 404 OFFCURVE",
"481 439 CURVE SMOOTH"
);
}
);
width = 504;
}
);
unicode = 0077;
},
{
glyphname = x;
lastChange = "2019-03-20 21:42:08 +0000";
layers = (
{
hints = (
{
place = "{20, 304}";
type = Stem;
},
{
horizontal = 1;
place = "{-21, 561}";
type = Stem;
}
);
layerId = UUID0;
paths = (
{
closed = 1;
nodes = (
"281 526 OFFCURVE",
"269 540 OFFCURVE",
"253 540 CURVE SMOOTH",
"244 540 OFFCURVE",
"235 536 OFFCURVE",
"229 529 CURVE SMOOTH",
"218 516 OFFCURVE",
"211 498 OFFCURVE",
"204 482 CURVE",
"162 365 LINE",
"138 393 OFFCURVE",
"117 422 OFFCURVE",
"94 450 CURVE SMOOTH",
"82 464 OFFCURVE",
"67 480 OFFCURVE",
"45 480 CURVE SMOOTH",
"34 480 OFFCURVE",
"20 473 OFFCURVE",
"20 457 CURVE SMOOTH",
"20 444 OFFCURVE",
"26 430 OFFCURVE",
"32 418 CURVE SMOOTH",
"52 378 OFFCURVE",
"76 338 OFFCURVE",
"103 302 CURVE",
"112 291 OFFCURVE",
"122 279 OFFCURVE",
"127 265 CURVE",
"127 251 OFFCURVE",
"123 238 OFFCURVE",
"120 225 CURVE",
"106 174 OFFCURVE",
"96 124 OFFCURVE",
"86 73 CURVE SMOOTH",
"83 55 OFFCURVE",
"80 36 OFFCURVE",
"80 17 CURVE SMOOTH",
"80 0 OFFCURVE",
"82 -21 OFFCURVE",
"106 -21 CURVE SMOOTH",
"126 -21 OFFCURVE",
"137 8 OFFCURVE",
"143 27 CURVE SMOOTH",
"160 83 OFFCURVE",
"177 139 OFFCURVE",
"196 195 CURVE",
"221 173 OFFCURVE",
"243 148 OFFCURVE",
"268 126 CURVE SMOOTH",
"277 118 OFFCURVE",
"290 109 OFFCURVE",
"302 109 CURVE SMOOTH",
"314 109 OFFCURVE",
"324 118 OFFCURVE",
"324 131 CURVE SMOOTH",
"324 138 OFFCURVE",
"322 146 OFFCURVE",
"318 151 CURVE",
"289 193 OFFCURVE",
"253 233 OFFCURVE",
"228 278 CURVE",
"226 281 OFFCURVE",
"225 284 OFFCURVE",
"225 288 CURVE SMOOTH",
"225 296 OFFCURVE",
"229 304 OFFCURVE",
"230 311 CURVE",
"247 363 OFFCURVE",
"263 416 OFFCURVE",
"276 469 CURVE SMOOTH",
"279 480 OFFCURVE",
"281 493 OFFCURVE",
"281 505 CURVE SMOOTH"
);
}
);
width = 344;
}
);
unicode = 0078;
},
{
glyphname = y;
lastChange = "2019-03-20 21:42:08 +0000";
layers = (
{
hints = (
{
place = "{250, 109}";
type = Stem;
},
{
place = "{252, 90}";
type = Stem;
},
{
horizontal = 1;
place = "{-45, 577}";
type = Stem;
}
);
layerId = UUID0;
paths = (
{
closed = 1;
nodes = (
"341 494 OFFCURVE",
"333 532 OFFCURVE",
"305 532 CURVE SMOOTH",
"289 532 OFFCURVE",
"279 519 OFFCURVE",
"273 503 CURVE",
"256 448 OFFCURVE",
"260 384 OFFCURVE",
"252 327 CURVE",
"89 465 LINE",
"75 476 OFFCURVE",
"57 490 OFFCURVE",
"36 490 CURVE SMOOTH",
"24 490 OFFCURVE",
"14 479 OFFCURVE",
"10 467 CURVE",
"10 452 OFFCURVE",
"22 437 OFFCURVE",
"32 426 CURVE SMOOTH",
"62 391 OFFCURVE",
"89 356 OFFCURVE",
"123 325 CURVE SMOOTH",
"162 291 OFFCURVE",
"207 263 OFFCURVE",
"250 234 CURVE",
"250 189 LINE SMOOTH",
"250 148 OFFCURVE",
"251 107 OFFCURVE",
"252 66 CURVE",
"255 40 OFFCURVE",
"256 12 OFFCURVE",
"264 -14 CURVE",
"270 -30 OFFCURVE",
"284 -45 OFFCURVE",
"304 -45 CURVE SMOOTH",
"323 -45 OFFCURVE",
"338 -28 OFFCURVE",
"341 -10 CURVE",
"342 -2 OFFCURVE",
"342 5 OFFCURVE",
"342 39 CURVE SMOOTH",
"342 48 OFFCURVE",
"342 56 OFFCURVE",
"343 65 CURVE SMOOTH",
"351 129 OFFCURVE",
"359 192 OFFCURVE",
"359 279 CURVE SMOOTH",
"359 342 OFFCURVE",
"355 406 OFFCURVE",
"344 475 CURVE SMOOTH"
);
}
);
width = 379;
}
);
unicode = 0079;
},
{
glyphname = z;
lastChange = "2019-03-20 21:42:08 +0000";
layers = (
{
hints = (
{
place = "{10, 453}";
type = Stem;
},
{
horizontal = 1;
place = "{66, 437}";
type = Stem;
}
);
layerId = UUID0;
paths = (
{
closed = 1;
nodes = (
"182 503 OFFCURVE",
"10 460 OFFCURVE",
"10 406 CURVE SMOOTH",
"10 391 OFFCURVE",
"15 377 OFFCURVE",
"31 377 CURVE SMOOTH",
"55 377 OFFCURVE",
"79 389 OFFCURVE",
"100 397 CURVE SMOOTH",
"135 410 OFFCURVE",
"170 422 OFFCURVE",
"209 428 CURVE",
"197 334 OFFCURVE",
"139 240 OFFCURVE",
"139 145 CURVE SMOOTH",
"139 101 OFFCURVE",
"167 66 OFFCURVE",
"219 66 CURVE SMOOTH",
"270 66 OFFCURVE",
"328 87 OFFCURVE",
"378 107 CURVE SMOOTH",
"412 120 OFFCURVE",
"463 142 OFFCURVE",
"463 181 CURVE SMOOTH",
"463 190 OFFCURVE",
"458 201 OFFCURVE",
"444 201 CURVE SMOOTH",
"430 201 OFFCURVE",
"409 191 OFFCURVE",
"391 184 CURVE SMOOTH",
"338 165 OFFCURVE",
"279 159 OFFCURVE",
"224 151 CURVE",
"242 234 OFFCURVE",
"278 310 OFFCURVE",
"290 394 CURVE SMOOTH",
"291 401 OFFCURVE",
"291 408 OFFCURVE",
"291 415 CURVE SMOOTH",
"291 461 OFFCURVE",
"266 501 OFFCURVE",
"219 503 CURVE"
);
}
);
width = 428;
}
);
unicode = 007A;
},
{
glyphname = zero;
lastChange = "2019-03-20 21:42:08 +0000";
layers = (
{
hints = (
{
place = "{20, 123}";
type = Stem;
},
{
place = "{286, 88}";
type = Stem;
},
{
horizontal = 1;
place = "{85, 126}";
type = Stem;
}
);
layerId = UUID0;
paths = (
{
closed = 1;
nodes = (
"374 539 OFFCURVE",
"290 653 OFFCURVE",
"127 653 CURVE SMOOTH",
"96 653 OFFCURVE",
"50 646 OFFCURVE",
"50 607 CURVE SMOOTH",
"50 592 OFFCURVE",
"70 584 OFFCURVE",
"80 574 CURVE",
"44 488 OFFCURVE",
"20 405 OFFCURVE",
"20 310 CURVE SMOOTH",
"20 224 OFFCURVE",
"64 85 OFFCURVE",
"179 85 CURVE SMOOTH",
"307 85 OFFCURVE",
"374 268 OFFCURVE",
"374 388 CURVE SMOOTH"
);
},
{
closed = 1;
nodes = (
"254 562 OFFCURVE",
"286 489 OFFCURVE",
"286 421 CURVE SMOOTH",
"286 355 OFFCURVE",
"250 211 OFFCURVE",
"187 211 CURVE SMOOTH",
"154 211 OFFCURVE",
"143 291 OFFCURVE",
"143 329 CURVE SMOOTH",
"143 408 OFFCURVE",
"153 514 OFFCURVE",
"182 575 CURVE"
);
}
);
width = 394;
}
);
unicode = 0030;
},
{
glyphname = one;
lastChange = "2019-03-20 21:42:08 +0000";
layers = (
{
hints = (
{
place = "{44, 109}";
type = Stem;
},
{
horizontal = 1;
place = "{50, 597}";
type = Stem;
}
);
layerId = UUID0;
paths = (
{
closed = 1;
nodes = (
"134 588 OFFCURVE",
"128 647 OFFCURVE",
"84 647 CURVE SMOOTH",
"42 647 OFFCURVE",
"40 604 OFFCURVE",
"40 566 CURVE SMOOTH",
"40 522 OFFCURVE",
"43 488 OFFCURVE",
"44 456 CURVE SMOOTH",
"46 348 OFFCURVE",
"56 50 OFFCURVE",
"109 50 CURVE SMOOTH",
"142 50 OFFCURVE",
"140 114 OFFCURVE",
"145 149 CURVE SMOOTH",
"151 197 OFFCURVE",
"153 245 OFFCURVE",
"153 292 CURVE SMOOTH",
"153 380 OFFCURVE",
"144 468 OFFCURVE",
"136 557 CURVE SMOOTH"
);
}
);
width = 193;
}
);
unicode = 0031;
},
{
glyphname = two;
lastChange = "2019-03-20 21:42:08 +0000";
layers = (
{
hints = (
{
place = "{177, 84}";
type = Stem;
},
{
horizontal = 1;
place = "{567, 81}";
type = Stem;
}
);
layerId = UUID0;
paths = (
{
closed = 1;
nodes = (
"261 597 OFFCURVE",
"238 648 OFFCURVE",
"182 648 CURVE SMOOTH",
"132 648 OFFCURVE",
"10 599 OFFCURVE",
"10 526 CURVE SMOOTH",
"10 505 OFFCURVE",
"25 490 OFFCURVE",
"43 490 CURVE SMOOTH",
"49 490 OFFCURVE",
"56 492 OFFCURVE",
"61 497 CURVE",
"96 527 OFFCURVE",
"115 561 OFFCURVE",
"177 567 CURVE",
"177 523 OFFCURVE",
"164 485 OFFCURVE",
"150 445 CURVE SMOOTH",
"120 361 OFFCURVE",
"80 280 OFFCURVE",
"51 196 CURVE SMOOTH",
"45 180 OFFCURVE",
"39 162 OFFCURVE",
"39 146 CURVE SMOOTH",
"39 101 OFFCURVE",
"79 84 OFFCURVE",
"118 84 CURVE SMOOTH",
"155 84 OFFCURVE",
"193 90 OFFCURVE",
"238 99 CURVE SMOOTH",
"312 113 OFFCURVE",
"446 123 OFFCURVE",
"446 188 CURVE SMOOTH",
"446 222 OFFCURVE",
"409 228 OFFCURVE",
"377 228 CURVE SMOOTH",
"297 228 OFFCURVE",
"217 197 OFFCURVE",
"138 183 CURVE",
"174 283 OFFCURVE",
"224 381 OFFCURVE",
"252 487 CURVE SMOOTH",
"258 508 OFFCURVE",
"261 531 OFFCURVE",
"261 554 CURVE SMOOTH"
);
}
);
width = 456;
}
);
unicode = 0032;
},
{
glyphname = three;
lastChange = "2019-03-20 21:42:08 +0000";
layers = (
{
hints = (
{
place = "{309, 78}";
type = Stem;
},
{
horizontal = 1;
place = "{65, 83}";
type = Stem;
},
{
horizontal = 1;
place = "{355, 69}";
type = Stem;
},
{
horizontal = 1;
place = "{572, 80}";
type = Stem;
}
);
layerId = UUID0;
paths = (
{
closed = 1;
nodes = (
"240 652 OFFCURVE",
"76 628 OFFCURVE",
"76 563 CURVE SMOOTH",
"76 542 OFFCURVE",
"89 525 OFFCURVE",
"109 525 CURVE SMOOTH",
"122 525 OFFCURVE",
"136 532 OFFCURVE",
"148 538 CURVE SMOOTH",
"188 557 OFFCURVE",
"232 568 OFFCURVE",
"277 572 CURVE",
"247 507 OFFCURVE",
"200 450 OFFCURVE",
"147 397 CURVE SMOOTH",
"137 387 OFFCURVE",
"126 376 OFFCURVE",
"126 362 CURVE SMOOTH",
"126 346 OFFCURVE",
"135 333 OFFCURVE",
"150 333 CURVE SMOOTH",
"185 333 OFFCURVE",
"208 355 OFFCURVE",
"248 355 CURVE SMOOTH",
"273 355 OFFCURVE",
"307 349 OFFCURVE",
"309 320 CURVE",
"309 260 OFFCURVE",
"208 148 OFFCURVE",
"122 148 CURVE SMOOTH",
"83 148 OFFCURVE",
"55 184 OFFCURVE",
"36 184 CURVE SMOOTH",
"24 184 OFFCURVE",
"10 173 OFFCURVE",
"10 163 CURVE SMOOTH",
"10 108 OFFCURVE",
"94 65 OFFCURVE",
"154 65 CURVE SMOOTH",
"257 65 OFFCURVE",
"387 198 OFFCURVE",
"387 308 CURVE SMOOTH",
"387 390 OFFCURVE",
"329 415 OFFCURVE",
"261 424 CURVE",
"299 472 OFFCURVE",
"356 535 OFFCURVE",
"356 590 CURVE SMOOTH",
"356 630 OFFCURVE",
"323 652 OFFCURVE",
"281 652 CURVE SMOOTH"
);
}
);
width = 407;
}
);
unicode = 0033;
},
{
glyphname = four;
lastChange = "2019-03-20 21:42:08 +0000";
layers = (
{
hints = (
{
place = "{206, 108}";
type = Stem;
},
{
place = "{213, 96}";
type = Stem;
},
{
horizontal = 1;
place = "{43, 572}";
type = Stem;
}
);
layerId = UUID0;
paths = (
{
closed = 1;
nodes = (
"261 611 OFFCURVE",
"251 615 OFFCURVE",
"242 615 CURVE SMOOTH",
"216 615 OFFCURVE",
"197 580 OFFCURVE",
"180 562 CURVE SMOOTH",
"120 498 OFFCURVE",
"5 407 OFFCURVE",
"5 347 CURVE SMOOTH",
"5 320 OFFCURVE",
"24 302 OFFCURVE",
"56 302 CURVE SMOOTH",
"106 302 OFFCURVE",
"155 319 OFFCURVE",
"206 325 CURVE",
"207 276 OFFCURVE",
"209 227 OFFCURVE",
"215 179 CURVE SMOOTH",
"221 135 OFFCURVE",
"214 43 OFFCURVE",
"268 43 CURVE SMOOTH",
"286 43 OFFCURVE",
"306 56 OFFCURVE",
"307 77 CURVE SMOOTH",
"310 140 OFFCURVE",
"314 203 OFFCURVE",
"314 266 CURVE SMOOTH",
"314 320 OFFCURVE",
"314 334 OFFCURVE",
"315 348 CURVE",
"359 360 OFFCURVE",
"430 362 OFFCURVE",
"439 395 CURVE",
"433 418 OFFCURVE",
"416 418 OFFCURVE",
"393 418 CURVE SMOOTH",
"365 418 OFFCURVE",
"337 414 OFFCURVE",
"309 414 CURVE",
"302 480 OFFCURVE",
"295 541 OFFCURVE",
"266 602 CURVE"
);
},
{
closed = 1;
nodes = (
"213 440 OFFCURVE",
"213 420 OFFCURVE",
"211 399 CURVE",
"175 390 OFFCURVE",
"139 385 OFFCURVE",
"103 378 CURVE",
"138 419 OFFCURVE",
"174 460 OFFCURVE",
"213 497 CURVE",
"213 461 LINE SMOOTH"
);
}
);
width = 444;
}
);
unicode = 0034;
},
{
glyphname = five;
lastChange = "2019-03-20 21:42:08 +0000";
layers = (
{
hints = (
{
place = "{29, 98}";
type = Stem;
},
{
place = "{329, 96}";
type = Stem;
},
{
horizontal = 1;
place = "{50, 91}";
type = Stem;
},
{
horizontal = 1;
place = "{368, 82}";
type = Stem;
}
);
layerId = UUID0;
paths = (
{
closed = 1;
nodes = (
"285 644 OFFCURVE",
"252 630 OFFCURVE",
"219 625 CURVE",
"183 617 OFFCURVE",
"141 616 OFFCURVE",
"108 599 CURVE SMOOTH",
"81 584 OFFCURVE",
"70 557 OFFCURVE",
"63 529 CURVE SMOOTH",
"50 477 OFFCURVE",
"29 417 OFFCURVE",
"29 365 CURVE SMOOTH",
"29 332 OFFCURVE",
"46 309 OFFCURVE",
"74 309 CURVE SMOOTH",
"93 309 OFFCURVE",
"119 328 OFFCURVE",
"124 331 CURVE",
"157 353 OFFCURVE",
"208 368 OFFCURVE",
"255 368 CURVE SMOOTH",
"287 368 OFFCURVE",
"329 359 OFFCURVE",
"329 316 CURVE SMOOTH",
"329 260 OFFCURVE",
"278 214 OFFCURVE",
"232 187 CURVE SMOOTH",
"199 168 OFFCURVE",
"150 141 OFFCURVE",
"113 141 CURVE SMOOTH",
"96 141 OFFCURVE",
"79 159 OFFCURVE",
"62 159 CURVE SMOOTH",
"36 159 OFFCURVE",
"20 130 OFFCURVE",
"20 109 CURVE SMOOTH",
"20 62 OFFCURVE",
"73 50 OFFCURVE",
"109 50 CURVE SMOOTH",
"183 50 OFFCURVE",
"256 62 OFFCURVE",
"317 108 CURVE SMOOTH",
"377 154 OFFCURVE",
"425 226 OFFCURVE",
"425 303 CURVE SMOOTH",
"425 392 OFFCURVE",
"359 450 OFFCURVE",
"266 450 CURVE SMOOTH",
"215 450 OFFCURVE",
"173 440 OFFCURVE",
"127 423 CURVE",
"130 458 OFFCURVE",
"133 494 OFFCURVE",
"145 527 CURVE SMOOTH",
"148 536 OFFCURVE",
"159 537 OFFCURVE",
"167 540 CURVE",
"227 553 OFFCURVE",
"346 560 OFFCURVE",
"346 618 CURVE SMOOTH",
"346 630 OFFCURVE",
"330 645 OFFCURVE",
"318 645 CURVE SMOOTH"
);
}
);
width = 445;
}
);
unicode = 0035;
},
{
glyphname = six;
lastChange = "2019-03-20 21:42:08 +0000";
layers = (
{
hints = (
{
place = "{343, 65}";
type = Stem;
},
{
horizontal = 1;
place = "{60, 583}";
type = Stem;
}
);
layerId = UUID0;
paths = (
{
closed = 1;
nodes = (
"25 643 OFFCURVE",
"20 593 OFFCURVE",
"20 541 CURVE SMOOTH",
"20 409 OFFCURVE",
"21 60 OFFCURVE",
"221 60 CURVE SMOOTH",
"342 60 OFFCURVE",
"408 208 OFFCURVE",
"408 318 CURVE SMOOTH",
"408 374 OFFCURVE",
"390 452 OFFCURVE",
"334 452 CURVE SMOOTH",
"245 452 OFFCURVE",
"209 289 OFFCURVE",
"186 178 CURVE",
"117 250 OFFCURVE",
"105 414 OFFCURVE",
"96 532 CURVE SMOOTH",
"93 569 OFFCURVE",
"95 643 OFFCURVE",
"57 643 CURVE SMOOTH"
);
},
{
closed = 1;
nodes = (
"339 373 OFFCURVE",
"343 355 OFFCURVE",
"343 337 CURVE SMOOTH",
"343 269 OFFCURVE",
"306 182 OFFCURVE",
"237 155 CURVE",
"248 209 OFFCURVE",
"285 358 OFFCURVE",
"331 389 CURVE"
);
}
);
width = 428;
}
);
unicode = 0036;
},
{
glyphname = seven;
lastChange = "2019-03-20 21:42:08 +0000";
layers = (
{
hints = (
{
place = "{204, 107}";
type = Stem;
},
{
place = "{214, 108}";
type = Stem;
},
{
horizontal = 1;
place = "{544, 57}";
type = Stem;
}
);
layerId = UUID0;
paths = (
{
closed = 1;
nodes = (
"328 585 OFFCURVE",
"327 647 OFFCURVE",
"282 647 CURVE SMOOTH",
"262 647 OFFCURVE",
"239 634 OFFCURVE",
"220 628 CURVE SMOOTH",
"171 612 OFFCURVE",
"112 601 OFFCURVE",
"58 601 CURVE",
"39 599 OFFCURVE",
"10 596 OFFCURVE",
"10 570 CURVE SMOOTH",
"10 547 OFFCURVE",
"33 544 OFFCURVE",
"51 544 CURVE SMOOTH",
"127 544 OFFCURVE",
"184 558 OFFCURVE",
"244 569 CURVE",
"233 504 OFFCURVE",
"221 440 OFFCURVE",
"214 375 CURVE",
"154 365 OFFCURVE",
"34 365 OFFCURVE",
"34 317 CURVE SMOOTH",
"34 300 OFFCURVE",
"43 290 OFFCURVE",
"66 290 CURVE SMOOTH",
"111 290 OFFCURVE",
"158 303 OFFCURVE",
"204 304 CURVE",
"204 231 LINE SMOOTH",
"204 182 OFFCURVE",
"217 134 OFFCURVE",
"221 85 CURVE SMOOTH",
"223 66 OFFCURVE",
"227 44 OFFCURVE",
"254 44 CURVE SMOOTH",
"283 44 OFFCURVE",
"284 81 OFFCURVE",
"288 103 CURVE SMOOTH",
"294 139 OFFCURVE",
"301 174 OFFCURVE",
"306 210 CURVE SMOOTH",
"310 246 OFFCURVE",
"310 281 OFFCURVE",
"316 317 CURVE",
"344 324 OFFCURVE",
"407 319 OFFCURVE",
"407 348 CURVE SMOOTH",
"407 382 OFFCURVE",
"350 372 OFFCURVE",
"323 376 CURVE",
"322 384 OFFCURVE",
"322 393 OFFCURVE",
"322 401 CURVE SMOOTH",
"322 449 OFFCURVE",
"328 496 OFFCURVE",
"328 558 CURVE SMOOTH"
);
}
);
width = 417;
}
);
unicode = 0037;
},
{
glyphname = eight;
lastChange = "2019-03-20 21:42:08 +0000";
layers = (
{
hints = (
{
place = "{10, 78}";
type = Stem;
},
{
place = "{78, 68}";
type = Stem;
},
{
place = "{215, 87}";
type = Stem;
},
{
horizontal = 1;
place = "{76, 75}";
type = Stem;
},
{
horizontal = 1;
place = "{562, 85}";
type = Stem;
}
);
layerId = UUID0;
paths = (
{
closed = 1;
nodes = (
"317 622 OFFCURVE",
"274 647 OFFCURVE",
"206 647 CURVE SMOOTH",
"121 647 OFFCURVE",
"10 592 OFFCURVE",
"10 505 CURVE SMOOTH",
"10 422 OFFCURVE",
"88 371 OFFCURVE",
"143 311 CURVE",
"115 263 OFFCURVE",
"78 214 OFFCURVE",
"78 157 CURVE SMOOTH",
"78 104 OFFCURVE",
"120 76 OFFCURVE",
"163 76 CURVE SMOOTH",
"229 76 OFFCURVE",
"302 125 OFFCURVE",
"302 198 CURVE SMOOTH",
"302 253 OFFCURVE",
"267 287 OFFCURVE",
"242 325 CURVE",
"288 394 OFFCURVE",
"354 457 OFFCURVE",
"395 531 CURVE",
"398 538 OFFCURVE",
"400 545 OFFCURVE",
"400 552 CURVE SMOOTH",
"400 564 OFFCURVE",
"395 574 OFFCURVE",
"375 574 CURVE SMOOTH",
"366 574 OFFCURVE",
"357 572 OFFCURVE",
"346 572 CURVE"
);
},
{
closed = 1;
nodes = (
"243 562 OFFCURVE",
"270 541 OFFCURVE",
"290 504 CURVE",
"260 461 OFFCURVE",
"225 419 OFFCURVE",
"192 378 CURVE",
"167 397 OFFCURVE",
"88 460 OFFCURVE",
"88 502 CURVE SMOOTH",
"88 541 OFFCURVE",
"161 562 OFFCURVE",
"198 562 CURVE SMOOTH"
);
},
{
closed = 1;
nodes = (
"202 240 OFFCURVE",
"215 220 OFFCURVE",
"215 199 CURVE SMOOTH",
"215 163 OFFCURVE",
"173 152 OFFCURVE",
"146 151 CURVE",
"146 207 OFFCURVE",
"168 226 OFFCURVE",
"189 255 CURVE"
);
}
);
width = 410;
}
);
unicode = 0038;
},
{
glyphname = nine;
lastChange = "2019-03-20 21:42:08 +0000";
layers = (
{
hints = (
{
place = "{10, 83}";
type = Stem;
},
{
place = "{253, 122}";
type = Stem;
},
{
horizontal = 1;
place = "{391, 76}";
type = Stem;
},
{
horizontal = 1;
place = "{610, 84}";
type = Stem;
}
);
layerId = UUID0;
paths = (
{
closed = 1;
nodes = (
"304 682 OFFCURVE",
"270 694 OFFCURVE",
"236 694 CURVE SMOOTH",
"139 694 OFFCURVE",
"10 571 OFFCURVE",
"10 469 CURVE SMOOTH",
"10 427 OFFCURVE",
"44 391 OFFCURVE",
"93 391 CURVE SMOOTH",
"158 391 OFFCURVE",
"215 429 OFFCURVE",
"268 467 CURVE",
"268 431 OFFCURVE",
"263 396 OFFCURVE",
"260 360 CURVE SMOOTH",
"255 307 OFFCURVE",
"253 253 OFFCURVE",
"253 199 CURVE SMOOTH",
"253 148 OFFCURVE",
"253 97 OFFCURVE",
"261 44 CURVE SMOOTH",
"264 22 OFFCURVE",
"273 -8 OFFCURVE",
"302 -8 CURVE SMOOTH",
"335 -8 OFFCURVE",
"344 24 OFFCURVE",
"346 53 CURVE SMOOTH",
"351 104 OFFCURVE",
"363 153 OFFCURVE",
"366 203 CURVE SMOOTH",
"370 259 OFFCURVE",
"375 315 OFFCURVE",
"375 370 CURVE",
"374 433 OFFCURVE",
"377 487 OFFCURVE",
"366 535 CURVE",
"362 558 OFFCURVE",
"344 570 OFFCURVE",
"336 591 CURVE SMOOTH",
"334 596 OFFCURVE",
"334 602 OFFCURVE",
"334 608 CURVE SMOOTH",
"334 619 LINE SMOOTH",
"334 631 OFFCURVE",
"334 644 OFFCURVE",
"325 654 CURVE"
);
},
{
closed = 1;
nodes = (
"257 610 OFFCURVE",
"270 596 OFFCURVE",
"276 588 CURVE",
"233 532 OFFCURVE",
"168 471 OFFCURVE",
"93 467 CURVE",
"96 505 OFFCURVE",
"122 539 OFFCURVE",
"148 565 CURVE SMOOTH",
"170 587 OFFCURVE",
"201 610 OFFCURVE",
"233 610 CURVE SMOOTH"
);
}
);
width = 395;
}
);
unicode = 0039;
},
{
glyphname = period;
lastChange = "2019-03-20 21:42:08 +0000";
layers = (
{
hints = (
{
place = "{21, 92}";
type = Stem;
},
{
horizontal = 1;
place = "{16, 90}";
type = Stem;
}
);
layerId = UUID0;
paths = (
{
closed = 1;
nodes = (
"44 106 OFFCURVE",
"21 88 OFFCURVE",
"21 61 CURVE SMOOTH",
"21 33 OFFCURVE",
"43 16 OFFCURVE",
"66 16 CURVE SMOOTH",
"94 16 OFFCURVE",
"113 39 OFFCURVE",
"113 64 CURVE SMOOTH",
"113 91 OFFCURVE",
"90 106 OFFCURVE",
"68 106 CURVE SMOOTH"
);
}
);
width = 132;
}
);
unicode = 002E;
},
{
glyphname = comma;
lastChange = "2019-03-20 21:42:08 +0000";
layers = (
{
hints = (
{
place = "{68, 64}";
type = Stem;
},
{
horizontal = 1;
place = "{-61, 157}";
type = Stem;
}
);
layerId = UUID0;
paths = (
{
closed = 1;
nodes = (
"132 60 OFFCURVE",
"122 96 OFFCURVE",
"93 96 CURVE SMOOTH",
"76 96 OFFCURVE",
"65 85 OFFCURVE",
"65 65 CURVE SMOOTH",
"65 50 OFFCURVE",
"68 34 OFFCURVE",
"68 19 CURVE SMOOTH",
"68 -4 OFFCURVE",
"50 -37 OFFCURVE",
"50 -51 CURVE SMOOTH",
"50 -61 OFFCURVE",
"64 -61 OFFCURVE",
"75 -61 CURVE SMOOTH",
"114 -61 OFFCURVE",
"132 3 OFFCURVE",
"132 40 CURVE SMOOTH"
);
}
);
width = 152;
}
);
unicode = 002C;
},
{
glyphname = colon;
lastChange = "2019-03-20 21:42:08 +0000";
layers = (
{
hints = (
{
place = "{60, 125}";
type = Stem;
},
{
place = "{71, 114}";
type = Stem;
},
{
horizontal = 1;
place = "{8, 108}";
type = Stem;
},
{
horizontal = 1;
place = "{330, 122}";
type = Stem;
}
);
layerId = UUID0;
paths = (
{
closed = 1;
nodes = (
"91 452 OFFCURVE",
"60 428 OFFCURVE",
"60 391 CURVE SMOOTH",
"60 353 OFFCURVE",
"90 330 OFFCURVE",
"121 330 CURVE SMOOTH",
"159 330 OFFCURVE",
"185 361 OFFCURVE",
"185 395 CURVE SMOOTH",
"185 432 OFFCURVE",
"154 452 OFFCURVE",
"124 452 CURVE SMOOTH"
);
},
{
closed = 1;
nodes = (
"101 116 OFFCURVE",
"71 96 OFFCURVE",
"71 61 CURVE SMOOTH",
"71 29 OFFCURVE",
"93 8 OFFCURVE",
"121 8 CURVE SMOOTH",
"156 8 OFFCURVE",
"185 31 OFFCURVE",
"185 66 CURVE SMOOTH",
"185 97 OFFCURVE",
"159 116 OFFCURVE",
"132 116 CURVE SMOOTH"
);
}
);
width = 205;
}
);
unicode = 003A;
},
{
glyphname = semicolon;
lastChange = "2019-03-20 21:42:08 +0000";
layers = (
{
hints = (
{
place = "{50, 101}";
type = Stem;
},
{
place = "{80, 83}";
type = Stem;
},
{
horizontal = 1;
place = "{397, 94}";
type = Stem;
}
);
layerId = UUID0;
paths = (
{
closed = 1;
nodes = (
"75 491 OFFCURVE",
"50 477 OFFCURVE",
"50 446 CURVE SMOOTH",
"50 414 OFFCURVE",
"76 397 OFFCURVE",
"103 397 CURVE SMOOTH",
"125 397 OFFCURVE",
"151 412 OFFCURVE",
"151 442 CURVE SMOOTH",
"151 469 OFFCURVE",
"132 491 OFFCURVE",
"101 491 CURVE SMOOTH"
);
},
{
closed = 1;
nodes = (
"163 116 OFFCURVE",
"150 162 OFFCURVE",
"112 162 CURVE SMOOTH",
"90 162 OFFCURVE",
"76 148 OFFCURVE",
"76 122 CURVE SMOOTH",
"76 103 OFFCURVE",
"80 82 OFFCURVE",
"80 63 CURVE SMOOTH",
"80 34 OFFCURVE",
"60 -6 OFFCURVE",
"60 -24 CURVE SMOOTH",
"60 -36 OFFCURVE",
"73 -41 OFFCURVE",
"89 -41 CURVE SMOOTH",
"139 -41 OFFCURVE",
"163 42 OFFCURVE",
"163 90 CURVE SMOOTH"
);
}
);
width = 175;
}
);
unicode = 003B;
},
{
glyphname = exclam;
lastChange = "2019-03-20 21:42:08 +0000";
layers = (
{
hints = (
{
place = "{47, 81}";
type = Stem;
},
{
place = "{48, 91}";
type = Stem;
},
{
horizontal = 1;
place = "{100, 87}";
type = Stem;
}
);
layerId = UUID0;
paths = (
{
closed = 1;
nodes = (
"124 603 OFFCURVE",
"134 738 OFFCURVE",
"78 738 CURVE SMOOTH",
"50 738 OFFCURVE",
"47 709 OFFCURVE",
"47 684 CURVE SMOOTH",
"47 587 LINE SMOOTH",
"47 553 OFFCURVE",
"47 520 OFFCURVE",
"51 487 CURVE SMOOTH",
"56 436 OFFCURVE",
"49 333 OFFCURVE",
"95 333 CURVE SMOOTH",
"125 333 OFFCURVE",
"125 364 OFFCURVE",
"125 396 CURVE SMOOTH",
"125 410 OFFCURVE",
"124 425 OFFCURVE",
"124 439 CURVE SMOOTH",
"124 476 OFFCURVE",
"128 510 OFFCURVE",
"128 552 CURVE"
);
},
{
closed = 1;
nodes = (
"69 187 OFFCURVE",
"48 170 OFFCURVE",
"48 144 CURVE SMOOTH",
"48 116 OFFCURVE",
"72 100 OFFCURVE",
"93 100 CURVE SMOOTH",
"117 100 OFFCURVE",
"139 117 OFFCURVE",
"139 143 CURVE SMOOTH",
"139 167 OFFCURVE",
"121 187 OFFCURVE",
"92 187 CURVE SMOOTH"
);
}
);
width = 186;
}
);
unicode = 0021;
},
{
glyphname = question;
lastChange = "2019-03-20 21:42:08 +0000";
layers = (
{
hints = (
{
place = "{60, 96}";
type = Stem;
},
{
place = "{77, 77}";
type = Stem;
},
{
horizontal = 1;
place = "{24, 94}";
type = Stem;
},
{
horizontal = 1;
place = "{590, 86}";
type = Stem;
}
);
layerId = UUID0;
paths = (
{
closed = 1;
nodes = (
"254 641 OFFCURVE",
"224 676 OFFCURVE",
"179 676 CURVE SMOOTH",
"153 676 OFFCURVE",
"19 649 OFFCURVE",
"19 579 CURVE SMOOTH",
"19 564 OFFCURVE",
"28 551 OFFCURVE",
"42 551 CURVE SMOOTH",
"60 551 OFFCURVE",
"85 572 OFFCURVE",
"105 580 CURVE SMOOTH",
"124 587 OFFCURVE",
"141 589 OFFCURVE",
"162 590 CURVE",
"143 507 OFFCURVE",
"78 433 OFFCURVE",
"77 339 CURVE SMOOTH",
"77 295 OFFCURVE",
"90 216 OFFCURVE",
"132 216 CURVE SMOOTH",
"145 216 OFFCURVE",
"154 227 OFFCURVE",
"154 240 CURVE SMOOTH",
"154 256 OFFCURVE",
"152 267 OFFCURVE",
"152 280 CURVE SMOOTH",
"152 318 OFFCURVE",
"163 354 OFFCURVE",
"174 391 CURVE SMOOTH",
"198 466 OFFCURVE",
"254 537 OFFCURVE",
"254 600 CURVE SMOOTH"
);
},
{
closed = 1;
nodes = (
"82 118 OFFCURVE",
"60 98 OFFCURVE",
"60 71 CURVE SMOOTH",
"60 43 OFFCURVE",
"85 24 OFFCURVE",
"108 24 CURVE SMOOTH",
"134 24 OFFCURVE",
"156 44 OFFCURVE",
"156 70 CURVE SMOOTH",
"156 96 OFFCURVE",
"130 118 OFFCURVE",
"107 118 CURVE SMOOTH"
);
}
);
width = 268;
}
);
unicode = 003F;
},
{
glyphname = bullet;
lastChange = "2019-03-20 21:42:08 +0000";
layers = (
{
layerId = UUID0;
paths = (
{
closed = 1;
nodes = (
"58 389 OFFCURVE",
"16 356 OFFCURVE",
"16 307 CURVE SMOOTH",
"16 257 OFFCURVE",
"56 226 OFFCURVE",
"97 226 CURVE SMOOTH",
"148 226 OFFCURVE",
"182 268 OFFCURVE",
"182 313 CURVE SMOOTH",
"182 361 OFFCURVE",
"141 389 OFFCURVE",
"101 389 CURVE SMOOTH"
);
}
);
width = 220;
}
);
unicode = 2022;
},
{
glyphname = asterisk;
lastChange = "2019-03-20 21:42:08 +0000";
layers = (
{
hints = (
{
place = "{20, 367}";
type = Stem;
},
{
horizontal = 1;
place = "{298, 199}";
type = Stem;
},
{
horizontal = 1;
place = "{384, 95}";
type = Stem;
}
);
layerId = UUID0;
paths = (
{
closed = 1;
nodes = (
"291 643 OFFCURVE",
"288 643 OFFCURVE",
"285 643 CURVE SMOOTH",
"250 643 OFFCURVE",
"231 585 OFFCURVE",
"211 555 CURVE",
"181 585 OFFCURVE",
"155 638 OFFCURVE",
"124 638 CURVE SMOOTH",
"104 638 OFFCURVE",
"95 624 OFFCURVE",
"95 606 CURVE SMOOTH",
"95 564 OFFCURVE",
"128 519 OFFCURVE",
"144 479 CURVE",
"101 472 OFFCURVE",
"20 483 OFFCURVE",
"20 434 CURVE SMOOTH",
"20 393 OFFCURVE",
"101 389 OFFCURVE",
"138 384 CURVE",
"131 347 OFFCURVE",
"106 309 OFFCURVE",
"106 271 CURVE SMOOTH",
"106 256 OFFCURVE",
"111 245 OFFCURVE",
"132 245 CURVE SMOOTH",
"166 245 OFFCURVE",
"196 338 OFFCURVE",
"226 376 CURVE",
"255 348 OFFCURVE",
"283 298 OFFCURVE",
"322 298 CURVE SMOOTH",
"340 298 OFFCURVE",
"361 310 OFFCURVE",
"361 334 CURVE SMOOTH",
"361 360 OFFCURVE",
"328 393 OFFCURVE",
"310 423 CURVE",
"338 434 OFFCURVE",
"387 438 OFFCURVE",
"387 467 CURVE SMOOTH",
"387 494 OFFCURVE",
"361 497 OFFCURVE",
"335 497 CURVE SMOOTH",
"318 497 OFFCURVE",
"301 496 OFFCURVE",
"285 496 CURVE",
"294 531 OFFCURVE",
"312 570 OFFCURVE",
"312 606 CURVE SMOOTH",
"312 620 OFFCURVE",
"308 633 OFFCURVE",
"295 642 CURVE"
);
}
);
width = 407;
}
);
unicode = 002A;
},
{
glyphname = numbersign;
lastChange = "2019-03-20 21:42:08 +0000";
layers = (
{
hints = (
{
place = "{224, 73}";
type = Stem;
},
{
place = "{410, 87}";
type = Stem;
},
{
place = "{416, 85}";
type = Stem;
},
{
horizontal = 1;
place = "{232, 81}";
type = Stem;
},
{
horizontal = 1;
place = "{234, 69}";
type = Stem;
},
{
horizontal = 1;
place = "{240, 57}";
type = Stem;
},
{
horizontal = 1;
place = "{399, 88}";
type = Stem;
},
{
horizontal = 1;
place = "{424, 60}";
type = Stem;
}
);
layerId = UUID0;
paths = (
{
closed = 1;
nodes = (
"270 654 OFFCURVE",
"265 655 OFFCURVE",
"261 655 CURVE SMOOTH",
"229 655 OFFCURVE",
"224 612 OFFCURVE",
"224 565 CURVE SMOOTH",
"224 538 OFFCURVE",
"225 510 OFFCURVE",
"225 487 CURVE",
"160 480 OFFCURVE",
"9 489 OFFCURVE",
"9 429 CURVE SMOOTH",
"9 404 OFFCURVE",
"30 399 OFFCURVE",
"48 399 CURVE SMOOTH",
"107 399 OFFCURVE",
"165 412 OFFCURVE",
"225 412 CURVE",
"226 389 OFFCURVE",
"226 365 OFFCURVE",
"226 342 CURVE SMOOTH",
"226 313 LINE",
"177 307 OFFCURVE",
"75 309 OFFCURVE",
"75 261 CURVE SMOOTH",
"75 240 OFFCURVE",
"92 232 OFFCURVE",
"107 232 CURVE SMOOTH",
"138 232 OFFCURVE",
"163 240 OFFCURVE",
"194 240 CURVE SMOOTH",
"205 240 OFFCURVE",
"222 239 OFFCURVE",
"233 238 CURVE",
"245 181 OFFCURVE",
"230 101 OFFCURVE",
"257 79 CURVE",
"261 76 OFFCURVE",
"265 75 OFFCURVE",
"269 75 CURVE SMOOTH",
"280 75 OFFCURVE",
"290 86 OFFCURVE",
"290 120 CURVE SMOOTH",
"290 144 OFFCURVE",
"289 169 OFFCURVE",
"289 193 CURVE SMOOTH",
"289 207 OFFCURVE",
"290 222 OFFCURVE",
"291 236 CURVE",
"335 235 OFFCURVE",
"361 234 OFFCURVE",
"381 234 CURVE SMOOTH",
"401 234 OFFCURVE",
"413 235 OFFCURVE",
"429 236 CURVE",
"442 164 OFFCURVE",
"438 93 OFFCURVE",
"459 30 CURVE SMOOTH",
"463 18 OFFCURVE",
"469 9 OFFCURVE",
"478 9 CURVE SMOOTH",
"499 9 OFFCURVE",
"506 25 OFFCURVE",
"506 51 CURVE SMOOTH",
"506 98 OFFCURVE",
"504 145 OFFCURVE",
"504 193 CURVE SMOOTH",
"504 208 OFFCURVE",
"504 223 OFFCURVE",
"505 238 CURVE",
"538 239 OFFCURVE",
"560 240 OFFCURVE",
"584 240 CURVE SMOOTH",
"591 240 OFFCURVE",
"601 239 OFFCURVE",
"611 239 CURVE SMOOTH",
"633 239 OFFCURVE",
"657 243 OFFCURVE",
"657 263 CURVE SMOOTH",
"657 298 OFFCURVE",
"551 291 OFFCURVE",
"507 297 CURVE",
"505 332 OFFCURVE",
"501 368 OFFCURVE",
"501 404 CURVE SMOOTH",
"501 411 OFFCURVE",
"502 418 OFFCURVE",
"502 425 CURVE",
"531 425 OFFCURVE",
"560 422 OFFCURVE",
"589 422 CURVE SMOOTH",
"607 422 OFFCURVE",
"627 422 OFFCURVE",
"627 440 CURVE SMOOTH",
"627 468 OFFCURVE",
"530 467 OFFCURVE",
"497 476 CURVE",
"489 535 OFFCURVE",
"488 649 OFFCURVE",
"440 649 CURVE SMOOTH",
"410 649 OFFCURVE",
"410 610 OFFCURVE",
"410 585 CURVE SMOOTH",
"410 557 OFFCURVE",
"412 534 OFFCURVE",
"412 511 CURVE SMOOTH",
"412 501 OFFCURVE",
"412 491 OFFCURVE",
"411 481 CURVE",
"297 487 LINE",
"293 538 OFFCURVE",
"303 637 OFFCURVE",
"274 652 CURVE SMOOTH"
);
},
{
closed = 1;
nodes = (
"417 383 OFFCURVE",
"421 343 OFFCURVE",
"422 303 CURVE",
"381 303 OFFCURVE",
"341 307 OFFCURVE",
"300 309 CURVE",
"298 323 OFFCURVE",
"297 337 OFFCURVE",
"297 352 CURVE SMOOTH",
"297 374 OFFCURVE",
"299 397 OFFCURVE",
"300 418 CURVE",
"332 422 OFFCURVE",
"365 424 OFFCURVE",
"397 424 CURVE SMOOTH",
"416 424 LINE"
);
}
);
width = 668;
}
);
unicode = 0023;
},
{
glyphname = slash;
lastChange = "2019-03-20 21:42:08 +0000";
layers = (
{
layerId = UUID0;
paths = (
{
closed = 1;
nodes = (
"256 653 OFFCURVE",
"246 618 OFFCURVE",
"222 554 CURVE SMOOTH",
"49 96 LINE",
"45 83 OFFCURVE",
"43 80 OFFCURVE",
"42 76 CURVE",
"27 36 OFFCURVE",
"16 6 OFFCURVE",
"16 -15 CURVE SMOOTH",
"16 -35 OFFCURVE",
"28 -53 OFFCURVE",
"53 -53 CURVE SMOOTH",
"74 -53 OFFCURVE",
"92 -29 OFFCURVE",
"101 -7 CURVE SMOOTH",
"139 84 OFFCURVE",
"271 432 OFFCURVE",
"324 564 CURVE SMOOTH",
"340 603 OFFCURVE",
"358 658 OFFCURVE",
"358 697 CURVE SMOOTH",
"358 723 OFFCURVE",
"349 744 OFFCURVE",
"323 744 CURVE SMOOTH",
"297 744 OFFCURVE",
"278 710 OFFCURVE",
"269 686 CURVE SMOOTH"
);
}
);
width = 367;
}
);
unicode = 002F;
},
{
glyphname = backslash;
lastChange = "2019-03-20 21:42:08 +0000";
layers = (
{
layerId = UUID0;
paths = (
{
closed = 1;
nodes = (
"90 710 OFFCURVE",
"77 744 OFFCURVE",
"51 744 CURVE SMOOTH",
"25 744 OFFCURVE",
"16 723 OFFCURVE",
"16 697 CURVE SMOOTH",
"16 658 OFFCURVE",
"34 603 OFFCURVE",
"50 564 CURVE SMOOTH",
"103 432 OFFCURVE",
"264 60 OFFCURVE",
"302 -31 CURVE SMOOTH",
"311 -53 OFFCURVE",
"329 -77 OFFCURVE",
"350 -77 CURVE SMOOTH",
"375 -77 OFFCURVE",
"381 -59 OFFCURVE",
"381 -39 CURVE SMOOTH",
"381 -13 OFFCURVE",
"364 18 OFFCURVE",
"348 72 CURVE",
"149 557 LINE SMOOTH",
"123 621 OFFCURVE",
"112 653 OFFCURVE",
"99 686 CURVE SMOOTH"
);
}
);
width = 397;
}
);
unicode = 005C;
},
{
glyphname = parenleft;
lastChange = "2019-03-20 21:42:08 +0000";
layers = (
{
hints = (
{
place = "{19, 94}";
type = Stem;
},
{
horizontal = 1;
place = "{-82, 762}";
type = Stem;
}
);
layerId = UUID0;
paths = (
{
closed = 1;
nodes = (
"151 667 OFFCURVE",
"140 680 OFFCURVE",
"124 680 CURVE SMOOTH",
"88 680 OFFCURVE",
"69 616 OFFCURVE",
"59 582 CURVE SMOOTH",
"33 494 OFFCURVE",
"19 401 OFFCURVE",
"19 309 CURVE SMOOTH",
"19 192 OFFCURVE",
"44 76 OFFCURVE",
"113 -20 CURVE SMOOTH",
"129 -42 OFFCURVE",
"152 -82 OFFCURVE",
"180 -82 CURVE SMOOTH",
"193 -82 OFFCURVE",
"208 -74 OFFCURVE",
"208 -61 CURVE SMOOTH",
"208 -46 OFFCURVE",
"199 -31 OFFCURVE",
"193 -18 CURVE SMOOTH",
"142 88 OFFCURVE",
"114 228 OFFCURVE",
"113 353 CURVE",
"113 441 OFFCURVE",
"119 538 OFFCURVE",
"145 623 CURVE",
"147 632 OFFCURVE",
"151 643 OFFCURVE",
"151 653 CURVE SMOOTH"
);
}
);
width = 220;
}
);
unicode = 0028;
},
{
glyphname = parenright;
lastChange = "2019-03-20 21:42:08 +0000";
layers = (
{
hints = (
{
place = "{121, 108}";
type = Stem;
},
{
horizontal = 1;
place = "{-83, 767}";
type = Stem;
}
);
layerId = UUID0;
paths = (
{
closed = 1;
nodes = (
"33 684 OFFCURVE",
"20 672 OFFCURVE",
"20 658 CURVE SMOOTH",
"20 634 OFFCURVE",
"36 605 OFFCURVE",
"45 583 CURVE SMOOTH",
"95 459 OFFCURVE",
"121 316 OFFCURVE",
"121 185 CURVE SMOOTH",
"121 132 OFFCURVE",
"115 79 OFFCURVE",
"111 29 CURVE SMOOTH",
"108 -8 OFFCURVE",
"92 -33 OFFCURVE",
"92 -69 CURVE SMOOTH",
"92 -79 OFFCURVE",
"104 -83 OFFCURVE",
"110 -83 CURVE SMOOTH",
"125 -83 OFFCURVE",
"142 -64 OFFCURVE",
"151 -51 CURVE SMOOTH",
"210 35 OFFCURVE",
"229 129 OFFCURVE",
"229 232 CURVE SMOOTH",
"229 328 OFFCURVE",
"208 427 OFFCURVE",
"172 518 CURVE SMOOTH",
"148 578 OFFCURVE",
"100 674 OFFCURVE",
"48 684 CURVE"
);
}
);
width = 249;
}
);
unicode = 0029;
},
{
glyphname = bracketleft;
lastChange = "2019-03-20 21:42:08 +0000";
layers = (
{
hints = (
{
place = "{15, 97}";
type = Stem;
},
{
horizontal = 1;
place = "{-138, 123}";
type = Stem;
},
{
horizontal = 1;
place = "{545, 82}";
type = Stem;
}
);
layerId = UUID0;
paths = (
{
closed = 1;
nodes = (
"15 656 OFFCURVE",
"15 584 OFFCURVE",
"15 523 CURVE SMOOTH",
"15 412 LINE SMOOTH",
"15 289 OFFCURVE",
"16 49 OFFCURVE",
"23 -74 CURVE SMOOTH",
"26 -120 OFFCURVE",
"63 -138 OFFCURVE",
"105 -138 CURVE SMOOTH",
"155 -138 OFFCURVE",
"336 -129 OFFCURVE",
"340 -69 CURVE",
"340 -38 OFFCURVE",
"273 -15 OFFCURVE",
"231 -15 CURVE SMOOTH",
"200 -15 OFFCURVE",
"168 -20 OFFCURVE",
"125 -20 CURVE",
"124 60 OFFCURVE",
"126 258 OFFCURVE",
"120 338 CURVE",
"119 407 OFFCURVE",
"108 505 OFFCURVE",
"105 574 CURVE",
"114 575 OFFCURVE",
"124 575 OFFCURVE",
"134 575 CURVE SMOOTH",
"154 575 OFFCURVE",
"174 574 OFFCURVE",
"195 574 CURVE SMOOTH",
"224 574 OFFCURVE",
"285 574 OFFCURVE",
"285 616 CURVE SMOOTH",
"285 655 OFFCURVE",
"238 656 OFFCURVE",
"207 656 CURVE SMOOTH",
"118 656 LINE SMOOTH"
);
}
);
width = 373;
}
);
unicode = 005B;
},
{
glyphname = bracketright;
lastChange = "2019-03-20 21:42:08 +0000";
layers = (
{
hints = (
{
place = "{35, 330}";
type = Stem;
},
{
place = "{278, 87}";
type = Stem;
},
{
horizontal = 1;
place = "{458, 90}";
type = Stem;
}
);
layerId = UUID0;
paths = (
{
closed = 1;
nodes = (
"170 652 OFFCURVE",
"33 657 OFFCURVE",
"33 599 CURVE SMOOTH",
"33 578 OFFCURVE",
"50 562 OFFCURVE",
"71 562 CURVE SMOOTH",
"74 562 OFFCURVE",
"76 562 OFFCURVE",
"79 563 CURVE",
"134 573 OFFCURVE",
"187 575 OFFCURVE",
"243 575 CURVE",
"250 461 OFFCURVE",
"244 261 OFFCURVE",
"257 145 CURVE SMOOTH",
"262 95 OFFCURVE",
"275 46 OFFCURVE",
"278 -4 CURVE",
"238 -9 OFFCURVE",
"198 -8 OFFCURVE",
"157 -17 CURVE SMOOTH",
"114 -27 OFFCURVE",
"38 -55 OFFCURVE",
"38 -103 CURVE SMOOTH",
"38 -132 OFFCURVE",
"59 -138 OFFCURVE",
"94 -138 CURVE SMOOTH",
"141 -138 OFFCURVE",
"192 -126 OFFCURVE",
"237 -121 CURVE SMOOTH",
"285 -116 OFFCURVE",
"365 -108 OFFCURVE",
"365 -43 CURVE SMOOTH",
"365 -39 OFFCURVE",
"365 -34 OFFCURVE",
"364 -29 CURVE",
"353 56 OFFCURVE",
"352 142 OFFCURVE",
"344 228 CURVE SMOOTH",
"336 324 OFFCURVE",
"339 505 OFFCURVE",
"326 604 CURVE",
"320 632 OFFCURVE",
"313 665 OFFCURVE",
"268 665 CURVE SMOOTH",
"257 665 OFFCURVE",
"249 664 OFFCURVE",
"232 662 CURVE"
);
}
);
width = 379;
}
);
unicode = 005D;
},
{
glyphname = hyphen;
lastChange = "2019-03-20 21:42:08 +0000";
layers = (
{
hints = (
{
place = "{18, 299}";
type = Stem;
},
{
horizontal = 1;
place = "{252, 96}";
type = Stem;
}
);
layerId = UUID0;
paths = (
{
closed = 1;
nodes = (
"133 339 OFFCURVE",
"125 342 OFFCURVE",
"66 336 CURVE SMOOTH",
"46 334 OFFCURVE",
"18 326 OFFCURVE",
"18 297 CURVE SMOOTH",
"18 265 OFFCURVE",
"52 257 OFFCURVE",
"81 255 CURVE",
"127 255 OFFCURVE",
"138 249 OFFCURVE",
"176 254 CURVE SMOOTH",
"227 260 OFFCURVE",
"317 254 OFFCURVE",
"317 305 CURVE SMOOTH",
"317 341 OFFCURVE",
"271 348 OFFCURVE",
"241 348 CURVE SMOOTH",
"226 348 OFFCURVE",
"219 347 OFFCURVE",
"191 345 CURVE SMOOTH"
);
}
);
width = 339;
}
);
unicode = 002D;
},
{
glyphname = endash;
lastChange = "2019-03-20 21:42:08 +0000";
layers = (
{
hints = (
{
place = "{25, 400}";
type = Stem;
},
{
horizontal = 1;
place = "{238, 107}";
type = Stem;
}
);
layerId = UUID0;
paths = (
{
closed = 1;
nodes = (
"272 345 OFFCURVE",
"153 334 OFFCURVE",
"74 320 CURVE SMOOTH",
"54 316 OFFCURVE",
"25 309 OFFCURVE",
"25 281 CURVE SMOOTH",
"25 254 OFFCURVE",
"49 238 OFFCURVE",
"75 238 CURVE SMOOTH",
"142 238 OFFCURVE",
"210 242 OFFCURVE",
"284 251 CURVE SMOOTH",
"318 255 OFFCURVE",
"360 252 OFFCURVE",
"392 265 CURVE",
"408 273 OFFCURVE",
"425 284 OFFCURVE",
"425 306 CURVE SMOOTH",
"425 331 OFFCURVE",
"392 345 OFFCURVE",
"349 345 CURVE SMOOTH"
);
}
);
width = 449;
}
);
unicode = 2013;
},
{
glyphname = emdash;
lastChange = "2019-03-20 21:33:34 +0000";
layers = (
{
hints = (
{
place = "{24, 572}";
type = Stem;
},
{
horizontal = 1;
place = "{234, 91}";
type = Stem;
}
);
layerId = UUID0;
paths = (
{
closed = 1;
nodes = (
"484 330 OFFCURVE",
"448 325 OFFCURVE",
"380 325 CURVE SMOOTH",
"163 325 LINE SMOOTH",
"69 325 OFFCURVE",
"24 322 OFFCURVE",
"24 281 CURVE SMOOTH",
"24 249 OFFCURVE",
"58 241 OFFCURVE",
"87 239 CURVE",
"186 239 OFFCURVE",
"284 234 OFFCURVE",
"426 234 CURVE SMOOTH",
"492 234 OFFCURVE",
"596 239 OFFCURVE",
"596 287 CURVE SMOOTH",
"596 323 OFFCURVE",
"550 330 OFFCURVE",
"520 330 CURVE SMOOTH"
);
}
);
width = 632;
}
);
unicode = 2014;
},
{
glyphname = underscore;
lastChange = "2019-03-20 21:42:08 +0000";
layers = (
{
layerId = UUID0;
paths = (
{
closed = 1;
nodes = (
"455 54 OFFCURVE",
"419 52 OFFCURVE",
"351 49 CURVE SMOOTH",
"149 39 LINE",
"142 39 OFFCURVE",
"135 38 OFFCURVE",
"129 38 CURVE",
"49 34 OFFCURVE",
"10 32 OFFCURVE",
"10 -6 CURVE SMOOTH",
"10 -38 OFFCURVE",
"58 -34 OFFCURVE",
"87 -36 CURVE",
"201 -36 OFFCURVE",
"264 -27 OFFCURVE",
"461 -27 CURVE SMOOTH",
"515 -27 OFFCURVE",
"567 -22 OFFCURVE",
"567 11 CURVE SMOOTH",
"567 47 OFFCURVE",
"521 54 OFFCURVE",
"491 54 CURVE SMOOTH"
);
}
);
width = 572;
}
);
unicode = 005F;
},
{
glyphname = quotedblleft;
lastChange = "2019-03-20 21:40:53 +0000";
layers = (
{
hints = (
{
place = "{30, 207}";
type = Stem;
},
{
horizontal = 1;
place = "{373, 257}";
type = Stem;
}
);
layerId = UUID0;
paths = (
{
closed = 1;
nodes = (
"129 630 OFFCURVE",
"115 610 OFFCURVE",
"115 587 CURVE SMOOTH",
"115 534 OFFCURVE",
"183 410 OFFCURVE",
"217 410 CURVE SMOOTH",
"232 410 OFFCURVE",
"237 427 OFFCURVE",
"237 438 CURVE SMOOTH",
"237 478 OFFCURVE",
"209 630 OFFCURVE",
"152 630 CURVE SMOOTH"
);
},
{
closed = 1;
nodes = (
"150 440 OFFCURVE",
"124 576 OFFCURVE",
"66 576 CURVE SMOOTH",
"43 576 OFFCURVE",
"30 556 OFFCURVE",
"30 536 CURVE SMOOTH",
"30 503 OFFCURVE",
"60 463 OFFCURVE",
"77 434 CURVE SMOOTH",
"87 416 OFFCURVE",
"106 373 OFFCURVE",
"125 373 CURVE SMOOTH",
"140 373 OFFCURVE",
"150 388 OFFCURVE",
"150 402 CURVE SMOOTH"
);
}
);
width = 267;
}
);
unicode = 201C;
},
{
glyphname = quotedblright;
lastChange = "2019-03-20 21:41:52 +0000";
layers = (
{
hints = (
{
place = "{30, 103}";
type = Stem;
},
{
horizontal = 1;
place = "{366, 264}";
type = Stem;
}
);
layerId = UUID0;
paths = (
{
closed = 1;
nodes = (
"33 630 OFFCURVE",
"30 489 OFFCURVE",
"30 447 CURVE SMOOTH",
"30 417 OFFCURVE",
"38 388 OFFCURVE",
"66 388 CURVE SMOOTH",
"96 388 OFFCURVE",
"103 441 OFFCURVE",
"110 466 CURVE SMOOTH",
"120 500 OFFCURVE",
"133 538 OFFCURVE",
"133 575 CURVE SMOOTH",
"133 604 OFFCURVE",
"120 630 OFFCURVE",
"90 630 CURVE SMOOTH"
);
},
{
closed = 1;
nodes = (
"165 594 OFFCURVE",
"151 463 OFFCURVE",
"151 406 CURVE SMOOTH",
"151 378 OFFCURVE",
"165 366 OFFCURVE",
"178 366 CURVE SMOOTH",
"205 366 OFFCURVE",
"218 447 OFFCURVE",
"226 470 CURVE SMOOTH",
"234 492 OFFCURVE",
"243 522 OFFCURVE",
"243 546 CURVE SMOOTH",
"243 570 OFFCURVE",
"233 594 OFFCURVE",
"209 594 CURVE SMOOTH"
);
}
);
width = 273;
}
);
unicode = 201D;
},
{
glyphname = quoteleft;
lastChange = "2019-03-20 21:41:58 +0000";
layers = (
{
hints = (
{
place = "{19, 122}";
type = Stem;
},
{
horizontal = 1;
place = "{403, 220}";
type = Stem;
}
);
layerId = UUID0;
paths = (
{
closed = 1;
nodes = (
"33 623 OFFCURVE",
"19 603 OFFCURVE",
"19 580 CURVE SMOOTH",
"19 527 OFFCURVE",
"87 403 OFFCURVE",
"121 403 CURVE SMOOTH",
"136 403 OFFCURVE",
"141 420 OFFCURVE",
"141 431 CURVE SMOOTH",
"141 471 OFFCURVE",
"113 623 OFFCURVE",
"56 623 CURVE SMOOTH"
);
}
);
width = 155;
}
);
unicode = 2018;
},
{
glyphname = quoteright;
lastChange = "2019-03-20 21:41:59 +0000";
layers = (
{
hints = (
{
place = "{30, 103}";
type = Stem;
},
{
horizontal = 1;
place = "{388, 242}";
type = Stem;
}
);
layerId = UUID0;
paths = (
{
closed = 1;
nodes = (
"33 630 OFFCURVE",
"30 489 OFFCURVE",
"30 447 CURVE SMOOTH",
"30 417 OFFCURVE",
"38 388 OFFCURVE",
"66 388 CURVE SMOOTH",
"96 388 OFFCURVE",
"103 441 OFFCURVE",
"110 466 CURVE SMOOTH",
"120 500 OFFCURVE",
"133 538 OFFCURVE",
"133 575 CURVE SMOOTH",
"133 604 OFFCURVE",
"120 630 OFFCURVE",
"90 630 CURVE SMOOTH"
);
}
);
width = 163;
}
);
unicode = 2019;
},
{
glyphname = quotedbl;
lastChange = "2019-03-20 21:42:08 +0000";
layers = (
{
hints = (
{
place = "{17, 93}";
type = Stem;
},
{
place = "{140, 86}";
type = Stem;
},
{
horizontal = 1;
place = "{390, 256}";
type = Stem;
}
);
layerId = UUID0;
paths = (
{
closed = 1;
nodes = (
"25 634 OFFCURVE",
"17 591 OFFCURVE",
"17 557 CURVE SMOOTH",
"17 460 OFFCURVE",
"41 390 OFFCURVE",
"74 390 CURVE SMOOTH",
"112 390 OFFCURVE",
"106 447 OFFCURVE",
"107 476 CURVE SMOOTH",
"108 496 OFFCURVE",
"110 516 OFFCURVE",
"110 537 CURVE SMOOTH",
"110 563 OFFCURVE",
"103 634 OFFCURVE",
"64 634 CURVE SMOOTH"
);
},
{
closed = 1;
nodes = (
"224 413 OFFCURVE",
"226 522 OFFCURVE",
"226 548 CURVE SMOOTH",
"226 597 OFFCURVE",
"215 646 OFFCURVE",
"178 646 CURVE SMOOTH",
"152 646 OFFCURVE",
"140 614 OFFCURVE",
"140 584 CURVE SMOOTH",
"140 555 OFFCURVE",
"148 521 OFFCURVE",
"152 495 CURVE SMOOTH",
"156 467 OFFCURVE",
"158 413 OFFCURVE",
"184 413 CURVE SMOOTH"
);
}
);
width = 248;
}
);
unicode = 0022;
},
{
glyphname = quotesingle;
lastChange = "2019-03-20 21:42:08 +0000";
layers = (
{
hints = (
{
place = "{17, 93}";
type = Stem;
},
{
horizontal = 1;
place = "{390, 244}";
type = Stem;
}
);
layerId = UUID0;
paths = (
{
closed = 1;
nodes = (
"25 634 OFFCURVE",
"17 591 OFFCURVE",
"17 557 CURVE SMOOTH",
"17 460 OFFCURVE",
"41 390 OFFCURVE",
"74 390 CURVE SMOOTH",
"112 390 OFFCURVE",
"106 447 OFFCURVE",
"107 476 CURVE SMOOTH",
"108 496 OFFCURVE",
"110 516 OFFCURVE",
"110 537 CURVE SMOOTH",
"110 563 OFFCURVE",
"103 634 OFFCURVE",
"64 634 CURVE SMOOTH"
);
}
);
width = 129;
}
);
unicode = 0027;
},
{
glyphname = dollar;
lastChange = "2019-03-20 21:42:08 +0000";
layers = (
{
hints = (
{
place = "{214, 100}";
type = Stem;
},
{
horizontal = 1;
place = "{20, 92}";
type = Stem;
},
{
horizontal = 1;
place = "{441, 89}";
type = Stem;
}
);
layerId = UUID0;
paths = (
{
closed = 1;
nodes = (
"224 596 OFFCURVE",
"209 598 OFFCURVE",
"193 599 CURVE",
"194 610 OFFCURVE",
"197 629 OFFCURVE",
"197 651 CURVE SMOOTH",
"197 668 OFFCURVE",
"190 695 OFFCURVE",
"160 695 CURVE SMOOTH",
"121 695 OFFCURVE",
"117 629 OFFCURVE",
"117 608 CURVE SMOOTH",
"117 601 LINE",
"99 599 OFFCURVE",
"4 588 OFFCURVE",
"4 515 CURVE SMOOTH",
"4 493 OFFCURVE",
"14 472 OFFCURVE",
"27 454 CURVE SMOOTH",
"83 376 OFFCURVE",
"161 343 OFFCURVE",
"161 268 CURVE SMOOTH",
"161 249 OFFCURVE",
"149 240 OFFCURVE",
"133 240 CURVE SMOOTH",
"106 240 OFFCURVE",
"74 244 OFFCURVE",
"47 253 CURVE SMOOTH",
"27 260 OFFCURVE",
"1 281 OFFCURVE",
"-17 281 CURVE SMOOTH",
"-29 281 OFFCURVE",
"-33 266 OFFCURVE",
"-33 257 CURVE SMOOTH",
"-33 223 OFFCURVE",
"12 190 OFFCURVE",
"62 169 CURVE",
"58 139 OFFCURVE",
"56 143 OFFCURVE",
"56 124 CURVE SMOOTH",
"56 106 OFFCURVE",
"60 71 OFFCURVE",
"92 71 CURVE SMOOTH",
"128 71 OFFCURVE",
"132 112 OFFCURVE",
"132 112 CURVE",
"135 149 LINE",
"141 148 OFFCURVE",
"146 148 OFFCURVE",
"151 148 CURVE SMOOTH",
"220 148 OFFCURVE",
"261 200 OFFCURVE",
"261 260 CURVE SMOOTH",
"261 386 OFFCURVE",
"95 439 OFFCURVE",
"95 506 CURVE SMOOTH",
"95 519 OFFCURVE",
"126 530 OFFCURVE",
"142 530 CURVE SMOOTH",
"178 530 OFFCURVE",
"243 488 OFFCURVE",
"274 488 CURVE SMOOTH",
"292 488 OFFCURVE",
"297 505 OFFCURVE",
"297 519 CURVE SMOOTH",
"297 558 OFFCURVE",
"264 583 OFFCURVE",
"231 594 CURVE"
);
}
);
width = 334;
}
);
unicode = 0024;
},
{
glyphname = plus;
lastChange = "2019-03-20 21:42:08 +0000";
layers = (
{
layerId = UUID0;
paths = (
{
closed = 1;
nodes = (
"182 466 OFFCURVE",
"181 446 OFFCURVE",
"180 420 CURVE",
"163 420 LINE SMOOTH",
"69 420 OFFCURVE",
"24 417 OFFCURVE",
"24 376 CURVE SMOOTH",
"24 344 OFFCURVE",
"58 336 OFFCURVE",
"87 334 CURVE",
"154 334 OFFCURVE",
"142 331 OFFCURVE",
"172 330 CURVE",
"169 300 LINE SMOOTH",
"165 267 OFFCURVE",
"163 240 OFFCURVE",
"163 218 CURVE SMOOTH",
"163 177 OFFCURVE",
"172 157 OFFCURVE",
"203 157 CURVE SMOOTH",
"230 157 OFFCURVE",
"241 187 OFFCURVE",
"246 215 CURVE",
"255 297 OFFCURVE",
"254 260 OFFCURVE",
"263 329 CURVE",
"329 329 OFFCURVE",
"426 335 OFFCURVE",
"426 382 CURVE SMOOTH",
"426 418 OFFCURVE",
"380 425 OFFCURVE",
"350 425 CURVE SMOOTH",
"327 425 OFFCURVE",
"304 423 OFFCURVE",
"273 421 CURVE",
"274 433 OFFCURVE",
"274 446 OFFCURVE",
"274 459 CURVE SMOOTH",
"274 511 OFFCURVE",
"265 557 OFFCURVE",
"230 557 CURVE SMOOTH",
"198 557 OFFCURVE",
"187 515 OFFCURVE",
"184 486 CURVE SMOOTH"
);
}
);
width = 443;
}
);
unicode = 002B;
},
{
glyphname = equal;
lastChange = "2019-03-20 21:42:08 +0000";
layers = (
{
layerId = UUID0;
paths = (
{
closed = 1;
nodes = (
"314 330 OFFCURVE",
"278 325 OFFCURVE",
"210 325 CURVE SMOOTH",
"163 325 LINE SMOOTH",
"69 325 OFFCURVE",
"24 322 OFFCURVE",
"24 281 CURVE SMOOTH",
"24 249 OFFCURVE",
"58 241 OFFCURVE",
"87 239 CURVE",
"186 239 OFFCURVE",
"114 234 OFFCURVE",
"256 234 CURVE SMOOTH",
"322 234 OFFCURVE",
"426 239 OFFCURVE",
"426 287 CURVE SMOOTH",
"426 323 OFFCURVE",
"380 330 OFFCURVE",
"350 330 CURVE SMOOTH"
);
},
{
closed = 1;
nodes = (
"279 526 OFFCURVE",
"278 530 OFFCURVE",
"210 530 CURVE SMOOTH",
"163 530 LINE SMOOTH",
"69 530 OFFCURVE",
"24 527 OFFCURVE",
"24 486 CURVE SMOOTH",
"24 454 OFFCURVE",
"58 446 OFFCURVE",
"87 444 CURVE SMOOTH",
"133 441 OFFCURVE",
"166 435 OFFCURVE",
"221 430 CURVE SMOOTH",
"233 429 OFFCURVE",
"245 429 OFFCURVE",
"257 429 CURVE SMOOTH",
"322 429 OFFCURVE",
"391 443 OFFCURVE",
"391 483 CURVE SMOOTH",
"391 519 OFFCURVE",
"345 526 OFFCURVE",
"315 526 CURVE SMOOTH"
);
}
);
width = 453;
}
);
unicode = 003D;
},
{
glyphname = percent;
lastChange = "2019-03-20 21:42:08 +0000";
layers = (
{
hints = (
{
place = "{9, 119}";
type = Stem;
},
{
place = "{392, 103}";
type = Stem;
},
{
horizontal = 1;
place = "{139, 101}";
type = Stem;
},
{
horizontal = 1;
place = "{417, 121}";
type = Stem;
}
);
layerId = UUID0;
paths = (
{
closed = 1;
nodes = (
"380 557 OFFCURVE",
"369 579 OFFCURVE",
"343 579 CURVE SMOOTH",
"314 579 OFFCURVE",
"301 548 OFFCURVE",
"291 525 CURVE SMOOTH",
"249 433 OFFCURVE",
"211 339 OFFCURVE",
"175 245 CURVE SMOOTH",
"155 194 OFFCURVE",
"127 117 OFFCURVE",
"127 79 CURVE SMOOTH",
"127 56 OFFCURVE",
"140 48 OFFCURVE",
"154 48 CURVE SMOOTH",
"184 48 OFFCURVE",
"200 91 OFFCURVE",
"215 115 CURVE SMOOTH",
"284 228 OFFCURVE",
"332 357 OFFCURVE",
"370 483 CURVE SMOOTH",
"374 498 OFFCURVE",
"380 518 OFFCURVE",
"380 536 CURVE SMOOTH"
);
},
{
closed = 1;
nodes = (
"32 538 OFFCURVE",
"9 513 OFFCURVE",
"9 478 CURVE SMOOTH",
"9 442 OFFCURVE",
"40 417 OFFCURVE",
"73 417 CURVE SMOOTH",
"103 417 OFFCURVE",
"128 440 OFFCURVE",
"128 470 CURVE SMOOTH",
"128 507 OFFCURVE",
"102 538 OFFCURVE",
"65 538 CURVE SMOOTH"
);
},
{
closed = 1;
nodes = (
"414 240 OFFCURVE",
"392 219 OFFCURVE",
"392 189 CURVE SMOOTH",
"392 162 OFFCURVE",
"408 139 OFFCURVE",
"440 139 CURVE SMOOTH",
"471 139 OFFCURVE",
"495 160 OFFCURVE",
"495 189 CURVE SMOOTH",
"495 220 OFFCURVE",
"469 240 OFFCURVE",
"442 240 CURVE SMOOTH"
);
}
);
width = 512;
}
);
unicode = 0025;
},
{
glyphname = at;
lastChange = "2019-03-20 21:42:08 +0000";
layers = (
{
layerId = UUID0;
paths = (
{
closed = 1;
nodes = (
"471 213 OFFCURVE",
"471 282 OFFCURVE",
"498 350 CURVE SMOOTH",
"508 373 OFFCURVE",
"524 396 OFFCURVE",
"524 421 CURVE SMOOTH",
"524 476 OFFCURVE",
"447 504 OFFCURVE",
"403 504 CURVE SMOOTH",
"306 504 OFFCURVE",
"173 407 OFFCURVE",
"173 265 CURVE SMOOTH",
"173 223 OFFCURVE",
"207 187 OFFCURVE",
"256 187 CURVE SMOOTH",
"321 187 OFFCURVE",
"378 225 OFFCURVE",
"431 263 CURVE",
"422 242 OFFCURVE",
"412 208 OFFCURVE",
"412 175 CURVE SMOOTH",
"412 131 OFFCURVE",
"429 90 OFFCURVE",
"486 90 CURVE SMOOTH",
"579 90 OFFCURVE",
"648 170 OFFCURVE",
"671 245 CURVE SMOOTH",
"684 288 OFFCURVE",
"691 316 OFFCURVE",
"691 352 CURVE SMOOTH",
"691 535 OFFCURVE",
"535 670 OFFCURVE",
"404 670 CURVE SMOOTH",
"207 670 OFFCURVE",
"27 520 OFFCURVE",
"27 331 CURVE SMOOTH",
"27 169 OFFCURVE",
"139 57 OFFCURVE",
"237 57 CURVE SMOOTH",
"257 57 OFFCURVE",
"325 66 OFFCURVE",
"325 91 CURVE SMOOTH",
"325 109 OFFCURVE",
"313 128 OFFCURVE",
"294 128 CURVE SMOOTH",
"275 128 OFFCURVE",
"262 127 OFFCURVE",
"241 127 CURVE SMOOTH",
"181 127 OFFCURVE",
"112 232 OFFCURVE",
"112 325 CURVE SMOOTH",
"112 456 OFFCURVE",
"275 583 OFFCURVE",
"412 583 CURVE SMOOTH",
"540 583 OFFCURVE",
"605 439 OFFCURVE",
"605 339 CURVE SMOOTH",
"605 281 OFFCURVE",
"570 156 OFFCURVE",
"505 156 CURVE SMOOTH",
"485 156 OFFCURVE",
"471 163 OFFCURVE",
"471 182 CURVE SMOOTH"
);
},
{
closed = 1;
nodes = (
"420 437 OFFCURVE",
"433 423 OFFCURVE",
"439 415 CURVE",
"402 367 OFFCURVE",
"310 255 OFFCURVE",
"271 255 CURVE SMOOTH",
"256 255 OFFCURVE",
"250 271 OFFCURVE",
"250 283 CURVE SMOOTH",
"250 313 OFFCURVE",
"290 371 OFFCURVE",
"311 392 CURVE SMOOTH",
"333 414 OFFCURVE",
"364 437 OFFCURVE",
"396 437 CURVE SMOOTH"
);
}
);
width = 719;
}
);
unicode = 0040;
},
{
glyphname = ampersand;
lastChange = "2019-03-20 21:42:08 +0000";
layers = (
{
layerId = UUID0;
paths = (
{
closed = 1;
nodes = (
"398 187 OFFCURVE",
"416 242 OFFCURVE",
"416 244 CURVE SMOOTH",
"416 257 OFFCURVE",
"401 268 OFFCURVE",
"388 268 CURVE SMOOTH",
"378 268 OFFCURVE",
"375 255 OFFCURVE",
"352 223 CURVE",
"315 272 OFFCURVE",
"278 325 OFFCURVE",
"258 356 CURVE",
"283 394 OFFCURVE",
"318 428 OFFCURVE",
"318 483 CURVE SMOOTH",
"318 556 OFFCURVE",
"245 605 OFFCURVE",
"179 605 CURVE SMOOTH",
"136 605 OFFCURVE",
"94 577 OFFCURVE",
"94 524 CURVE SMOOTH",
"94 467 OFFCURVE",
"131 418 OFFCURVE",
"159 370 CURVE",
"104 310 OFFCURVE",
"26 259 OFFCURVE",
"26 176 CURVE SMOOTH",
"26 89 OFFCURVE",
"137 34 OFFCURVE",
"222 34 CURVE SMOOTH",
"290 34 OFFCURVE",
"333 59 OFFCURVE",
"362 109 CURVE",
"373 109 OFFCURVE",
"429 27 OFFCURVE",
"436 21 CURVE SMOOTH",
"443 15 OFFCURVE",
"449 13 OFFCURVE",
"454 13 CURVE SMOOTH",
"465 13 OFFCURVE",
"477 22 OFFCURVE",
"477 34 CURVE SMOOTH",
"477 67 OFFCURVE",
"434 120 OFFCURVE",
"391 179 CURVE"
);
},
{
closed = 1;
nodes = (
"177 119 OFFCURVE",
"104 140 OFFCURVE",
"104 179 CURVE SMOOTH",
"104 221 OFFCURVE",
"183 284 OFFCURVE",
"208 303 CURVE",
"241 262 OFFCURVE",
"276 220 OFFCURVE",
"306 177 CURVE",
"286 140 OFFCURVE",
"259 119 OFFCURVE",
"214 119 CURVE SMOOTH"
);
},
{
closed = 1;
nodes = (
"184 455 OFFCURVE",
"162 474 OFFCURVE",
"162 530 CURVE",
"189 529 OFFCURVE",
"231 518 OFFCURVE",
"231 482 CURVE SMOOTH",
"231 461 OFFCURVE",
"218 441 OFFCURVE",
"205 426 CURVE"
);
}
);
width = 510;
}
);
unicode = 0026;
},
{
glyphname = copyright;
lastChange = "2019-03-20 21:42:08 +0000";
layers = (
{
layerId = UUID0;
paths = (
{
closed = 1;
nodes = (
"671 288 OFFCURVE",
"678 316 OFFCURVE",
"678 352 CURVE SMOOTH",
"678 535 OFFCURVE",
"526 652 OFFCURVE",
"395 652 CURVE SMOOTH",
"198 652 OFFCURVE",
"24 494 OFFCURVE",
"24 305 CURVE SMOOTH",
"24 149 OFFCURVE",
"137 49 OFFCURVE",
"320 49 CURVE SMOOTH",
"503 49 OFFCURVE",
"625 137 OFFCURVE",
"658 245 CURVE SMOOTH"
);
},
{
closed = 1;
nodes = (
"169 102 OFFCURVE",
"83 178 OFFCURVE",
"83 322 CURVE SMOOTH",
"83 415 OFFCURVE",
"181 596 OFFCURVE",
"397 596 CURVE SMOOTH",
"574 596 OFFCURVE",
"623 433 OFFCURVE",
"623 333 CURVE SMOOTH",
"623 235 OFFCURVE",
"520 102 OFFCURVE",
"326 102 CURVE SMOOTH"
);
},
{
closed = 1;
nodes = (
"235 562 OFFCURVE",
"193 407 OFFCURVE",
"193 324 CURVE SMOOTH",
"193 259 OFFCURVE",
"220 133 OFFCURVE",
"350 133 CURVE SMOOTH",
"451 133 OFFCURVE",
"551 205 OFFCURVE",
"551 274 CURVE SMOOTH",
"551 288 OFFCURVE",
"550 305 OFFCURVE",
"526 305 CURVE SMOOTH",
"498 305 OFFCURVE",
"488 262 OFFCURVE",
"467 243 CURVE SMOOTH",
"443 221 OFFCURVE",
"405 204 OFFCURVE",
"367 204 CURVE SMOOTH",
"306 204 OFFCURVE",
"301 292 OFFCURVE",
"301 325 CURVE SMOOTH",
"301 378 OFFCURVE",
"313 458 OFFCURVE",
"349 487 CURVE",
"369 498 OFFCURVE",
"400 497 OFFCURVE",
"400 524 CURVE SMOOTH",
"400 544 OFFCURVE",
"377 562 OFFCURVE",
"342 562 CURVE SMOOTH"
);
}
);
width = 707;
}
);
unicode = 00A9;
},
{
glyphname = registered;
lastChange = "2019-03-20 21:42:08 +0000";
layers = (
{
layerId = UUID0;
paths = (
{
closed = 1;
nodes = (
"684 288 OFFCURVE",
"691 316 OFFCURVE",
"691 352 CURVE SMOOTH",
"691 535 OFFCURVE",
"539 652 OFFCURVE",
"408 652 CURVE SMOOTH",
"211 652 OFFCURVE",
"37 494 OFFCURVE",
"37 305 CURVE SMOOTH",
"37 149 OFFCURVE",
"150 49 OFFCURVE",
"333 49 CURVE SMOOTH",
"516 49 OFFCURVE",
"638 137 OFFCURVE",
"671 245 CURVE SMOOTH"
);
},
{
closed = 1;
nodes = (
"182 102 OFFCURVE",
"96 178 OFFCURVE",
"96 322 CURVE SMOOTH",
"96 415 OFFCURVE",
"194 596 OFFCURVE",
"410 596 CURVE SMOOTH",
"587 596 OFFCURVE",
"636 433 OFFCURVE",
"636 333 CURVE SMOOTH",
"636 235 OFFCURVE",
"533 102 OFFCURVE",
"339 102 CURVE SMOOTH"
);
},
{
closed = 1;
nodes = (
"451 557 OFFCURVE",
"444 558 OFFCURVE",
"437 558 CURVE SMOOTH",
"364 558 OFFCURVE",
"322 462 OFFCURVE",
"290 392 CURVE",
"277 436 OFFCURVE",
"283 515 OFFCURVE",
"240 515 CURVE SMOOTH",
"216 515 OFFCURVE",
"213 476 OFFCURVE",
"213 440 CURVE SMOOTH",
"213 328 OFFCURVE",
"224 330 OFFCURVE",
"227 211 CURVE SMOOTH",
"228 187 OFFCURVE",
"222 144 OFFCURVE",
"259 144 CURVE SMOOTH",
"302 144 OFFCURVE",
"296 187 OFFCURVE",
"303 257 CURVE",
"348 224 OFFCURVE",
"350 229 OFFCURVE",
"385 191 CURVE SMOOTH",
"411 162 OFFCURVE",
"412 139 OFFCURVE",
"456 139 CURVE SMOOTH",
"474 139 OFFCURVE",
"489 148 OFFCURVE",
"489 171 CURVE SMOOTH",
"489 208 OFFCURVE",
"443 269 OFFCURVE",
"359 314 CURVE",
"440 359 OFFCURVE",
"483 425 OFFCURVE",
"483 508 CURVE SMOOTH",
"483 527 OFFCURVE",
"476 545 OFFCURVE",
"458 554 CURVE"
);
},
{
closed = 1;
nodes = (
"423 439 OFFCURVE",
"391 385 OFFCURVE",
"323 357 CURVE",
"346 417 OFFCURVE",
"389 489 OFFCURVE",
"413 489 CURVE SMOOTH",
"423 489 OFFCURVE",
"423 476 OFFCURVE",
"423 470 CURVE SMOOTH"
);
}
);
width = 703;
}
);
unicode = 00AE;
},
